Truculenta-72ptCondensedBlack.ufo
<glyph name="exclam" format="2">
  <advance width="225"/>
  <unicode hex="0021"/>
  <outline>
    <contour>
      <point x="68" y="230" type="curve"/>
      <point x="149" y="232" type="line"/>
      <point x="153" y="353"/>
      <point x="155" y="409"/>
      <point x="160" y="478" type="curve" smooth="yes"/>
      <point x="167" y="563"/>
      <point x="168" y="589"/>
      <point x="179" y="711" type="curve"/>
      <point x="45" y="704" type="line"/>
      <point x="51" y="597"/>
      <point x="54" y="553"/>
      <point x="57" y="485" type="curve" smooth="yes"/>
      <point x="60" y="414"/>
      <point x="64" y="339"/>
    </contour>
    <contour>
      <point x="171" y="0" type="line"/>
      <point x="161" y="171" type="line"/>
      <point x="53" y="169" type="line"/>
      <point x="49" y="0" type="line"/>
    </contour>
  </outline>
</glyph>
<glyph name="quotedbl" format="2">
  <advance width="380"/>
  <unicode hex="0022"/>
  <outline>
    <contour>
      <point x="208" y="494" type="curve"/>
      <point x="312" y="502" type="line"/>
      <point x="312" y="497"/>
      <point x="321" y="573"/>
      <point x="329" y="614" type="curve" smooth="yes"/>
      <point x="338" y="655"/>
      <point x="349" y="700"/>
      <point x="348" y="697" type="curve"/>
      <point x="214" y="702" type="line"/>
      <point x="214" y="705"/>
      <point x="214" y="657"/>
      <point x="212" y="606" type="curve" smooth="yes"/>
      <point x="210" y="548"/>
      <point x="208" y="491"/>
    </contour>
    <contour>
      <point x="50" y="489" type="curve"/>
      <point x="154" y="505" type="line"/>
      <point x="153" y="501"/>
      <point x="156" y="578"/>
      <point x="160" y="619" type="curve" smooth="yes"/>
      <point x="164" y="660"/>
      <point x="172" y="706"/>
      <point x="172" y="704" type="curve"/>
      <point x="38" y="697" type="line"/>
      <point x="38" y="699"/>
      <point x="43" y="652"/>
      <point x="45" y="601" type="curve" smooth="yes"/>
      <point x="47" y="544"/>
      <point x="51" y="486"/>
    </contour>
  </outline>
</glyph>
<glyph name="numbersign" format="2">
  <advance width="690"/>
  <unicode hex="0023"/>
  <outline>
    <contour>
      <point x="79" y="3" type="line"/>
      <point x="192" y="0" type="line"/>
      <point x="274" y="369" type="line"/>
      <point x="355" y="696" type="line"/>
      <point x="244" y="699" type="line"/>
      <point x="179" y="390" type="line"/>
    </contour>
    <contour>
      <point x="38" y="155" type="line"/>
      <point x="31" y="155"/>
      <point x="215" y="160"/>
      <point x="339" y="159" type="curve" smooth="yes"/>
      <point x="468" y="158"/>
      <point x="613" y="157"/>
      <point x="607" y="157" type="curve"/>
      <point x="602" y="260" type="line"/>
      <point x="608" y="260"/>
      <point x="463" y="257"/>
      <point x="342" y="257" type="curve" smooth="yes"/>
      <point x="227" y="257"/>
      <point x="33" y="260"/>
      <point x="40" y="260" type="curve"/>
    </contour>
    <contour>
      <point x="330" y="2" type="line"/>
      <point x="443" y="-2" type="line"/>
      <point x="522" y="358" type="line"/>
      <point x="603" y="682" type="line"/>
      <point x="492" y="690" type="line"/>
      <point x="430" y="390" type="line"/>
    </contour>
    <contour>
      <point x="88" y="442" type="line"/>
      <point x="81" y="442"/>
      <point x="266" y="447"/>
      <point x="390" y="446" type="curve" smooth="yes"/>
      <point x="518" y="445"/>
      <point x="658" y="443"/>
      <point x="653" y="443" type="curve"/>
      <point x="653" y="547" type="line"/>
      <point x="659" y="547"/>
      <point x="513" y="544"/>
      <point x="392" y="544" type="curve" smooth="yes"/>
      <point x="277" y="544"/>
      <point x="72" y="547"/>
      <point x="79" y="547" type="curve"/>
    </contour>
  </outline>
</glyph>
<glyph name="ampersand" format="2">
  <advance width="511"/>
  <unicode hex="0026"/>
  <outline>
    <contour>
      <point x="212" y="-19" type="curve" smooth="yes"/>
      <point x="380" y="-19"/>
      <point x="436" y="169"/>
      <point x="436" y="371" type="curve"/>
      <point x="331" y="383" type="line"/>
      <point x="332" y="181"/>
      <point x="308" y="61"/>
      <point x="219" y="61" type="curve" smooth="yes"/>
      <point x="169" y="61"/>
      <point x="144" y="122"/>
      <point x="144" y="177" type="curve" smooth="yes"/>
      <point x="144" y="293"/>
      <point x="196" y="315"/>
      <point x="245" y="364" type="curve" smooth="yes"/>
      <point x="291" y="410"/>
      <point x="367" y="471"/>
      <point x="367" y="576" type="curve" smooth="yes"/>
      <point x="367" y="655"/>
      <point x="323" y="711"/>
      <point x="230" y="711" type="curve" smooth="yes"/>
      <point x="135" y="711"/>
      <point x="85" y="636"/>
      <point x="85" y="550" type="curve" smooth="yes"/>
      <point x="85" y="415"/>
      <point x="163" y="288"/>
      <point x="279" y="66" type="curve" smooth="yes"/>
      <point x="305" y="16"/>
      <point x="374" y="-20"/>
      <point x="467" y="-16" type="curve"/>
      <point x="480" y="65" type="line"/>
      <point x="420" y="62"/>
      <point x="404" y="69"/>
      <point x="386" y="102" type="curve"/>
      <point x="268" y="343"/>
      <point x="196" y="428"/>
      <point x="196" y="556" type="curve" smooth="yes"/>
      <point x="196" y="597"/>
      <point x="199" y="631"/>
      <point x="228" y="631" type="curve" smooth="yes"/>
      <point x="253" y="631"/>
      <point x="258" y="605"/>
      <point x="258" y="563" type="curve" smooth="yes"/>
      <point x="258" y="503"/>
      <point x="220" y="464"/>
      <point x="179" y="425" type="curve" smooth="yes"/>
      <point x="124" y="373"/>
      <point x="34" y="321"/>
      <point x="34" y="177" type="curve" smooth="yes"/>
      <point x="34" y="58"/>
      <point x="92" y="-19"/>
    </contour>
  </outline>
</glyph>
<glyph name="quotesingle" format="2">
  <advance width="204"/>
  <unicode hex="0027"/>
  <outline>
    <contour>
      <point x="53" y="489" type="curve"/>
      <point x="156" y="505" type="line"/>
      <point x="156" y="501"/>
      <point x="159" y="578"/>
      <point x="162" y="619" type="curve" smooth="yes"/>
      <point x="167" y="660"/>
      <point x="175" y="706"/>
      <point x="175" y="704" type="curve"/>
      <point x="41" y="697" type="line"/>
      <point x="40" y="699"/>
      <point x="46" y="652"/>
      <point x="48" y="601" type="curve" smooth="yes"/>
      <point x="50" y="544"/>
      <point x="53" y="486"/>
    </contour>
  </outline>
</glyph>
<glyph name="parenleft" format="2">
  <advance width="265"/>
  <unicode hex="0028"/>
  <outline>
    <contour>
      <point x="193" y="-162" type="curve"/>
      <point x="220" y="-78" type="line"/>
      <point x="143" y="-17"/>
      <point x="146" y="130"/>
      <point x="146" y="281" type="curve" smooth="yes"/>
      <point x="146" y="433"/>
      <point x="143" y="580"/>
      <point x="220" y="641" type="curve"/>
      <point x="193" y="725" type="line"/>
      <point x="81" y="699"/>
      <point x="43" y="578"/>
      <point x="43" y="281" type="curve" smooth="yes"/>
      <point x="43" y="-15"/>
      <point x="81" y="-136"/>
    </contour>
  </outline>
</glyph>
<glyph name="parenright" format="2">
  <advance width="265"/>
  <unicode hex="0029"/>
  <outline>
    <contour>
      <point x="70" y="725" type="curve"/>
      <point x="43" y="641" type="line"/>
      <point x="120" y="580"/>
      <point x="117" y="433"/>
      <point x="117" y="282" type="curve" smooth="yes"/>
      <point x="117" y="130"/>
      <point x="120" y="-17"/>
      <point x="43" y="-78" type="curve"/>
      <point x="70" y="-162" type="line"/>
      <point x="182" y="-136"/>
      <point x="220" y="-15"/>
      <point x="220" y="282" type="curve" smooth="yes"/>
      <point x="220" y="578"/>
      <point x="182" y="699"/>
    </contour>
  </outline>
</glyph>
<glyph name="asterisk" format="2">
  <advance width="504"/>
  <unicode hex="002A"/>
  <outline>
    <contour>
      <point x="381" y="404" type="curve"/>
      <point x="466" y="478" type="line"/>
      <point x="368" y="529"/>
      <point x="328" y="538"/>
      <point x="253" y="586" type="curve" smooth="yes"/>
      <point x="204" y="617"/>
      <point x="176" y="645"/>
      <point x="102" y="705" type="curve"/>
      <point x="37" y="617" type="line"/>
      <point x="32" y="619"/>
      <point x="167" y="555"/>
      <point x="221" y="524" type="curve" smooth="yes"/>
      <point x="272" y="496"/>
      <point x="385" y="401"/>
    </contour>
    <contour>
      <point x="90" y="389" type="line"/>
      <point x="85" y="385"/>
      <point x="222" y="494"/>
      <point x="273" y="524" type="curve" smooth="yes"/>
      <point x="327" y="556"/>
      <point x="452" y="613"/>
      <point x="448" y="611" type="curve"/>
      <point x="409" y="709" type="line"/>
      <point x="327" y="647"/>
      <point x="284" y="611"/>
      <point x="220" y="570" type="curve" smooth="yes"/>
      <point x="149" y="524"/>
      <point x="119" y="510"/>
      <point x="53" y="468" type="curve"/>
    </contour>
    <contour>
      <point x="305" y="336" type="line"/>
      <point x="305" y="331"/>
      <point x="285" y="494"/>
      <point x="285" y="562" type="curve" smooth="yes"/>
      <point x="285" y="632"/>
      <point x="303" y="756"/>
      <point x="303" y="752" type="curve"/>
      <point x="195" y="759" type="line"/>
      <point x="194" y="764"/>
      <point x="209" y="628"/>
      <point x="210" y="561" type="curve" smooth="yes"/>
      <point x="211" y="497"/>
      <point x="195" y="341"/>
      <point x="196" y="347" type="curve"/>
    </contour>
  </outline>
</glyph>
<glyph name="comma" format="2">
  <advance width="206"/>
  <unicode hex="002C"/>
  <outline>
    <contour>
      <point x="101" y="-159" type="line"/>
      <point x="151" y="-109"/>
      <point x="160" y="-52"/>
      <point x="160" y="19" type="curve" smooth="yes"/>
      <point x="160" y="172" type="line"/>
      <point x="45" y="165" type="line"/>
      <point x="47" y="4" type="line"/>
      <point x="97" y="1" type="line"/>
      <point x="97" y="-40"/>
      <point x="91" y="-79"/>
      <point x="52" y="-125" type="curve"/>
    </contour>
  </outline>
</glyph>
<glyph name="period" format="2">
  <advance width="207"/>
  <unicode hex="002E"/>
  <outline>
    <contour>
      <point x="161" y="0" type="line"/>
      <point x="160" y="180" type="line"/>
      <point x="45" y="173" type="line"/>
      <point x="48" y="0" type="line"/>
    </contour>
  </outline>
</glyph>
<glyph name="slash" format="2">
  <advance width="255"/>
  <unicode hex="002F"/>
  <outline>
    <contour>
      <point x="-10" y="-1" type="curve"/>
      <point x="101" y="0" type="line"/>
      <point x="124" y="119"/>
      <point x="154" y="236"/>
      <point x="186" y="366" type="curve" smooth="yes"/>
      <point x="218" y="492"/>
      <point x="243" y="597"/>
      <point x="265" y="698" type="curve"/>
      <point x="155" y="700" type="line"/>
      <point x="138" y="579"/>
      <point x="117" y="483"/>
      <point x="89" y="367" type="curve" smooth="yes"/>
      <point x="58" y="241"/>
      <point x="30" y="128"/>
    </contour>
  </outline>
</glyph>
<glyph name="zero" format="2">
  <advance width="384"/>
  <unicode hex="0030"/>
  <outline>
    <contour>
      <point x="183" y="-10" type="curve" smooth="yes"/>
      <point x="325" y="-10"/>
      <point x="356" y="132"/>
      <point x="356" y="342" type="curve" smooth="yes"/>
      <point x="356" y="560"/>
      <point x="350" y="707"/>
      <point x="199" y="707" type="curve" smooth="yes"/>
      <point x="54" y="707"/>
      <point x="28" y="547"/>
      <point x="28" y="343" type="curve" smooth="yes"/>
      <point x="28" y="126"/>
      <point x="44" y="-10"/>
    </contour>
    <contour>
      <point x="189" y="84" type="curve" smooth="yes"/>
      <point x="134" y="84"/>
      <point x="132" y="170"/>
      <point x="132" y="338" type="curve" smooth="yes"/>
      <point x="132" y="493"/>
      <point x="141" y="610"/>
      <point x="196" y="610" type="curve" smooth="yes"/>
      <point x="250" y="610"/>
      <point x="254" y="504"/>
      <point x="254" y="353" type="curve" smooth="yes"/>
      <point x="254" y="182"/>
      <point x="250" y="84"/>
    </contour>
  </outline>
</glyph>
<glyph name="one" format="2">
  <advance width="225"/>
  <unicode hex="0031"/>
  <outline>
    <contour>
      <point x="84" y="0" type="curve"/>
      <point x="198" y="0" type="line"/>
      <point x="198" y="-7"/>
      <point x="193" y="165"/>
      <point x="193" y="341" type="curve" smooth="yes"/>
      <point x="193" y="517"/>
      <point x="199" y="701"/>
      <point x="199" y="694" type="curve"/>
      <point x="134" y="694" type="line"/>
      <point x="87" y="621" type="line"/>
      <point x="88" y="545"/>
      <point x="89" y="421"/>
      <point x="89" y="342" type="curve" smooth="yes"/>
      <point x="89" y="223"/>
      <point x="83" y="-8"/>
    </contour>
    <contour>
      <point x="1" y="550" type="line"/>
      <point x="42" y="549"/>
      <point x="105" y="553"/>
      <point x="152" y="573" type="curve"/>
      <point x="134" y="694" type="line"/>
      <point x="96" y="662"/>
      <point x="25" y="641"/>
      <point x="-5" y="636" type="curve"/>
    </contour>
  </outline>
</glyph>
<glyph name="two" format="2">
  <advance width="358"/>
  <unicode hex="0032"/>
  <outline>
    <contour>
      <point x="113" y="68" type="line"/>
      <point x="198" y="139"/>
      <point x="331" y="327"/>
      <point x="331" y="504" type="curve" smooth="yes"/>
      <point x="331" y="626"/>
      <point x="282" y="700"/>
      <point x="187" y="700" type="curve" smooth="yes"/>
      <point x="53" y="700"/>
      <point x="32" y="599"/>
      <point x="32" y="493" type="curve" smooth="yes"/>
      <point x="32" y="459"/>
      <point x="35" y="425"/>
      <point x="41" y="384" type="curve"/>
      <point x="140" y="385" type="line"/>
      <point x="134" y="418"/>
      <point x="130" y="457"/>
      <point x="130" y="490" type="curve" smooth="yes"/>
      <point x="130" y="549"/>
      <point x="134" y="605"/>
      <point x="179" y="605" type="curve" smooth="yes"/>
      <point x="213" y="605"/>
      <point x="225" y="570"/>
      <point x="225" y="485" type="curve" smooth="yes"/>
      <point x="225" y="335"/>
      <point x="118" y="200"/>
      <point x="15" y="96" type="curve"/>
    </contour>
    <contour>
      <point x="13" y="-6" type="line"/>
      <point x="20" y="-5"/>
      <point x="173" y="0"/>
      <point x="178" y="0" type="curve" smooth="yes"/>
      <point x="204" y="0"/>
      <point x="330" y="0"/>
      <point x="339" y="0" type="curve"/>
      <point x="338" y="106" type="line"/>
      <point x="309" y="99"/>
      <point x="241" y="98"/>
      <point x="189" y="97" type="curve" smooth="yes"/>
      <point x="137" y="96"/>
      <point x="72" y="96"/>
      <point x="15" y="96" type="curve"/>
    </contour>
  </outline>
</glyph>
<glyph name="three" format="2">
  <advance width="329"/>
  <unicode hex="0033"/>
  <outline>
    <contour>
      <point x="154" y="-10" type="curve" smooth="yes"/>
      <point x="254" y="-10"/>
      <point x="312" y="56"/>
      <point x="313" y="167" type="curve" smooth="yes"/>
      <point x="313" y="225"/>
      <point x="292" y="279"/>
      <point x="241" y="304" type="curve"/>
      <point x="288" y="337"/>
      <point x="315" y="395"/>
      <point x="315" y="501" type="curve" smooth="yes"/>
      <point x="315" y="617"/>
      <point x="281" y="697"/>
      <point x="162" y="697" type="curve" smooth="yes"/>
      <point x="63" y="697"/>
      <point x="12" y="620"/>
      <point x="18" y="500" type="curve"/>
      <point x="119" y="499" type="line"/>
      <point x="120" y="569"/>
      <point x="130" y="600"/>
      <point x="164" y="600" type="curve" smooth="yes"/>
      <point x="199" y="600"/>
      <point x="212" y="575"/>
      <point x="212" y="487" type="curve" smooth="yes"/>
      <point x="212" y="384"/>
      <point x="199" y="335"/>
      <point x="129" y="335" type="curve" smooth="yes"/>
      <point x="117" y="335"/>
      <point x="98" y="335"/>
      <point x="80" y="336" type="curve"/>
      <point x="80" y="248" type="line"/>
      <point x="101" y="249"/>
      <point x="121" y="249"/>
      <point x="137" y="249" type="curve" smooth="yes"/>
      <point x="184" y="249"/>
      <point x="211" y="230"/>
      <point x="210" y="159" type="curve" smooth="yes"/>
      <point x="210" y="108"/>
      <point x="192" y="81"/>
      <point x="157" y="81" type="curve" smooth="yes"/>
      <point x="120" y="81"/>
      <point x="105" y="101"/>
      <point x="106" y="145" type="curve"/>
      <point x="4" y="145" type="line"/>
      <point x="4" y="46"/>
      <point x="59" y="-10"/>
    </contour>
  </outline>
</glyph>
<glyph name="four" format="2">
  <advance width="355"/>
  <unicode hex="0034"/>
  <outline>
    <contour>
      <point x="95" y="184" type="line"/>
      <point x="111" y="236"/>
      <point x="122" y="282"/>
      <point x="164" y="436" type="curve" smooth="yes"/>
      <point x="186" y="517"/>
      <point x="210" y="610"/>
      <point x="213" y="618" type="curve" smooth="yes"/>
      <point x="230" y="664"/>
      <point x="295" y="698"/>
      <point x="293" y="696" type="curve"/>
      <point x="150" y="702" type="line"/>
      <point x="151" y="707"/>
      <point x="108" y="560"/>
      <point x="77" y="449" type="curve" smooth="yes"/>
      <point x="51" y="357"/>
      <point x="2" y="223"/>
      <point x="4" y="229" type="curve"/>
    </contour>
    <contour>
      <point x="20" y="126" type="line"/>
      <point x="16" y="126"/>
      <point x="119" y="130"/>
      <point x="183" y="131" type="curve" smooth="yes"/>
      <point x="251" y="132"/>
      <point x="351" y="131"/>
      <point x="347" y="131" type="curve"/>
      <point x="346" y="236" type="line"/>
      <point x="350" y="236"/>
      <point x="249" y="230"/>
      <point x="178" y="227" type="curve" smooth="yes"/>
      <point x="109" y="223"/>
      <point x="34" y="228"/>
      <point x="4" y="229" type="curve"/>
    </contour>
    <contour>
      <point x="183" y="-3" type="curve"/>
      <point x="292" y="0" type="line"/>
      <point x="292" y="-8"/>
      <point x="289" y="131"/>
      <point x="289" y="306" type="curve" smooth="yes"/>
      <point x="289" y="483"/>
      <point x="293" y="703"/>
      <point x="293" y="696" type="curve"/>
      <point x="188" y="686" type="line"/>
      <point x="194" y="536"/>
      <point x="185" y="357"/>
      <point x="185" y="251" type="curve" smooth="yes"/>
      <point x="185" y="194"/>
      <point x="186" y="171"/>
    </contour>
  </outline>
</glyph>
<glyph name="five" format="2">
  <advance width="349"/>
  <unicode hex="0035"/>
  <outline>
    <contour>
      <point x="160" y="-10" type="curve" smooth="yes"/>
      <point x="279" y="-10"/>
      <point x="336" y="100"/>
      <point x="336" y="238" type="curve" smooth="yes"/>
      <point x="336" y="402"/>
      <point x="275" y="464"/>
      <point x="204" y="464" type="curve" smooth="yes"/>
      <point x="145" y="464"/>
      <point x="106" y="422"/>
      <point x="78" y="345" type="curve"/>
      <point x="124" y="297" type="line"/>
      <point x="130" y="340"/>
      <point x="153" y="363"/>
      <point x="180" y="363" type="curve" smooth="yes"/>
      <point x="211" y="363"/>
      <point x="233" y="321"/>
      <point x="233" y="235" type="curve" smooth="yes"/>
      <point x="233" y="149"/>
      <point x="214" y="84"/>
      <point x="166" y="84" type="curve" smooth="yes"/>
      <point x="117" y="84"/>
      <point x="108" y="112"/>
      <point x="111" y="192" type="curve"/>
      <point x="9" y="185" type="line"/>
      <point x="3" y="66"/>
      <point x="50" y="-10"/>
    </contour>
    <contour>
      <point x="124" y="297" type="line"/>
      <point x="124" y="291"/>
      <point x="130" y="423"/>
      <point x="132" y="502" type="curve" smooth="yes"/>
      <point x="134" y="586"/>
      <point x="140" y="700"/>
      <point x="140" y="695" type="curve"/>
      <point x="30" y="703" type="line"/>
      <point x="30" y="708"/>
      <point x="32" y="593"/>
      <point x="30" y="505" type="curve" smooth="yes"/>
      <point x="28" y="421"/>
      <point x="20" y="288"/>
      <point x="20" y="293" type="curve"/>
    </contour>
    <contour>
      <point x="55" y="593" type="line"/>
      <point x="53" y="593"/>
      <point x="124" y="595"/>
      <point x="178" y="595" type="curve" smooth="yes"/>
      <point x="225" y="595"/>
      <point x="285" y="594"/>
      <point x="312" y="593" type="curve"/>
      <point x="316" y="697" type="line"/>
      <point x="291" y="696"/>
      <point x="226" y="697"/>
      <point x="176" y="698" type="curve" smooth="yes"/>
      <point x="125" y="699"/>
      <point x="126" y="699"/>
      <point x="29" y="703" type="curve"/>
    </contour>
  </outline>
</glyph>
<glyph name="six" format="2">
  <advance width="366"/>
  <unicode hex="0036"/>
  <outline>
    <contour>
      <point x="189" y="-10" type="curve" smooth="yes"/>
      <point x="286" y="-10"/>
      <point x="341" y="74"/>
      <point x="341" y="207" type="curve" smooth="yes"/>
      <point x="341" y="349"/>
      <point x="277" y="405"/>
      <point x="210" y="405" type="curve" smooth="yes"/>
      <point x="151" y="405"/>
      <point x="104" y="357"/>
      <point x="92" y="249" type="curve"/>
      <point x="124" y="200" type="line"/>
      <point x="124" y="258"/>
      <point x="140" y="309"/>
      <point x="186" y="309" type="curve" smooth="yes"/>
      <point x="223" y="309"/>
      <point x="239" y="271"/>
      <point x="239" y="201" type="curve" smooth="yes"/>
      <point x="239" y="133"/>
      <point x="220" y="80"/>
      <point x="181" y="80" type="curve" smooth="yes"/>
      <point x="130" y="80"/>
      <point x="124" y="147"/>
      <point x="124" y="192" type="curve" smooth="yes"/>
      <point x="124" y="354"/>
      <point x="110" y="620"/>
      <point x="193" y="620" type="curve" smooth="yes"/>
      <point x="218" y="620"/>
      <point x="232" y="583"/>
      <point x="232" y="525" type="curve" smooth="yes"/>
      <point x="232" y="502"/>
      <point x="229" y="473"/>
      <point x="225" y="443" type="curve"/>
      <point x="327" y="445" type="line"/>
      <point x="331" y="473"/>
      <point x="333" y="502"/>
      <point x="333" y="530" type="curve" smooth="yes"/>
      <point x="333" y="634"/>
      <point x="301" y="713"/>
      <point x="195" y="713" type="curve" smooth="yes"/>
      <point x="80" y="713"/>
      <point x="21" y="596"/>
      <point x="21" y="321" type="curve" smooth="yes"/>
      <point x="21" y="86"/>
      <point x="65" y="-10"/>
    </contour>
  </outline>
</glyph>
<glyph name="seven" format="2">
  <advance width="281"/>
  <unicode hex="0037"/>
  <outline>
    <contour>
      <point x="59" y="-1" type="curve"/>
      <point x="182" y="0" type="line"/>
      <point x="178" y="98"/>
      <point x="176" y="198"/>
      <point x="185" y="293" type="curve" smooth="yes"/>
      <point x="195" y="401"/>
      <point x="220" y="503"/>
      <point x="274" y="588" type="curve"/>
      <point x="274" y="700" type="line"/>
      <point x="158" y="642"/>
      <point x="106" y="489"/>
      <point x="80" y="337" type="curve" smooth="yes"/>
      <point x="61" y="227"/>
      <point x="57" y="107"/>
    </contour>
    <contour>
      <point x="6" y="585" type="line"/>
      <point x="33" y="585"/>
      <point x="67" y="587"/>
      <point x="116" y="587" type="curve" smooth="yes"/>
      <point x="165" y="587"/>
      <point x="270" y="589"/>
      <point x="266" y="589" type="curve"/>
      <point x="274" y="700" type="line"/>
      <point x="278" y="700"/>
      <point x="193" y="698"/>
      <point x="129" y="698" type="curve" smooth="yes"/>
      <point x="78" y="698"/>
      <point x="50" y="700"/>
      <point x="5" y="700" type="curve"/>
    </contour>
  </outline>
</glyph>
<glyph name="eight" format="2">
  <advance width="348"/>
  <unicode hex="0038"/>
  <outline>
    <contour>
      <point x="166" y="259" type="curve" smooth="yes"/>
      <point x="273" y="259"/>
      <point x="325" y="332"/>
      <point x="325" y="472" type="curve" smooth="yes"/>
      <point x="325" y="634"/>
      <point x="277" y="707"/>
      <point x="178" y="707" type="curve" smooth="yes"/>
      <point x="77" y="707"/>
      <point x="23" y="627"/>
      <point x="23" y="462" type="curve" smooth="yes"/>
      <point x="23" y="337"/>
      <point x="78" y="259"/>
    </contour>
    <contour>
      <point x="164" y="-10" type="curve" smooth="yes"/>
      <point x="284" y="-10"/>
      <point x="341" y="55"/>
      <point x="341" y="164" type="curve" smooth="yes"/>
      <point x="341" y="292"/>
      <point x="280" y="345"/>
      <point x="179" y="345" type="curve" smooth="yes"/>
      <point x="75" y="345"/>
      <point x="7" y="288"/>
      <point x="7" y="156" type="curve" smooth="yes"/>
      <point x="7" y="57"/>
      <point x="66" y="-10"/>
    </contour>
    <contour>
      <point x="174" y="73" type="curve" smooth="yes"/>
      <point x="128" y="73"/>
      <point x="109" y="104"/>
      <point x="109" y="165" type="curve" smooth="yes"/>
      <point x="109" y="227"/>
      <point x="133" y="259"/>
      <point x="174" y="259" type="curve" smooth="yes"/>
      <point x="220" y="259"/>
      <point x="239" y="229"/>
      <point x="239" y="164" type="curve" smooth="yes"/>
      <point x="239" y="110"/>
      <point x="221" y="73"/>
    </contour>
    <contour>
      <point x="174" y="345" type="curve" smooth="yes"/>
      <point x="137" y="345"/>
      <point x="127" y="378"/>
      <point x="127" y="474" type="curve" smooth="yes"/>
      <point x="127" y="568"/>
      <point x="136" y="617"/>
      <point x="177" y="617" type="curve" smooth="yes"/>
      <point x="214" y="617"/>
      <point x="222" y="577"/>
      <point x="222" y="467" type="curve" smooth="yes"/>
      <point x="222" y="379"/>
      <point x="211" y="345"/>
    </contour>
  </outline>
</glyph>
<glyph name="nine" format="2">
  <advance width="360"/>
  <unicode hex="0039"/>
  <outline>
    <contour>
      <point x="168" y="-10" type="curve" smooth="yes"/>
      <point x="295" y="-10"/>
      <point x="343" y="110"/>
      <point x="343" y="380" type="curve" smooth="yes"/>
      <point x="343" y="616"/>
      <point x="298" y="714"/>
      <point x="181" y="714" type="curve" smooth="yes"/>
      <point x="60" y="714"/>
      <point x="23" y="594"/>
      <point x="23" y="466" type="curve" smooth="yes"/>
      <point x="23" y="311"/>
      <point x="73" y="237"/>
      <point x="154" y="237" type="curve" smooth="yes"/>
      <point x="211" y="237"/>
      <point x="258" y="280"/>
      <point x="272" y="388" type="curve"/>
      <point x="240" y="431" type="line"/>
      <point x="240" y="374"/>
      <point x="211" y="334"/>
      <point x="175" y="334" type="curve" smooth="yes"/>
      <point x="133" y="334"/>
      <point x="125" y="385"/>
      <point x="125" y="472" type="curve" smooth="yes"/>
      <point x="125" y="555"/>
      <point x="131" y="621"/>
      <point x="181" y="621" type="curve" smooth="yes"/>
      <point x="237" y="621"/>
      <point x="240" y="523"/>
      <point x="240" y="327" type="curve" smooth="yes"/>
      <point x="240" y="162"/>
      <point x="225" y="80"/>
      <point x="175" y="80" type="curve" smooth="yes"/>
      <point x="138" y="80"/>
      <point x="133" y="134"/>
      <point x="133" y="190" type="curve" smooth="yes"/>
      <point x="133" y="196"/>
      <point x="134" y="200"/>
      <point x="133" y="208" type="curve"/>
      <point x="30" y="203" type="line"/>
      <point x="30" y="195"/>
      <point x="30" y="186"/>
      <point x="30" y="182" type="curve" smooth="yes"/>
      <point x="30" y="70"/>
      <point x="61" y="-10"/>
    </contour>
  </outline>
</glyph>
<glyph name="colon" format="2">
  <advance width="206"/>
  <unicode hex="003A"/>
  <outline>
    <contour>
      <point x="161" y="0" type="line"/>
      <point x="161" y="179" type="line"/>
      <point x="45" y="166" type="line"/>
      <point x="48" y="0" type="line"/>
    </contour>
    <contour>
      <point x="161" y="373" type="line"/>
      <point x="161" y="551" type="line"/>
      <point x="45" y="538" type="line"/>
      <point x="48" y="373" type="line"/>
    </contour>
  </outline>
</glyph>
<glyph name="semicolon" format="2">
  <advance width="211"/>
  <unicode hex="003B"/>
  <outline>
    <contour>
      <point x="102" y="-159" type="line"/>
      <point x="151" y="-109"/>
      <point x="160" y="-52"/>
      <point x="160" y="19" type="curve" smooth="yes"/>
      <point x="160" y="172" type="line"/>
      <point x="45" y="165" type="line"/>
      <point x="47" y="4" type="line"/>
      <point x="97" y="1" type="line"/>
      <point x="97" y="-40"/>
      <point x="91" y="-79"/>
      <point x="52" y="-125" type="curve"/>
    </contour>
    <contour>
      <point x="165" y="373" type="line"/>
      <point x="165" y="551" type="line"/>
      <point x="49" y="538" type="line"/>
      <point x="52" y="373" type="line"/>
    </contour>
  </outline>
</glyph>
<glyph name="less" format="2">
  <advance width="508"/>
  <unicode hex="003C"/>
  <outline>
    <contour>
      <point x="430" y="496" type="line"/>
      <point x="376" y="470"/>
      <point x="309" y="445"/>
      <point x="248" y="423" type="curve" smooth="yes"/>
      <point x="171" y="397"/>
      <point x="60" y="354"/>
      <point x="64" y="355" type="curve"/>
      <point x="66" y="256" type="line"/>
      <point x="61" y="254"/>
      <point x="197" y="296"/>
      <point x="267" y="321" type="curve" smooth="yes"/>
      <point x="334" y="344"/>
      <point x="439" y="378"/>
      <point x="436" y="376" type="curve"/>
    </contour>
    <contour>
      <point x="428" y="109" type="curve"/>
      <point x="437" y="229" type="line"/>
      <point x="441" y="228"/>
      <point x="338" y="262"/>
      <point x="270" y="286" type="curve" smooth="yes"/>
      <point x="199" y="312"/>
      <point x="59" y="357"/>
      <point x="64" y="355" type="curve"/>
      <point x="66" y="256" type="line"/>
      <point x="62" y="258"/>
      <point x="168" y="215"/>
      <point x="243" y="186" type="curve" smooth="yes"/>
      <point x="300" y="163"/>
      <point x="369" y="131"/>
    </contour>
  </outline>
</glyph>
<glyph name="equal" format="2">
  <advance width="374"/>
  <unicode hex="003D"/>
  <outline>
    <contour>
      <point x="56" y="108" type="line"/>
      <point x="89" y="109"/>
      <point x="143" y="109"/>
      <point x="187" y="109" type="curve" smooth="yes"/>
      <point x="232" y="109"/>
      <point x="288" y="109"/>
      <point x="323" y="108" type="curve"/>
      <point x="319" y="212" type="line"/>
      <point x="291" y="210"/>
      <point x="243" y="209"/>
      <point x="203" y="209" type="curve" smooth="yes"/>
      <point x="158" y="209"/>
      <point x="100" y="210"/>
      <point x="60" y="212" type="curve"/>
    </contour>
    <contour>
      <point x="56" y="368" type="line"/>
      <point x="89" y="369"/>
      <point x="143" y="369"/>
      <point x="187" y="369" type="curve" smooth="yes"/>
      <point x="232" y="369"/>
      <point x="288" y="369"/>
      <point x="323" y="368" type="curve"/>
      <point x="319" y="472" type="line"/>
      <point x="291" y="470"/>
      <point x="243" y="469"/>
      <point x="203" y="469" type="curve" smooth="yes"/>
      <point x="158" y="469"/>
      <point x="100" y="470"/>
      <point x="60" y="472" type="curve"/>
    </contour>
  </outline>
</glyph>
<glyph name="question" format="2">
  <advance width="395"/>
  <unicode hex="003F"/>
  <outline>
    <contour>
      <point x="248" y="213" type="line"/>
      <point x="241" y="248"/>
      <point x="237" y="272"/>
      <point x="237" y="288" type="curve" smooth="yes"/>
      <point x="237" y="311"/>
      <point x="244" y="326"/>
      <point x="277" y="365" type="curve" smooth="yes"/>
      <point x="309" y="403"/>
      <point x="348" y="437"/>
      <point x="348" y="553" type="curve" smooth="yes"/>
      <point x="348" y="650"/>
      <point x="293" y="716"/>
      <point x="204" y="716" type="curve" smooth="yes"/>
      <point x="82" y="716"/>
      <point x="44" y="624"/>
      <point x="44" y="537" type="curve" smooth="yes"/>
      <point x="44" y="507"/>
      <point x="50" y="473"/>
      <point x="60" y="436" type="curve"/>
      <point x="163" y="435" type="line"/>
      <point x="154" y="475"/>
      <point x="147" y="515"/>
      <point x="147" y="545" type="curve" smooth="yes"/>
      <point x="147" y="581"/>
      <point x="157" y="616"/>
      <point x="198" y="616" type="curve" smooth="yes"/>
      <point x="223" y="616"/>
      <point x="245" y="591"/>
      <point x="245" y="549" type="curve" smooth="yes"/>
      <point x="245" y="472"/>
      <point x="217" y="452"/>
      <point x="186" y="414" type="curve" smooth="yes"/>
      <point x="147" y="365"/>
      <point x="133" y="330"/>
      <point x="133" y="287" type="curve" smooth="yes"/>
      <point x="133" y="268"/>
      <point x="136" y="246"/>
      <point x="143" y="214" type="curve"/>
    </contour>
    <contour>
      <point x="258" y="-3" type="line"/>
      <point x="246" y="167" type="line"/>
      <point x="138" y="165" type="line"/>
      <point x="137" y="0" type="line"/>
    </contour>
  </outline>
</glyph>
<glyph name="at" format="2">
  <advance width="812"/>
  <unicode hex="0040"/>
  <outline>
    <contour>
      <point x="393" y="-190" type="curve" smooth="yes"/>
      <point x="502" y="-190"/>
      <point x="600" y="-160"/>
      <point x="675" y="-124" type="curve"/>
      <point x="650" y="-56" type="line"/>
      <point x="580" y="-90"/>
      <point x="490" y="-111"/>
      <point x="393" y="-111" type="curve" smooth="yes"/>
      <point x="223" y="-111"/>
      <point x="129" y="2"/>
      <point x="129" y="237" type="curve" smooth="yes"/>
      <point x="129" y="489"/>
      <point x="255" y="641"/>
      <point x="430" y="641" type="curve" smooth="yes"/>
      <point x="598" y="641"/>
      <point x="674" y="571"/>
      <point x="674" y="346" type="curve" smooth="yes"/>
      <point x="674" y="178"/>
      <point x="635" y="78"/>
      <point x="565" y="78" type="curve" smooth="yes"/>
      <point x="538" y="78"/>
      <point x="524" y="96"/>
      <point x="524" y="140" type="curve" smooth="yes"/>
      <point x="524" y="195"/>
      <point x="529" y="215"/>
      <point x="577" y="554" type="curve"/>
      <point x="482" y="545" type="line"/>
      <point x="474" y="483" type="line"/>
      <point x="465" y="528"/>
      <point x="434" y="555"/>
      <point x="389" y="555" type="curve" smooth="yes"/>
      <point x="263" y="555"/>
      <point x="215" y="351"/>
      <point x="215" y="190" type="curve" smooth="yes"/>
      <point x="215" y="74"/>
      <point x="236" y="-10"/>
      <point x="331" y="-10" type="curve" smooth="yes"/>
      <point x="381" y="-10"/>
      <point x="419" y="27"/>
      <point x="440" y="82" type="curve"/>
      <point x="442" y="37"/>
      <point x="474" y="-10"/>
      <point x="546" y="-10" type="curve" smooth="yes"/>
      <point x="674" y="-10"/>
      <point x="779" y="96"/>
      <point x="779" y="356" type="curve" smooth="yes"/>
      <point x="779" y="599"/>
      <point x="660" y="727"/>
      <point x="444" y="727" type="curve" smooth="yes"/>
      <point x="194" y="727"/>
      <point x="33" y="512"/>
      <point x="33" y="234" type="curve" smooth="yes"/>
      <point x="33" y="-37"/>
      <point x="152" y="-190"/>
    </contour>
    <contour>
      <point x="357" y="82" type="curve" smooth="yes"/>
      <point x="329" y="82"/>
      <point x="319" y="109"/>
      <point x="319" y="177" type="curve" smooth="yes"/>
      <point x="319" y="278"/>
      <point x="340" y="463"/>
      <point x="403" y="463" type="curve" smooth="yes"/>
      <point x="436" y="463"/>
      <point x="455" y="423"/>
      <point x="443" y="316" type="curve" smooth="yes"/>
      <point x="434" y="238" type="line" smooth="yes"/>
      <point x="422" y="132"/>
      <point x="391" y="82"/>
    </contour>
  </outline>
</glyph>
<glyph name="A" format="2">
  <advance width="335"/>
  <unicode hex="0041"/>
  <anchor x="165" y="0" name="bottom"/>
  <anchor x="241" y="-1" name="ogonek"/>
  <anchor x="166" y="693" name="top"/>
  <outline>
    <contour>
      <point x="203" y="-5" type="curve"/>
      <point x="325" y="0" type="line"/>
      <point x="313" y="78"/>
      <point x="293" y="230"/>
      <point x="278" y="360" type="curve"/>
      <point x="261" y="503"/>
      <point x="249" y="641"/>
      <point x="244" y="705" type="curve"/>
      <point x="91" y="697" type="line"/>
      <point x="154" y="638" type="line"/>
      <point x="166" y="575"/>
      <point x="177" y="436"/>
      <point x="185" y="352" type="curve" smooth="yes"/>
      <point x="197" y="217"/>
      <point x="203" y="69"/>
    </contour>
    <contour>
      <point x="65" y="123" type="line"/>
      <point x="261" y="130" type="line"/>
      <point x="261" y="220" type="line"/>
      <point x="65" y="223" type="line"/>
    </contour>
    <contour>
      <point x="124" y="6" type="line"/>
      <point x="126" y="91"/>
      <point x="133" y="244"/>
      <point x="145" y="352" type="curve" smooth="yes"/>
      <point x="157" y="476"/>
      <point x="162" y="567"/>
      <point x="174" y="630" type="curve"/>
      <point x="244" y="705" type="line"/>
      <point x="91" y="697" type="line"/>
      <point x="87" y="640"/>
      <point x="74" y="509"/>
      <point x="55" y="360" type="curve"/>
      <point x="40" y="232"/>
      <point x="20" y="84"/>
      <point x="10" y="7" type="curve"/>
    </contour>
  </outline>
</glyph>
<glyph name="B" format="2">
  <advance width="333"/>
  <unicode hex="0042"/>
  <outline>
    <contour>
      <point x="104" y="212" type="line"/>
      <point x="233" y="212"/>
      <point x="321" y="276"/>
      <point x="321" y="472" type="curve" smooth="yes"/>
      <point x="321" y="653"/>
      <point x="283" y="726"/>
      <point x="110" y="726" type="curve" smooth="yes"/>
      <point x="89" y="726"/>
      <point x="58" y="724"/>
      <point x="22" y="720" type="curve"/>
      <point x="73" y="627" type="line"/>
      <point x="98" y="633"/>
      <point x="115" y="636"/>
      <point x="147" y="636" type="curve" smooth="yes"/>
      <point x="193" y="636"/>
      <point x="212" y="616"/>
      <point x="212" y="469" type="curve" smooth="yes"/>
      <point x="212" y="303"/>
      <point x="191" y="282"/>
      <point x="100" y="282" type="curve"/>
    </contour>
    <contour>
      <point x="133" y="-10" type="curve" smooth="yes"/>
      <point x="264" y="-10"/>
      <point x="328" y="28"/>
      <point x="328" y="133" type="curve" smooth="yes"/>
      <point x="328" y="226"/>
      <point x="235" y="283"/>
      <point x="100" y="282" type="curve"/>
      <point x="104" y="187" type="line"/>
      <point x="120" y="188"/>
      <point x="161" y="190"/>
      <point x="173" y="190" type="curve" smooth="yes"/>
      <point x="207" y="190"/>
      <point x="219" y="174"/>
      <point x="219" y="129" type="curve" smooth="yes"/>
      <point x="219" y="85"/>
      <point x="199" y="73"/>
      <point x="163" y="73" type="curve" smooth="yes"/>
      <point x="137" y="73"/>
      <point x="106" y="79"/>
      <point x="81" y="81" type="curve"/>
      <point x="26" y="-5" type="line"/>
      <point x="70" y="-8"/>
      <point x="103" y="-10"/>
    </contour>
    <contour>
      <point x="26" y="-5" type="curve"/>
      <point x="137" y="3" type="line"/>
      <point x="137" y="3"/>
      <point x="134" y="240"/>
      <point x="134" y="357" type="curve"/>
      <point x="134" y="473"/>
      <point x="136" y="711"/>
      <point x="136" y="711" type="curve"/>
      <point x="22" y="720" type="line"/>
      <point x="22" y="720"/>
      <point x="30" y="530"/>
      <point x="30" y="359" type="curve"/>
      <point x="30" y="189"/>
      <point x="26" y="-5"/>
    </contour>
  </outline>
</glyph>
<glyph name="C" format="2">
  <advance width="332"/>
  <unicode hex="0043"/>
  <anchor x="171" y="0" name="bottom"/>
  <anchor x="179" y="693" name="top"/>
  <outline>
    <contour>
      <point x="162" y="-3" type="curve"/>
      <point x="258" y="-3"/>
      <point x="304" y="47"/>
      <point x="304" y="167" type="curve" smooth="yes"/>
      <point x="304" y="184"/>
      <point x="303" y="203"/>
      <point x="301" y="223" type="curve"/>
      <point x="202" y="213" type="line"/>
      <point x="203" y="196"/>
      <point x="203" y="181"/>
      <point x="203" y="168" type="curve" smooth="yes"/>
      <point x="203" y="110"/>
      <point x="194" y="97"/>
      <point x="178" y="97" type="curve" smooth="yes"/>
      <point x="155" y="97"/>
      <point x="152" y="124"/>
      <point x="149" y="156" type="curve" smooth="yes"/>
      <point x="143" y="217"/>
      <point x="143" y="280"/>
      <point x="143" y="330" type="curve" smooth="yes"/>
      <point x="143" y="407"/>
      <point x="145" y="490"/>
      <point x="149" y="548" type="curve" smooth="yes"/>
      <point x="152" y="588"/>
      <point x="158" y="610"/>
      <point x="178" y="610" type="curve" smooth="yes"/>
      <point x="203" y="610"/>
      <point x="205" y="568"/>
      <point x="205" y="514" type="curve" smooth="yes"/>
      <point x="205" y="476"/>
      <point x="205" y="417"/>
      <point x="200" y="350" type="curve"/>
      <point x="304" y="350" type="line"/>
      <point x="307" y="399"/>
      <point x="310" y="440"/>
      <point x="310" y="480" type="curve" smooth="yes"/>
      <point x="310" y="616"/>
      <point x="288" y="708"/>
      <point x="180" y="708" type="curve" smooth="yes"/>
      <point x="103" y="708"/>
      <point x="51" y="670"/>
      <point x="39" y="552" type="curve" smooth="yes"/>
      <point x="31" y="475"/>
      <point x="30" y="415"/>
      <point x="30" y="362" type="curve" smooth="yes"/>
      <point x="30" y="316"/>
      <point x="30" y="218"/>
      <point x="39" y="153" type="curve" smooth="yes"/>
      <point x="52" y="57"/>
      <point x="74" y="-3"/>
    </contour>
  </outline>
</glyph>
<glyph name="D" format="2">
  <advance width="346"/>
  <unicode hex="0044"/>
  <anchor x="119" y="348" name="center"/>
  <anchor x="173" y="693" name="top"/>
  <outline>
    <contour>
      <point x="112" y="-10" type="curve" smooth="yes"/>
      <point x="330" y="-10"/>
      <point x="324" y="206"/>
      <point x="324" y="355" type="curve" smooth="yes"/>
      <point x="324" y="581"/>
      <point x="312" y="708"/>
      <point x="133" y="708" type="curve" smooth="yes"/>
      <point x="106" y="708"/>
      <point x="61" y="702"/>
      <point x="31" y="695" type="curve"/>
      <point x="92" y="608" type="line"/>
      <point x="120" y="616"/>
      <point x="141" y="621"/>
      <point x="157" y="621" type="curve" smooth="yes"/>
      <point x="215" y="621"/>
      <point x="210" y="541"/>
      <point x="210" y="358" type="curve" smooth="yes"/>
      <point x="210" y="161"/>
      <point x="210" y="73"/>
      <point x="141" y="73" type="curve" smooth="yes"/>
      <point x="125" y="73"/>
      <point x="105" y="76"/>
      <point x="81" y="81" type="curve"/>
      <point x="34" y="-6" type="line"/>
      <point x="53" y="-8"/>
      <point x="90" y="-10"/>
    </contour>
    <contour>
      <point x="34" y="-6" type="curve"/>
      <point x="145" y="-4" type="line"/>
      <point x="144" y="98"/>
      <point x="142" y="265"/>
      <point x="142" y="350" type="curve"/>
      <point x="142" y="456"/>
      <point x="143" y="598"/>
      <point x="145" y="691" type="curve"/>
      <point x="31" y="695" type="line"/>
      <point x="34" y="610"/>
      <point x="38" y="457"/>
      <point x="38" y="350" type="curve"/>
      <point x="38" y="227"/>
      <point x="36" y="74"/>
    </contour>
  </outline>
</glyph>
<glyph name="E" format="2">
  <advance width="303"/>
  <unicode hex="0045"/>
  <anchor x="157" y="0" name="bottom"/>
  <anchor x="265" y="-1" name="ogonek"/>
  <anchor x="159" y="693" name="top"/>
  <outline>
    <contour>
      <point x="37" y="-1" type="curve"/>
      <point x="147" y="3" type="line"/>
      <point x="147" y="3"/>
      <point x="144" y="223"/>
      <point x="144" y="341" type="curve"/>
      <point x="144" y="457"/>
      <point x="147" y="688"/>
      <point x="147" y="688" type="curve"/>
      <point x="33" y="702" type="line"/>
      <point x="33" y="702"/>
      <point x="41" y="513"/>
      <point x="41" y="342" type="curve"/>
      <point x="41" y="173"/>
      <point x="37" y="-1"/>
    </contour>
    <contour>
      <point x="37" y="-1" type="line"/>
      <point x="281" y="0" type="line"/>
      <point x="280" y="76" type="line"/>
      <point x="94" y="81" type="line"/>
    </contour>
    <contour>
      <point x="90" y="189" type="line"/>
      <point x="276" y="193" type="line"/>
      <point x="278" y="283" type="line"/>
      <point x="90" y="286" type="line"/>
    </contour>
    <contour>
      <point x="81" y="610" type="line"/>
      <point x="269" y="611" type="line"/>
      <point x="269" y="693" type="line"/>
      <point x="33" y="702" type="line"/>
    </contour>
  </outline>
</glyph>
<glyph name="G" format="2">
  <advance width="333"/>
  <unicode hex="0047"/>
  <anchor x="168" y="0" name="bottom"/>
  <anchor x="176" y="693" name="top"/>
  <outline>
    <contour>
      <point x="25" y="340" type="curve" smooth="yes"/>
      <point x="25" y="258"/>
      <point x="27" y="186"/>
      <point x="37" y="128" type="curve" smooth="yes"/>
      <point x="52" y="44"/>
      <point x="86" y="-8"/>
      <point x="161" y="-8" type="curve" smooth="yes"/>
      <point x="207" y="-8"/>
      <point x="227" y="9"/>
      <point x="246" y="32" type="curve"/>
      <point x="261" y="0" type="line"/>
      <point x="309" y="0" type="line"/>
      <point x="307" y="267" type="line"/>
      <point x="183" y="269" type="line"/>
      <point x="183" y="190" type="line"/>
      <point x="224" y="192" type="line"/>
      <point x="225" y="181"/>
      <point x="226" y="168"/>
      <point x="225" y="156" type="curve" smooth="yes"/>
      <point x="222" y="124"/>
      <point x="214" y="93"/>
      <point x="185" y="93" type="curve" smooth="yes"/>
      <point x="160" y="93"/>
      <point x="148" y="123"/>
      <point x="143" y="169" type="curve" smooth="yes"/>
      <point x="138" y="218"/>
      <point x="138" y="285"/>
      <point x="138" y="357" type="curve" smooth="yes"/>
      <point x="138" y="401"/>
      <point x="139" y="498"/>
      <point x="145" y="555" type="curve" smooth="yes"/>
      <point x="149" y="592"/>
      <point x="157" y="616"/>
      <point x="175" y="616" type="curve" smooth="yes"/>
      <point x="200" y="616"/>
      <point x="201" y="575"/>
      <point x="201" y="522" type="curve" smooth="yes"/>
      <point x="201" y="477"/>
      <point x="200" y="428"/>
      <point x="199" y="378" type="curve"/>
      <point x="303" y="377" type="line"/>
      <point x="306" y="414"/>
      <point x="307" y="448"/>
      <point x="307" y="486" type="curve" smooth="yes"/>
      <point x="307" y="622"/>
      <point x="285" y="714"/>
      <point x="178" y="714" type="curve" smooth="yes"/>
      <point x="85" y="714"/>
      <point x="48" y="651"/>
      <point x="34" y="560" type="curve" smooth="yes"/>
      <point x="24" y="497"/>
      <point x="25" y="419"/>
    </contour>
  </outline>
</glyph>
<glyph name="H" format="2">
  <advance width="364"/>
  <unicode hex="0048"/>
  <anchor x="182" y="0" name="bottom"/>
  <anchor x="181" y="459" name="center"/>
  <anchor x="181" y="693" name="top"/>
  <outline>
    <contour>
      <point x="205" y="0" type="curve"/>
      <point x="325" y="0" type="line"/>
      <point x="322" y="97"/>
      <point x="321" y="241"/>
      <point x="321" y="383" type="curve" smooth="yes"/>
      <point x="321" y="518"/>
      <point x="325" y="619"/>
      <point x="328" y="708" type="curve"/>
      <point x="209" y="706" type="line"/>
      <point x="211" y="627"/>
      <point x="212" y="463"/>
      <point x="212" y="381" type="curve" smooth="yes"/>
      <point x="212" y="297"/>
      <point x="209" y="118"/>
    </contour>
    <contour>
      <point x="90" y="282" type="line"/>
      <point x="90" y="189" type="line"/>
      <point x="283" y="184" type="line"/>
      <point x="283" y="288" type="line"/>
    </contour>
    <contour>
      <point x="39" y="2" type="curve"/>
      <point x="154" y="3" type="line"/>
      <point x="154" y="80"/>
      <point x="151" y="285"/>
      <point x="151" y="352" type="curve" smooth="yes"/>
      <point x="151" y="440"/>
      <point x="154" y="623"/>
      <point x="154" y="698" type="curve"/>
      <point x="36" y="694" type="line"/>
      <point x="38" y="621"/>
      <point x="43" y="480"/>
      <point x="43" y="353" type="curve" smooth="yes"/>
      <point x="43" y="233"/>
      <point x="42" y="98"/>
    </contour>
  </outline>
</glyph>
<glyph name="I" format="2">
  <advance width="164"/>
  <unicode hex="0049"/>
  <anchor x="83" y="0" name="bottom"/>
  <anchor x="74" y="0" name="ogonek"/>
  <anchor x="85" y="693" name="top"/>
  <outline>
    <contour>
      <point x="27" y="702" type="line"/>
      <point x="28" y="626"/>
      <point x="31" y="470"/>
      <point x="31" y="396" type="curve"/>
      <point x="31" y="296"/>
      <point x="23" y="0"/>
      <point x="23" y="0" type="curve"/>
      <point x="138" y="1" type="line"/>
      <point x="138" y="1"/>
      <point x="135" y="212"/>
      <point x="135" y="398" type="curve"/>
      <point x="135" y="585"/>
      <point x="141" y="704"/>
      <point x="141" y="704" type="curve"/>
    </contour>
  </outline>
</glyph>
<glyph name="J" format="2">
  <advance width="298"/>
  <unicode hex="004A"/>
  <anchor x="229" y="693" name="top"/>
  <outline>
    <contour>
      <point x="135" y="-3" type="curve" smooth="yes"/>
      <point x="236" y="-3"/>
      <point x="277" y="72"/>
      <point x="277" y="208" type="curve" smooth="yes"/>
      <point x="277" y="278"/>
      <point x="277" y="334"/>
      <point x="277" y="402" type="curve"/>
      <point x="277" y="492"/>
      <point x="277" y="606"/>
      <point x="279" y="699" type="curve"/>
      <point x="170" y="697" type="line"/>
      <point x="174" y="610"/>
      <point x="175" y="464"/>
      <point x="175" y="396" type="curve"/>
      <point x="176" y="319"/>
      <point x="176" y="300"/>
      <point x="176" y="260" type="curve" smooth="yes"/>
      <point x="176" y="159"/>
      <point x="178" y="95"/>
      <point x="138" y="95" type="curve" smooth="yes"/>
      <point x="115" y="95"/>
      <point x="106" y="129"/>
      <point x="106" y="220" type="curve" smooth="yes"/>
      <point x="106" y="243"/>
      <point x="107" y="272"/>
      <point x="107" y="298" type="curve"/>
      <point x="6" y="299" type="line"/>
      <point x="4" y="269"/>
      <point x="4" y="243"/>
      <point x="4" y="224" type="curve" smooth="yes"/>
      <point x="4" y="72"/>
      <point x="32" y="-3"/>
    </contour>
  </outline>
</glyph>
<glyph name="K" format="2">
  <advance width="319"/>
  <unicode hex="004B"/>
  <anchor x="178" y="0" name="bottom"/>
  <outline>
    <contour>
      <point x="215" y="1" type="curve"/>
      <point x="349" y="6" type="line"/>
      <point x="284" y="128"/>
      <point x="251" y="206"/>
      <point x="216" y="294" type="curve"/>
      <point x="245" y="398"/>
      <point x="303" y="592"/>
      <point x="344" y="705" type="curve"/>
      <point x="225" y="702" type="line"/>
      <point x="202" y="596"/>
      <point x="165" y="422"/>
      <point x="115" y="271" type="curve"/>
      <point x="156" y="191"/>
      <point x="181" y="102"/>
    </contour>
    <contour>
      <point x="32" y="2" type="curve"/>
      <point x="147" y="3" type="line"/>
      <point x="147" y="80"/>
      <point x="144" y="285"/>
      <point x="144" y="352" type="curve" smooth="yes"/>
      <point x="144" y="440"/>
      <point x="147" y="623"/>
      <point x="147" y="698" type="curve"/>
      <point x="29" y="704" type="line"/>
      <point x="31" y="631"/>
      <point x="36" y="480"/>
      <point x="36" y="353" type="curve" smooth="yes"/>
      <point x="36" y="233"/>
      <point x="35" y="98"/>
    </contour>
  </outline>
</glyph>
<glyph name="M" format="2">
  <advance width="499"/>
  <unicode hex="004D"/>
  <outline>
    <contour>
      <point x="34" y="-1" type="curve"/>
      <point x="134" y="-1" type="line"/>
      <point x="133" y="141"/>
      <point x="132" y="231"/>
      <point x="132" y="297" type="curve" smooth="yes"/>
      <point x="131" y="377"/>
      <point x="131" y="422"/>
      <point x="131" y="481" type="curve"/>
      <point x="139" y="418"/>
      <point x="146" y="366"/>
      <point x="152" y="317" type="curve" smooth="yes"/>
      <point x="164" y="218"/>
      <point x="174" y="135"/>
      <point x="185" y="18" type="curve"/>
      <point x="307" y="12" type="line"/>
      <point x="321" y="137"/>
      <point x="328" y="211"/>
      <point x="341" y="320" type="curve" smooth="yes"/>
      <point x="346" y="370"/>
      <point x="353" y="428"/>
      <point x="362" y="501" type="curve"/>
      <point x="363" y="434"/>
      <point x="363" y="375"/>
      <point x="364" y="321" type="curve" smooth="yes"/>
      <point x="364" y="209"/>
      <point x="362" y="114"/>
      <point x="361" y="0" type="curve"/>
      <point x="465" y="-2" type="line"/>
      <point x="465" y="-2"/>
      <point x="461" y="205"/>
      <point x="461" y="376" type="curve" smooth="yes"/>
      <point x="461" y="547"/>
      <point x="464" y="697"/>
      <point x="464" y="697" type="curve"/>
      <point x="306" y="697" type="line"/>
      <point x="296" y="601"/>
      <point x="288" y="526"/>
      <point x="279" y="437" type="curve" smooth="yes"/>
      <point x="271" y="361"/>
      <point x="261" y="276"/>
      <point x="248" y="158" type="curve"/>
      <point x="234" y="278"/>
      <point x="224" y="365"/>
      <point x="216" y="441" type="curve" smooth="yes"/>
      <point x="207" y="530"/>
      <point x="200" y="606"/>
      <point x="191" y="704" type="curve"/>
      <point x="35" y="702" type="line"/>
      <point x="35" y="702"/>
      <point x="38" y="520"/>
      <point x="38" y="349" type="curve" smooth="yes"/>
      <point x="38" y="178"/>
      <point x="34" y="-1"/>
    </contour>
  </outline>
</glyph>
<glyph name="N" format="2">
  <advance width="373"/>
  <unicode hex="004E"/>
  <anchor x="190" y="0" name="bottom"/>
  <anchor x="193" y="693" name="top"/>
  <outline>
    <contour>
      <point x="36" y="704" type="line"/>
      <point x="36" y="704"/>
      <point x="42" y="527"/>
      <point x="42" y="356" type="curve" smooth="yes"/>
      <point x="42" y="185"/>
      <point x="39" y="1"/>
      <point x="39" y="1" type="curve"/>
      <point x="142" y="0" type="line"/>
      <point x="142" y="0"/>
      <point x="139" y="158"/>
      <point x="139" y="274" type="curve" smooth="yes"/>
      <point x="139" y="280"/>
      <point x="139" y="367"/>
      <point x="139" y="374" type="curve"/>
      <point x="144" y="351"/>
      <point x="149" y="328"/>
      <point x="154" y="305" type="curve" smooth="yes"/>
      <point x="174" y="210"/>
      <point x="196" y="112"/>
      <point x="219" y="7" type="curve"/>
      <point x="328" y="14" type="line"/>
      <point x="328" y="14"/>
      <point x="331" y="212"/>
      <point x="331" y="383" type="curve" smooth="yes"/>
      <point x="331" y="554"/>
      <point x="337" y="715"/>
      <point x="337" y="715" type="curve"/>
      <point x="231" y="715" type="line"/>
      <point x="231" y="715"/>
      <point x="237" y="497"/>
      <point x="237" y="381" type="curve" smooth="yes"/>
      <point x="237" y="355"/>
      <point x="237" y="322"/>
      <point x="238" y="287" type="curve"/>
      <point x="231" y="328"/>
      <point x="223" y="368"/>
      <point x="216" y="409" type="curve" smooth="yes"/>
      <point x="198" y="509"/>
      <point x="181" y="602"/>
      <point x="166" y="704" type="curve"/>
    </contour>
  </outline>
</glyph>
<glyph name="P" format="2">
  <advance width="313"/>
  <unicode hex="0050"/>
  <outline>
    <contour>
      <point x="107" y="210" type="line"/>
      <point x="233" y="210"/>
      <point x="312" y="280"/>
      <point x="312" y="476" type="curve" smooth="yes"/>
      <point x="312" y="648"/>
      <point x="275" y="719"/>
      <point x="113" y="719" type="curve" smooth="yes"/>
      <point x="91" y="719"/>
      <point x="60" y="716"/>
      <point x="24" y="712" type="curve"/>
      <point x="75" y="618" type="line"/>
      <point x="100" y="625"/>
      <point x="116" y="628"/>
      <point x="153" y="628" type="curve" smooth="yes"/>
      <point x="185" y="628"/>
      <point x="204" y="611"/>
      <point x="204" y="473" type="curve" smooth="yes"/>
      <point x="204" y="307"/>
      <point x="191" y="290"/>
      <point x="107" y="290" type="curve"/>
    </contour>
    <contour>
      <point x="28" y="-5" type="curve"/>
      <point x="138" y="5" type="line"/>
      <point x="137" y="103"/>
      <point x="135" y="265"/>
      <point x="135" y="350" type="curve"/>
      <point x="134" y="446"/>
      <point x="129" y="618"/>
      <point x="137" y="702" type="curve"/>
      <point x="24" y="712" type="line"/>
      <point x="27" y="631"/>
      <point x="32" y="477"/>
      <point x="32" y="352" type="curve"/>
      <point x="32" y="228"/>
      <point x="30" y="75"/>
    </contour>
  </outline>
</glyph>
<glyph name="Q" format="2">
  <advance width="353"/>
  <unicode hex="0051"/>
  <outline>
    <contour>
      <point x="170" y="-5" type="curve"/>
      <point x="238" y="-5"/>
      <point x="275" y="35"/>
      <point x="295" y="101" type="curve" smooth="yes"/>
      <point x="314" y="166"/>
      <point x="317" y="256"/>
      <point x="317" y="356" type="curve" smooth="yes"/>
      <point x="317" y="433"/>
      <point x="317" y="501"/>
      <point x="309" y="556" type="curve" smooth="yes"/>
      <point x="296" y="649"/>
      <point x="264" y="706"/>
      <point x="179" y="706" type="curve" smooth="yes"/>
      <point x="97" y="706"/>
      <point x="62" y="646"/>
      <point x="47" y="561" type="curve" smooth="yes"/>
      <point x="37" y="502"/>
      <point x="36" y="430"/>
      <point x="36" y="357" type="curve" smooth="yes"/>
      <point x="36" y="279"/>
      <point x="36" y="199"/>
      <point x="43" y="140" type="curve" smooth="yes"/>
      <point x="55" y="47"/>
      <point x="86" y="-5"/>
    </contour>
    <contour>
      <point x="177" y="58" type="curve"/>
      <point x="155" y="58"/>
      <point x="145" y="69"/>
      <point x="144" y="117" type="curve" smooth="yes"/>
      <point x="142" y="199"/>
      <point x="148" y="296"/>
      <point x="148" y="346" type="curve" smooth="yes"/>
      <point x="148" y="394"/>
      <point x="149" y="510"/>
      <point x="155" y="564" type="curve" smooth="yes"/>
      <point x="158" y="589"/>
      <point x="163" y="606"/>
      <point x="179" y="606" type="curve" smooth="yes"/>
      <point x="197" y="606"/>
      <point x="201" y="587"/>
      <point x="203" y="544" type="curve" smooth="yes"/>
      <point x="205" y="511"/>
      <point x="206" y="445"/>
      <point x="206" y="359" type="curve" smooth="yes"/>
      <point x="206" y="297"/>
      <point x="207" y="184"/>
      <point x="207" y="137" type="curve" smooth="yes"/>
      <point x="207" y="79"/>
      <point x="200" y="58"/>
    </contour>
    <contour>
      <point x="252" y="-85" type="line"/>
      <point x="336" y="-32" type="line"/>
      <point x="195" y="122" type="line"/>
      <point x="152" y="94" type="line"/>
    </contour>
  </outline>
</glyph>
<glyph name="R" format="2">
  <advance width="342"/>
  <unicode hex="0052"/>
  <anchor x="180" y="0" name="bottom"/>
  <anchor x="167" y="693" name="top"/>
  <outline>
    <contour>
      <point x="109" y="227" type="line"/>
      <point x="241" y="227"/>
      <point x="320" y="286"/>
      <point x="320" y="474" type="curve" smooth="yes"/>
      <point x="320" y="643"/>
      <point x="283" y="714"/>
      <point x="115" y="714" type="curve" smooth="yes"/>
      <point x="94" y="714"/>
      <point x="62" y="711"/>
      <point x="26" y="707" type="curve"/>
      <point x="77" y="613" type="line"/>
      <point x="102" y="620"/>
      <point x="118" y="623"/>
      <point x="155" y="623" type="curve" smooth="yes"/>
      <point x="192" y="623"/>
      <point x="211" y="606"/>
      <point x="211" y="471" type="curve" smooth="yes"/>
      <point x="211" y="313"/>
      <point x="195" y="306"/>
      <point x="105" y="306" type="curve"/>
    </contour>
    <contour>
      <point x="30" y="-5" type="curve"/>
      <point x="140" y="4" type="line"/>
      <point x="139" y="103"/>
      <point x="137" y="267"/>
      <point x="137" y="352" type="curve"/>
      <point x="137" y="437"/>
      <point x="139" y="599"/>
      <point x="140" y="697" type="curve"/>
      <point x="26" y="707" type="line"/>
      <point x="29" y="628"/>
      <point x="34" y="478"/>
      <point x="34" y="353" type="curve"/>
      <point x="34" y="230"/>
      <point x="32" y="76"/>
    </contour>
    <contour>
      <point x="226" y="-6" type="curve"/>
      <point x="352" y="-3" type="line"/>
      <point x="302" y="104"/>
      <point x="276" y="206"/>
      <point x="247" y="305" type="curve"/>
      <point x="145" y="274" type="line"/>
      <point x="175" y="175"/>
      <point x="202" y="86"/>
    </contour>
  </outline>
</glyph>
<glyph name="S" format="2">
  <advance width="329"/>
  <unicode hex="0053"/>
  <anchor x="162" y="0" name="bottom"/>
  <anchor x="172" y="693" name="top"/>
  <outline>
    <contour>
      <point x="162" y="-10" type="curve" smooth="yes"/>
      <point x="262" y="-10"/>
      <point x="322" y="56"/>
      <point x="322" y="158" type="curve" smooth="yes"/>
      <point x="322" y="225"/>
      <point x="316" y="257"/>
      <point x="198" y="352" type="curve" smooth="yes"/>
      <point x="138" y="400"/>
      <point x="121" y="432"/>
      <point x="121" y="495" type="curve" smooth="yes"/>
      <point x="121" y="575"/>
      <point x="131" y="613"/>
      <point x="168" y="613" type="curve" smooth="yes"/>
      <point x="198" y="613"/>
      <point x="207" y="581"/>
      <point x="207" y="526" type="curve" smooth="yes"/>
      <point x="207" y="492"/>
      <point x="204" y="448"/>
      <point x="199" y="396" type="curve"/>
      <point x="313" y="396" type="line"/>
      <point x="319" y="437"/>
      <point x="322" y="477"/>
      <point x="322" y="513" type="curve" smooth="yes"/>
      <point x="322" y="625"/>
      <point x="287" y="705"/>
      <point x="170" y="705" type="curve" smooth="yes"/>
      <point x="71" y="705"/>
      <point x="8" y="624"/>
      <point x="8" y="507" type="curve" smooth="yes"/>
      <point x="8" y="405"/>
      <point x="21" y="351"/>
      <point x="118" y="271" type="curve" smooth="yes"/>
      <point x="183" y="217"/>
      <point x="208" y="192"/>
      <point x="208" y="151" type="curve" smooth="yes"/>
      <point x="208" y="104"/>
      <point x="189" y="80"/>
      <point x="158" y="80" type="curve" smooth="yes"/>
      <point x="128" y="80"/>
      <point x="118" y="107"/>
      <point x="118" y="153" type="curve" smooth="yes"/>
      <point x="118" y="175"/>
      <point x="120" y="202"/>
      <point x="124" y="231" type="curve"/>
      <point x="18" y="231" type="line"/>
      <point x="13" y="205"/>
      <point x="10" y="180"/>
      <point x="10" y="155" type="curve" smooth="yes"/>
      <point x="10" y="65"/>
      <point x="50" y="-10"/>
    </contour>
  </outline>
</glyph>
<glyph name="T" format="2">
  <advance width="281"/>
  <unicode hex="0054"/>
  <anchor x="140" y="13" name="bottom"/>
  <anchor x="137" y="347" name="center"/>
  <anchor x="138" y="693" name="top"/>
  <outline>
    <contour>
      <point x="84" y="2" type="curve"/>
      <point x="192" y="4" type="line"/>
      <point x="192" y="4"/>
      <point x="190" y="245"/>
      <point x="190" y="347" type="curve"/>
      <point x="190" y="447"/>
      <point x="192" y="688"/>
      <point x="192" y="688" type="curve"/>
      <point x="79" y="692" type="line"/>
      <point x="79" y="692"/>
      <point x="86" y="532"/>
      <point x="86" y="345" type="curve"/>
      <point x="86" y="156"/>
      <point x="83" y="-12"/>
    </contour>
    <contour>
      <point x="-21" y="597" type="line"/>
      <point x="-21" y="597"/>
      <point x="86" y="602"/>
      <point x="136" y="603" type="curve"/>
      <point x="186" y="603"/>
      <point x="302" y="605"/>
      <point x="302" y="605" type="curve"/>
      <point x="299" y="704" type="line"/>
      <point x="299" y="704"/>
      <point x="172" y="702"/>
      <point x="123" y="702" type="curve"/>
      <point x="74" y="702"/>
      <point x="-18" y="701"/>
      <point x="-18" y="701" type="curve"/>
    </contour>
  </outline>
</glyph>
<glyph name="U" format="2">
  <advance width="352"/>
  <unicode hex="0055"/>
  <anchor x="175" y="0" name="bottom"/>
  <anchor x="205" y="0" name="ogonek"/>
  <anchor x="176" y="693" name="top"/>
  <anchor x="252" y="693" name="topright"/>
  <outline>
    <contour>
      <point x="178" y="-10" type="curve"/>
      <point x="280" y="-10"/>
      <point x="315" y="79"/>
      <point x="315" y="165" type="curve" smooth="yes"/>
      <point x="315" y="195"/>
      <point x="315" y="278"/>
      <point x="314" y="392" type="curve"/>
      <point x="314" y="524"/>
      <point x="316" y="617"/>
      <point x="317" y="706" type="curve"/>
      <point x="204" y="707" type="line"/>
      <point x="206" y="645"/>
      <point x="209" y="521"/>
      <point x="210" y="394" type="curve"/>
      <point x="210" y="272"/>
      <point x="209" y="225"/>
      <point x="209" y="205" type="curve" smooth="yes"/>
      <point x="209" y="140"/>
      <point x="207" y="93"/>
      <point x="177" y="93" type="curve" smooth="yes"/>
      <point x="147" y="93"/>
      <point x="139" y="121"/>
      <point x="139" y="218" type="curve" smooth="yes"/>
      <point x="139" y="258"/>
      <point x="139" y="319"/>
      <point x="140" y="396" type="curve"/>
      <point x="141" y="464"/>
      <point x="142" y="607"/>
      <point x="145" y="695" type="curve"/>
      <point x="33" y="696" type="line"/>
      <point x="36" y="603"/>
      <point x="36" y="492"/>
      <point x="36" y="402" type="curve"/>
      <point x="36" y="334"/>
      <point x="35" y="233"/>
      <point x="35" y="163" type="curve" smooth="yes"/>
      <point x="35" y="49"/>
      <point x="90" y="-10"/>
    </contour>
  </outline>
</glyph>
<glyph name="V" format="2">
  <advance width="330"/>
  <unicode hex="0056"/>
  <outline>
    <contour>
      <point x="7" y="704" type="line"/>
      <point x="7" y="704"/>
      <point x="34" y="514"/>
      <point x="55" y="336" type="curve" smooth="yes"/>
      <point x="64" y="239"/>
      <point x="78" y="139"/>
      <point x="95" y="-9" type="curve"/>
      <point x="230" y="-11" type="line"/>
      <point x="252" y="155"/>
      <point x="267" y="246"/>
      <point x="276" y="336" type="curve" smooth="yes"/>
      <point x="298" y="511"/>
      <point x="321" y="705"/>
      <point x="321" y="705" type="curve"/>
      <point x="208" y="697" type="line"/>
      <point x="202" y="608"/>
      <point x="194" y="508"/>
      <point x="186" y="406" type="curve" smooth="yes"/>
      <point x="179" y="316"/>
      <point x="173" y="224"/>
      <point x="167" y="139" type="curve"/>
      <point x="159" y="226"/>
      <point x="151" y="317"/>
      <point x="145" y="408" type="curve" smooth="yes"/>
      <point x="138" y="510"/>
      <point x="133" y="611"/>
      <point x="129" y="702" type="curve"/>
    </contour>
  </outline>
</glyph>
<glyph name="W" format="2">
  <advance width="567"/>
  <unicode hex="0057"/>
  <anchor x="291" y="693" name="top"/>
  <outline>
    <contour>
      <point x="227" y="-11" type="line"/>
      <point x="240" y="92"/>
      <point x="255" y="204"/>
      <point x="270" y="307" type="curve" smooth="yes"/>
      <point x="275" y="344"/>
      <point x="281" y="379"/>
      <point x="286" y="413" type="curve"/>
      <point x="290" y="381"/>
      <point x="294" y="347"/>
      <point x="298" y="312" type="curve" smooth="yes"/>
      <point x="311" y="207"/>
      <point x="325" y="95"/>
      <point x="339" y="-8" type="curve"/>
      <point x="475" y="-11" type="line"/>
      <point x="496" y="155"/>
      <point x="511" y="248"/>
      <point x="520" y="338" type="curve" smooth="yes"/>
      <point x="542" y="513"/>
      <point x="564" y="703"/>
      <point x="564" y="703" type="curve"/>
      <point x="451" y="695" type="line"/>
      <point x="442" y="571"/>
      <point x="434" y="473"/>
      <point x="426" y="379" type="curve" smooth="yes"/>
      <point x="420" y="301"/>
      <point x="414" y="225"/>
      <point x="408" y="138" type="curve"/>
      <point x="398" y="210"/>
      <point x="388" y="282"/>
      <point x="380" y="357" type="curve" smooth="yes"/>
      <point x="369" y="449"/>
      <point x="359" y="547"/>
      <point x="347" y="657" type="curve"/>
      <point x="231" y="657" type="line"/>
      <point x="217" y="538"/>
      <point x="204" y="434"/>
      <point x="192" y="336" type="curve" smooth="yes"/>
      <point x="184" y="268"/>
      <point x="176" y="202"/>
      <point x="167" y="136" type="curve"/>
      <point x="161" y="204"/>
      <point x="155" y="276"/>
      <point x="149" y="353" type="curve" smooth="yes"/>
      <point x="141" y="461"/>
      <point x="133" y="579"/>
      <point x="126" y="706" type="curve"/>
      <point x="4" y="707" type="line"/>
      <point x="4" y="707"/>
      <point x="31" y="514"/>
      <point x="52" y="336" type="curve" smooth="yes"/>
      <point x="62" y="240"/>
      <point x="75" y="140"/>
      <point x="92" y="-8" type="curve"/>
    </contour>
  </outline>
</glyph>
<glyph name="X" format="2">
  <advance width="307"/>
  <unicode hex="0058"/>
  <outline>
    <contour>
      <point x="-24" y="-2" type="curve"/>
      <point x="86" y="-1" type="line"/>
      <point x="117" y="102"/>
      <point x="150" y="201"/>
      <point x="183" y="298" type="curve" smooth="yes"/>
      <point x="230" y="432"/>
      <point x="279" y="561"/>
      <point x="328" y="691" type="curve"/>
      <point x="218" y="692" type="line"/>
      <point x="193" y="610"/>
      <point x="162" y="512"/>
      <point x="126" y="411" type="curve" smooth="yes"/>
      <point x="78" y="271"/>
      <point x="25" y="123"/>
    </contour>
    <contour>
      <point x="215" y="-7" type="curve"/>
      <point x="331" y="-5" type="line"/>
      <point x="275" y="153"/>
      <point x="225" y="304"/>
      <point x="179" y="447" type="curve" smooth="yes"/>
      <point x="151" y="532"/>
      <point x="125" y="612"/>
      <point x="101" y="688" type="curve"/>
      <point x="-14" y="690" type="line"/>
      <point x="25" y="588"/>
      <point x="76" y="444"/>
      <point x="125" y="291" type="curve" smooth="yes"/>
      <point x="157" y="191"/>
      <point x="188" y="91"/>
    </contour>
  </outline>
</glyph>
<glyph name="Y" format="2">
  <advance width="277"/>
  <unicode hex="0059"/>
  <anchor x="135" y="0" name="bottom"/>
  <anchor x="137" y="693" name="top"/>
  <outline>
    <contour>
      <point x="83" y="0" type="curve"/>
      <point x="186" y="1" type="line"/>
      <point x="186" y="-5"/>
      <point x="183" y="110"/>
      <point x="180" y="224" type="curve"/>
      <point x="84" y="234" type="line"/>
      <point x="87" y="64"/>
      <point x="83" y="-6"/>
    </contour>
    <contour>
      <point x="-32" y="704" type="line"/>
      <point x="-5" y="581"/>
      <point x="12" y="510"/>
      <point x="29" y="435" type="curve" smooth="yes"/>
      <point x="59" y="307"/>
      <point x="72" y="251"/>
      <point x="93" y="137" type="curve"/>
      <point x="174" y="136" type="line"/>
      <point x="199" y="251"/>
      <point x="217" y="324"/>
      <point x="243" y="433" type="curve" smooth="yes"/>
      <point x="275" y="572"/>
      <point x="311" y="704"/>
      <point x="309" y="698" type="curve"/>
      <point x="195" y="696" type="line"/>
      <point x="186" y="629"/>
      <point x="177" y="551"/>
      <point x="156" y="438" type="curve" smooth="yes"/>
      <point x="151" y="411"/>
      <point x="143" y="370"/>
      <point x="136" y="338" type="curve"/>
      <point x="128" y="377"/>
      <point x="120" y="419"/>
      <point x="117" y="442" type="curve" smooth="yes"/>
      <point x="96" y="581"/>
      <point x="83" y="709"/>
      <point x="84" y="704" type="curve"/>
    </contour>
  </outline>
</glyph>
<glyph name="Z" format="2">
  <advance width="273"/>
  <unicode hex="005A"/>
  <anchor x="139" y="693" name="top"/>
  <outline>
    <contour>
      <point x="9" y="693" type="curve"/>
      <point x="4" y="600" type="line"/>
      <point x="29" y="601"/>
      <point x="53" y="601"/>
      <point x="78" y="602" type="curve" smooth="yes"/>
      <point x="100" y="603"/>
      <point x="122" y="603"/>
      <point x="144" y="603" type="curve"/>
      <point x="125" y="526"/>
      <point x="102" y="442"/>
      <point x="77" y="352" type="curve" smooth="yes"/>
      <point x="51" y="259"/>
      <point x="24" y="171"/>
      <point x="-1" y="92" type="curve"/>
      <point x="4" y="1" type="line"/>
      <point x="0" y="1"/>
      <point x="75" y="3"/>
      <point x="133" y="3" type="curve" smooth="yes"/>
      <point x="194" y="3"/>
      <point x="288" y="0"/>
      <point x="270" y="0" type="curve"/>
      <point x="272" y="95" type="line"/>
      <point x="245" y="92"/>
      <point x="214" y="92"/>
      <point x="185" y="92" type="curve" smooth="yes"/>
      <point x="156" y="92"/>
      <point x="129" y="92"/>
      <point x="113" y="92" type="curve"/>
      <point x="136" y="179"/>
      <point x="157" y="251"/>
      <point x="177" y="325" type="curve" smooth="yes"/>
      <point x="203" y="419"/>
      <point x="228" y="503"/>
      <point x="257" y="600" type="curve"/>
      <point x="258" y="695" type="line"/>
      <point x="208" y="694"/>
      <point x="187" y="693"/>
      <point x="140" y="692" type="curve" smooth="yes"/>
      <point x="101" y="691"/>
      <point x="62" y="694"/>
    </contour>
  </outline>
</glyph>
<glyph name="bracketleft" format="2">
  <advance width="317"/>
  <unicode hex="005B"/>
  <outline>
    <contour>
      <point x="47" y="-139" type="curve"/>
      <point x="149" y="-128" type="line"/>
      <point x="144" y="123"/>
      <point x="144" y="172"/>
      <point x="144" y="296" type="curve" smooth="yes"/>
      <point x="144" y="393"/>
      <point x="147" y="460"/>
      <point x="149" y="671" type="curve"/>
      <point x="48" y="692" type="line"/>
      <point x="48" y="700"/>
      <point x="52" y="509"/>
      <point x="52" y="303" type="curve" smooth="yes"/>
      <point x="52" y="98"/>
      <point x="50" y="-85"/>
    </contour>
    <contour>
      <point x="47" y="-139" type="line"/>
      <point x="35" y="-139"/>
      <point x="51" y="-138"/>
      <point x="261" y="-130" type="curve"/>
      <point x="269" y="-9" type="line"/>
      <point x="128" y="-16"/>
      <point x="97" y="-21"/>
      <point x="75" y="-24" type="curve"/>
    </contour>
    <contour>
      <point x="64" y="594" type="line"/>
      <point x="110" y="595"/>
      <point x="203" y="596"/>
      <point x="268" y="596" type="curve"/>
      <point x="257" y="702" type="line"/>
      <point x="116" y="695"/>
      <point x="65" y="692"/>
      <point x="48" y="692" type="curve"/>
    </contour>
  </outline>
</glyph>
<glyph name="backslash" format="2">
  <advance width="255"/>
  <unicode hex="005C"/>
  <outline>
    <contour>
      <point x="265" y="-1" type="line"/>
      <point x="234" y="100"/>
      <point x="196" y="238"/>
      <point x="166" y="367" type="curve" smooth="yes"/>
      <point x="139" y="484"/>
      <point x="112" y="615"/>
      <point x="100" y="700" type="curve"/>
      <point x="-10" y="698" type="line"/>
      <point x="5" y="630"/>
      <point x="37" y="495"/>
      <point x="69" y="366" type="curve" smooth="yes"/>
      <point x="100" y="235"/>
      <point x="136" y="92"/>
      <point x="154" y="0" type="curve"/>
    </contour>
  </outline>
</glyph>
<glyph name="bracketright" format="2">
  <advance width="317"/>
  <unicode hex="005D"/>
  <outline>
    <contour>
      <point x="269" y="-129" type="line"/>
      <point x="268" y="1"/>
      <point x="266" y="130"/>
      <point x="265" y="260" type="curve"/>
      <point x="267" y="407"/>
      <point x="268" y="555"/>
      <point x="270" y="702" type="curve"/>
      <point x="168" y="691" type="line"/>
      <point x="169" y="550"/>
      <point x="171" y="408"/>
      <point x="172" y="267" type="curve"/>
      <point x="171" y="142"/>
      <point x="169" y="17"/>
      <point x="168" y="-108" type="curve"/>
    </contour>
    <contour>
      <point x="60" y="-139" type="line"/>
      <point x="130" y="-136"/>
      <point x="199" y="-132"/>
      <point x="269" y="-129" type="curve"/>
      <point x="253" y="-31" type="line"/>
      <point x="185" y="-32"/>
      <point x="116" y="-32"/>
      <point x="48" y="-33" type="curve"/>
    </contour>
    <contour>
      <point x="48" y="572" type="line"/>
      <point x="112" y="577"/>
      <point x="177" y="581"/>
      <point x="241" y="586" type="curve"/>
      <point x="270" y="701" type="line"/>
      <point x="199" y="698"/>
      <point x="127" y="696"/>
      <point x="56" y="693" type="curve"/>
    </contour>
  </outline>
</glyph>
<glyph name="underscore" format="2">
  <advance width="318"/>
  <unicode hex="005F"/>
  <outline>
    <contour>
      <point x="28" y="-125" type="line"/>
      <point x="28" y="-125"/>
      <point x="108" y="-122"/>
      <point x="160" y="-121" type="curve" smooth="yes"/>
      <point x="215" y="-120"/>
      <point x="284" y="-122"/>
      <point x="284" y="-122" type="curve"/>
      <point x="291" y="-32" type="line"/>
      <point x="291" y="-32"/>
      <point x="213" y="-35"/>
      <point x="155" y="-36" type="curve" smooth="yes"/>
      <point x="98" y="-37"/>
      <point x="27" y="-34"/>
      <point x="27" y="-34" type="curve"/>
    </contour>
  </outline>
</glyph>
<glyph name="grave" format="2">
  <advance width="215"/>
  <unicode hex="0060"/>
  <anchor x="113" y="555" name="_top"/>
  <outline>
    <contour>
      <point x="144" y="600" type="curve"/>
      <point x="187" y="653" type="line"/>
      <point x="189" y="651"/>
      <point x="155" y="677"/>
      <point x="127" y="698" type="curve" smooth="yes"/>
      <point x="102" y="717"/>
      <point x="72" y="744"/>
      <point x="74" y="742" type="curve"/>
      <point x="23" y="668" type="line"/>
      <point x="21" y="670"/>
      <point x="59" y="650"/>
      <point x="83" y="637" type="curve" smooth="yes"/>
      <point x="106" y="624"/>
      <point x="146" y="599"/>
    </contour>
  </outline>
</glyph>
<glyph name="a" format="2">
  <advance width="275"/>
  <unicode hex="0061"/>
  <anchor x="127" y="0" name="bottom"/>
  <anchor x="239" y="-1" name="ogonek"/>
  <anchor x="136" y="555" name="top"/>
  <outline>
    <contour>
      <point x="170" y="0" type="line"/>
      <point x="255" y="0" type="line"/>
      <point x="253" y="294" type="line"/>
      <point x="256" y="424" type="line" smooth="yes"/>
      <point x="258" y="509"/>
      <point x="227" y="565"/>
      <point x="139" y="565" type="curve" smooth="yes"/>
      <point x="58" y="565"/>
      <point x="14" y="508"/>
      <point x="14" y="423" type="curve" smooth="yes"/>
      <point x="14" y="407"/>
      <point x="16" y="385"/>
      <point x="18" y="368" type="curve"/>
      <point x="116" y="371" type="line"/>
      <point x="114" y="392"/>
      <point x="112" y="412"/>
      <point x="112" y="429" type="curve" smooth="yes"/>
      <point x="112" y="460"/>
      <point x="116" y="477"/>
      <point x="136" y="477" type="curve" smooth="yes"/>
      <point x="156" y="477"/>
      <point x="160" y="459"/>
      <point x="160" y="441" type="curve" smooth="yes"/>
      <point x="161" y="85" type="line"/>
    </contour>
    <contour>
      <point x="90" y="-9" type="curve" smooth="yes"/>
      <point x="186" y="-9"/>
      <point x="208" y="149"/>
      <point x="208" y="351" type="curve"/>
      <point x="161" y="283" type="line"/>
      <point x="161" y="118"/>
      <point x="153" y="81"/>
      <point x="131" y="81" type="curve" smooth="yes"/>
      <point x="113" y="81"/>
      <point x="109" y="101"/>
      <point x="109" y="126" type="curve" smooth="yes"/>
      <point x="109" y="181"/>
      <point x="118" y="212"/>
      <point x="146" y="257" type="curve" smooth="yes"/>
      <point x="187" y="324"/>
      <point x="198" y="362"/>
      <point x="208" y="420" type="curve"/>
      <point x="160" y="441" type="line"/>
      <point x="160" y="378"/>
      <point x="143" y="355"/>
      <point x="102" y="309" type="curve" smooth="yes"/>
      <point x="61" y="263"/>
      <point x="11" y="211"/>
      <point x="11" y="114" type="curve" smooth="yes"/>
      <point x="11" y="38"/>
      <point x="37" y="-9"/>
    </contour>
  </outline>
</glyph>
<glyph name="b" format="2">
  <advance width="312"/>
  <unicode hex="0062"/>
  <outline>
    <contour>
      <point x="176" y="-10" type="curve" smooth="yes"/>
      <point x="234" y="-10"/>
      <point x="266" y="34"/>
      <point x="277" y="111" type="curve" smooth="yes"/>
      <point x="292" y="216"/>
      <point x="291" y="343"/>
      <point x="285" y="437" type="curve" smooth="yes"/>
      <point x="279" y="524"/>
      <point x="256" y="565"/>
      <point x="206" y="565" type="curve" smooth="yes"/>
      <point x="91" y="565"/>
      <point x="95" y="294"/>
      <point x="95" y="270" type="curve"/>
      <point x="135" y="312" type="line"/>
      <point x="135" y="427"/>
      <point x="135" y="477"/>
      <point x="158" y="477" type="curve" smooth="yes"/>
      <point x="178" y="477"/>
      <point x="181" y="461"/>
      <point x="181" y="401" type="curve" smooth="yes"/>
      <point x="181" y="355"/>
      <point x="181" y="201"/>
      <point x="179" y="125" type="curve" smooth="yes"/>
      <point x="178" y="82"/>
      <point x="173" y="66"/>
      <point x="156" y="66" type="curve" smooth="yes"/>
      <point x="131" y="66"/>
      <point x="135" y="99"/>
      <point x="135" y="258" type="curve"/>
      <point x="95" y="276" type="line"/>
      <point x="95" y="104"/>
      <point x="97" y="-10"/>
    </contour>
    <contour>
      <point x="109" y="-2" type="line"/>
      <point x="133" y="100" type="line"/>
      <point x="135" y="179"/>
      <point x="135" y="277"/>
      <point x="135" y="343" type="curve"/>
      <point x="135" y="465"/>
      <point x="137" y="584"/>
      <point x="138" y="690" type="curve"/>
      <point x="23" y="686" type="line"/>
      <point x="29" y="555"/>
      <point x="30" y="452"/>
      <point x="31" y="344" type="curve" smooth="yes"/>
      <point x="32" y="228"/>
      <point x="30" y="86"/>
      <point x="26" y="0" type="curve"/>
    </contour>
  </outline>
</glyph>
<glyph name="c" format="2">
  <advance width="291"/>
  <unicode hex="0063"/>
  <anchor x="151" y="0" name="bottom"/>
  <anchor x="155" y="555" name="top"/>
  <outline>
    <contour>
      <point x="150" y="-9" type="curve" smooth="yes"/>
      <point x="243" y="-9"/>
      <point x="277" y="59"/>
      <point x="277" y="148" type="curve" smooth="yes"/>
      <point x="277" y="161"/>
      <point x="276" y="174"/>
      <point x="275" y="188" type="curve"/>
      <point x="171" y="188" type="line"/>
      <point x="172" y="173"/>
      <point x="173" y="155"/>
      <point x="173" y="138" type="curve" smooth="yes"/>
      <point x="173" y="103"/>
      <point x="170" y="71"/>
      <point x="150" y="71" type="curve" smooth="yes"/>
      <point x="130" y="71"/>
      <point x="130" y="94"/>
      <point x="129" y="119" type="curve" smooth="yes"/>
      <point x="128" y="147"/>
      <point x="130" y="246"/>
      <point x="130" y="291" type="curve" smooth="yes"/>
      <point x="130" y="343"/>
      <point x="130" y="382"/>
      <point x="132" y="420" type="curve" smooth="yes"/>
      <point x="135" y="479"/>
      <point x="138" y="489"/>
      <point x="155" y="489" type="curve" smooth="yes"/>
      <point x="173" y="489"/>
      <point x="176" y="461"/>
      <point x="176" y="417" type="curve" smooth="yes"/>
      <point x="176" y="390"/>
      <point x="175" y="344"/>
      <point x="174" y="309" type="curve"/>
      <point x="278" y="306" type="line"/>
      <point x="281" y="333"/>
      <point x="282" y="361"/>
      <point x="282" y="388" type="curve" smooth="yes"/>
      <point x="282" y="483"/>
      <point x="261" y="567"/>
      <point x="163" y="567" type="curve" smooth="yes"/>
      <point x="92" y="567"/>
      <point x="46" y="534"/>
      <point x="30" y="424" type="curve" smooth="yes"/>
      <point x="25" y="389"/>
      <point x="23" y="323"/>
      <point x="23" y="275" type="curve" smooth="yes"/>
      <point x="23" y="208"/>
      <point x="23" y="163"/>
      <point x="28" y="112" type="curve" smooth="yes"/>
      <point x="37" y="25"/>
      <point x="75" y="-9"/>
    </contour>
  </outline>
</glyph>
<glyph name="d" format="2">
  <advance width="310"/>
  <unicode hex="0064"/>
  <anchor x="212" y="624" name="center"/>
  <anchor x="274" y="408" name="topright"/>
  <outline>
    <contour>
      <point x="20" y="273" type="curve" smooth="yes"/>
      <point x="20" y="215"/>
      <point x="20" y="162"/>
      <point x="24" y="118" type="curve" smooth="yes"/>
      <point x="31" y="40"/>
      <point x="53" y="-10"/>
      <point x="109" y="-10" type="curve" smooth="yes"/>
      <point x="140" y="-10"/>
      <point x="163" y="13"/>
      <point x="179" y="51" type="curve"/>
      <point x="184" y="-2" type="line"/>
      <point x="282" y="0" type="line"/>
      <point x="278" y="86"/>
      <point x="276" y="228"/>
      <point x="277" y="344" type="curve" smooth="yes"/>
      <point x="278" y="455"/>
      <point x="278" y="571"/>
      <point x="285" y="696" type="curve"/>
      <point x="170" y="690" type="line"/>
      <point x="171" y="643"/>
      <point x="171" y="590"/>
      <point x="172" y="543" type="curve"/>
      <point x="160" y="558"/>
      <point x="145" y="565"/>
      <point x="125" y="565" type="curve" smooth="yes"/>
      <point x="68" y="565"/>
      <point x="41" y="515"/>
      <point x="30" y="444" type="curve" smooth="yes"/>
      <point x="22" y="394"/>
      <point x="20" y="334"/>
    </contour>
    <contour>
      <point x="126" y="277" type="curve" smooth="yes"/>
      <point x="126" y="323"/>
      <point x="124" y="366"/>
      <point x="126" y="401" type="curve" smooth="yes"/>
      <point x="129" y="454"/>
      <point x="134" y="490"/>
      <point x="150" y="490" type="curve" smooth="yes"/>
      <point x="162" y="490"/>
      <point x="168" y="481"/>
      <point x="171" y="433" type="curve" smooth="yes"/>
      <point x="173" y="402"/>
      <point x="173" y="353"/>
      <point x="173" y="279" type="curve" smooth="yes"/>
      <point x="173" y="215"/>
      <point x="173" y="171"/>
      <point x="171" y="142" type="curve" smooth="yes"/>
      <point x="168" y="88"/>
      <point x="162" y="79"/>
      <point x="148" y="79" type="curve" smooth="yes"/>
      <point x="134" y="79"/>
      <point x="128" y="107"/>
      <point x="127" y="156" type="curve" smooth="yes"/>
      <point x="126" y="189"/>
      <point x="126" y="229"/>
    </contour>
  </outline>
</glyph>
<glyph name="e" format="2">
  <advance width="293"/>
  <unicode hex="0065"/>
  <anchor x="160" y="0" name="bottom"/>
  <anchor x="186" y="-1" name="ogonek"/>
  <anchor x="161" y="555" name="top"/>
  <outline>
    <contour>
      <point x="150" y="-9" type="curve" smooth="yes"/>
      <point x="243" y="-9"/>
      <point x="277" y="59"/>
      <point x="277" y="148" type="curve" smooth="yes"/>
      <point x="277" y="161"/>
      <point x="276" y="174"/>
      <point x="275" y="188" type="curve"/>
      <point x="171" y="188" type="line"/>
      <point x="172" y="173"/>
      <point x="173" y="155"/>
      <point x="173" y="138" type="curve" smooth="yes"/>
      <point x="173" y="103"/>
      <point x="170" y="71"/>
      <point x="150" y="71" type="curve" smooth="yes"/>
      <point x="130" y="71"/>
      <point x="130" y="94"/>
      <point x="129" y="119" type="curve" smooth="yes"/>
      <point x="128" y="147"/>
      <point x="130" y="246"/>
      <point x="130" y="291" type="curve" smooth="yes"/>
      <point x="130" y="343"/>
      <point x="130" y="382"/>
      <point x="132" y="420" type="curve" smooth="yes"/>
      <point x="135" y="479"/>
      <point x="138" y="489"/>
      <point x="155" y="489" type="curve" smooth="yes"/>
      <point x="173" y="489"/>
      <point x="176" y="461"/>
      <point x="176" y="417" type="curve" smooth="yes"/>
      <point x="176" y="390"/>
      <point x="175" y="358"/>
      <point x="174" y="323" type="curve"/>
      <point x="273" y="253" type="line"/>
      <point x="278" y="295"/>
      <point x="282" y="343"/>
      <point x="282" y="388" type="curve" smooth="yes"/>
      <point x="282" y="483"/>
      <point x="261" y="567"/>
      <point x="163" y="567" type="curve" smooth="yes"/>
      <point x="92" y="567"/>
      <point x="46" y="534"/>
      <point x="30" y="424" type="curve" smooth="yes"/>
      <point x="25" y="389"/>
      <point x="23" y="323"/>
      <point x="23" y="275" type="curve" smooth="yes"/>
      <point x="23" y="208"/>
      <point x="23" y="163"/>
      <point x="28" y="112" type="curve" smooth="yes"/>
      <point x="37" y="25"/>
      <point x="75" y="-9"/>
    </contour>
    <contour>
      <point x="60" y="245" type="line"/>
      <point x="146" y="252"/>
      <point x="273" y="253"/>
      <point x="273" y="253" type="curve"/>
      <point x="244" y="330" type="line"/>
      <point x="56" y="328" type="line"/>
    </contour>
  </outline>
</glyph>
<glyph name="g" format="2">
  <advance width="308"/>
  <unicode hex="0067"/>
  <anchor x="158" y="555" name="top"/>
  <outline>
    <contour>
      <point x="144" y="-170" type="curve"/>
      <point x="243" y="-170"/>
      <point x="278" y="-103"/>
      <point x="278" y="-13" type="curve" smooth="yes"/>
      <point x="278" y="94"/>
      <point x="276" y="164"/>
      <point x="276" y="278" type="curve" smooth="yes"/>
      <point x="276" y="393"/>
      <point x="285" y="466"/>
      <point x="295" y="555" type="curve"/>
      <point x="210" y="555" type="line"/>
      <point x="196" y="500"/>
      <point x="173" y="400"/>
      <point x="173" y="277" type="curve"/>
      <point x="173" y="146"/>
      <point x="173" y="37"/>
      <point x="173" y="-16" type="curve" smooth="yes"/>
      <point x="173" y="-59"/>
      <point x="179" y="-91"/>
      <point x="152" y="-91" type="curve" smooth="yes"/>
      <point x="140" y="-91"/>
      <point x="136" y="-71"/>
      <point x="136" y="-52" type="curve" smooth="yes"/>
      <point x="136" y="-44"/>
      <point x="136" y="-36"/>
      <point x="138" y="-30" type="curve"/>
      <point x="32" y="-39" type="line"/>
      <point x="31" y="-50"/>
      <point x="30" y="-61"/>
      <point x="30" y="-71" type="curve" smooth="yes"/>
      <point x="32" y="-135"/>
      <point x="70" y="-170"/>
    </contour>
    <contour>
      <point x="108" y="-8" type="curve" smooth="yes"/>
      <point x="227" y="-8"/>
      <point x="202" y="189"/>
      <point x="202" y="264" type="curve"/>
      <point x="173" y="277" type="line"/>
      <point x="173" y="160"/>
      <point x="180" y="71"/>
      <point x="152" y="71" type="curve" smooth="yes"/>
      <point x="132" y="71"/>
      <point x="132" y="93"/>
      <point x="131" y="111" type="curve" smooth="yes"/>
      <point x="129" y="142"/>
      <point x="130" y="214"/>
      <point x="131" y="283" type="curve" smooth="yes"/>
      <point x="132" y="334"/>
      <point x="131" y="392"/>
      <point x="133" y="426" type="curve" smooth="yes"/>
      <point x="135" y="462"/>
      <point x="136" y="481"/>
      <point x="156" y="481" type="curve" smooth="yes"/>
      <point x="181" y="481"/>
      <point x="173" y="394"/>
      <point x="173" y="277" type="curve"/>
      <point x="221" y="269" type="line"/>
      <point x="221" y="491"/>
      <point x="199" y="564"/>
      <point x="132" y="564" type="curve" smooth="yes"/>
      <point x="78" y="564"/>
      <point x="47" y="519"/>
      <point x="34" y="440" type="curve" smooth="yes"/>
      <point x="28" y="403"/>
      <point x="24" y="329"/>
      <point x="24" y="281" type="curve" smooth="yes"/>
      <point x="24" y="216"/>
      <point x="27" y="138"/>
      <point x="33" y="88" type="curve" smooth="yes"/>
      <point x="40" y="26"/>
      <point x="65" y="-8"/>
    </contour>
  </outline>
</glyph>
<glyph name="h" format="2">
  <advance width="309"/>
  <unicode hex="0068"/>
  <anchor x="150" y="0" name="bottom"/>
  <anchor x="134" y="618" name="center"/>
  <anchor x="81" y="669" name="top"/>
  <outline>
    <contour>
      <point x="23" y="1" type="curve"/>
      <point x="137" y="1" type="line"/>
      <point x="137" y="1"/>
      <point x="134" y="176"/>
      <point x="134" y="320" type="curve"/>
      <point x="134" y="463"/>
      <point x="135" y="690"/>
      <point x="135" y="690" type="curve"/>
      <point x="29" y="690" type="line"/>
      <point x="29" y="690"/>
      <point x="30" y="415"/>
      <point x="30" y="269" type="curve"/>
      <point x="30" y="123"/>
      <point x="23" y="1"/>
    </contour>
    <contour>
      <point x="287" y="0" type="line"/>
      <point x="284" y="81"/>
      <point x="282" y="143"/>
      <point x="282" y="251" type="curve" smooth="yes"/>
      <point x="282" y="311"/>
      <point x="282" y="389"/>
      <point x="282" y="453" type="curve" smooth="yes"/>
      <point x="282" y="536"/>
      <point x="250" y="563"/>
      <point x="208" y="563" type="curve" smooth="yes"/>
      <point x="174" y="563"/>
      <point x="82" y="552"/>
      <point x="82" y="267" type="curve"/>
      <point x="134" y="316" type="line"/>
      <point x="134" y="433"/>
      <point x="131" y="477"/>
      <point x="157" y="477" type="curve" smooth="yes"/>
      <point x="176" y="477"/>
      <point x="178" y="456"/>
      <point x="178" y="433" type="curve" smooth="yes"/>
      <point x="178" y="370"/>
      <point x="178" y="310"/>
      <point x="178" y="250" type="curve" smooth="yes"/>
      <point x="178" y="139"/>
      <point x="176" y="79"/>
      <point x="172" y="1" type="curve"/>
    </contour>
  </outline>
</glyph>
<glyph name="j" format="2">
  <advance width="157"/>
  <unicode hex="006A"/>
  <outline>
    <contour>
      <point x="-34" y="-167" type="line"/>
      <point x="68" y="-178"/>
      <point x="133" y="-129"/>
      <point x="133" y="2" type="curve" smooth="yes"/>
      <point x="133" y="80"/>
      <point x="131" y="143"/>
      <point x="131" y="286" type="curve"/>
      <point x="132" y="426"/>
      <point x="130" y="513"/>
      <point x="133" y="555" type="curve"/>
      <point x="19" y="555" type="line"/>
      <point x="22" y="507"/>
      <point x="27" y="431"/>
      <point x="27" y="287" type="curve"/>
      <point x="30" y="146"/>
      <point x="33" y="4"/>
      <point x="33" y="-15" type="curve" smooth="yes"/>
      <point x="33" y="-55"/>
      <point x="28" y="-87"/>
      <point x="-37" y="-87" type="curve"/>
    </contour>
    <contour>
      <point x="24" y="634" type="line"/>
      <point x="133" y="643" type="line"/>
      <point x="133" y="763" type="line"/>
      <point x="21" y="755" type="line"/>
    </contour>
  </outline>
</glyph>
<glyph name="k" format="2">
  <advance width="287"/>
  <unicode hex="006B"/>
  <anchor x="168" y="0" name="bottom"/>
  <outline>
    <contour>
      <point x="201" y="0" type="curve"/>
      <point x="323" y="3" type="line"/>
      <point x="277" y="103"/>
      <point x="238" y="209"/>
      <point x="211" y="298" type="curve"/>
      <point x="240" y="394"/>
      <point x="263" y="478"/>
      <point x="294" y="559" type="curve"/>
      <point x="180" y="561" type="line"/>
      <point x="164" y="485"/>
      <point x="142" y="404"/>
      <point x="105" y="289" type="curve"/>
      <point x="142" y="197"/>
      <point x="176" y="88"/>
    </contour>
    <contour>
      <point x="18" y="1" type="curve"/>
      <point x="127" y="1" type="line"/>
      <point x="127" y="1"/>
      <point x="125" y="120"/>
      <point x="125" y="264" type="curve"/>
      <point x="125" y="406"/>
      <point x="125" y="691"/>
      <point x="125" y="691" type="curve"/>
      <point x="23" y="691" type="line"/>
      <point x="23" y="691"/>
      <point x="24" y="412"/>
      <point x="24" y="266" type="curve"/>
      <point x="24" y="119"/>
      <point x="18" y="1"/>
    </contour>
  </outline>
</glyph>
<glyph name="l" format="2">
  <advance width="153"/>
  <unicode hex="006C"/>
  <anchor x="80" y="0" name="bottom"/>
  <anchor x="77" y="359" name="center"/>
  <anchor x="79" y="693" name="top"/>
  <anchor x="219" y="473" name="topright"/>
  <outline>
    <contour>
      <point x="21" y="0" type="curve"/>
      <point x="130" y="11" type="line"/>
      <point x="129" y="58"/>
      <point x="128" y="160"/>
      <point x="128" y="264" type="curve" smooth="yes"/>
      <point x="128" y="396"/>
      <point x="130" y="547"/>
      <point x="131" y="691" type="curve"/>
      <point x="24" y="692" type="line"/>
      <point x="26" y="599"/>
      <point x="29" y="403"/>
      <point x="29" y="266" type="curve" smooth="yes"/>
      <point x="29" y="157"/>
      <point x="24" y="50"/>
    </contour>
  </outline>
</glyph>
<glyph name="m" format="2">
  <advance width="475"/>
  <unicode hex="006D"/>
  <outline>
    <contour>
      <point x="179" y="1" type="curve"/>
      <point x="292" y="1" type="line"/>
      <point x="290" y="89"/>
      <point x="288" y="216"/>
      <point x="288" y="322" type="curve" smooth="yes"/>
      <point x="288" y="450"/>
      <point x="304" y="564"/>
      <point x="213" y="564" type="curve" smooth="yes"/>
      <point x="158" y="564"/>
      <point x="92" y="534"/>
      <point x="92" y="271" type="curve"/>
      <point x="140" y="328" type="line"/>
      <point x="140" y="449"/>
      <point x="139" y="477"/>
      <point x="164" y="477" type="curve" smooth="yes"/>
      <point x="182" y="477"/>
      <point x="184" y="461"/>
      <point x="184" y="435" type="curve" smooth="yes"/>
      <point x="184" y="372"/>
      <point x="184" y="308"/>
      <point x="184" y="243" type="curve" smooth="yes"/>
      <point x="184" y="134"/>
      <point x="181" y="86"/>
    </contour>
    <contour>
      <point x="30" y="2" type="curve"/>
      <point x="143" y="2" type="line"/>
      <point x="142" y="91"/>
      <point x="140" y="213"/>
      <point x="140" y="327" type="curve"/>
      <point x="132" y="456"/>
      <point x="131" y="512"/>
      <point x="128" y="563" type="curve"/>
      <point x="34" y="556" type="line"/>
      <point x="36" y="501"/>
      <point x="36" y="415"/>
      <point x="36" y="288" type="curve" smooth="yes"/>
      <point x="36" y="163"/>
      <point x="34" y="85"/>
    </contour>
    <contour>
      <point x="437" y="-3" type="line"/>
      <point x="436" y="38"/>
      <point x="438" y="148"/>
      <point x="438" y="232" type="curve" smooth="yes"/>
      <point x="438" y="327"/>
      <point x="440" y="432"/>
      <point x="440" y="453" type="curve" smooth="yes"/>
      <point x="440" y="537"/>
      <point x="403" y="563"/>
      <point x="362" y="563" type="curve" smooth="yes"/>
      <point x="326" y="563"/>
      <point x="240" y="543"/>
      <point x="240" y="268" type="curve"/>
      <point x="288" y="322" type="line"/>
      <point x="290" y="431"/>
      <point x="286" y="477"/>
      <point x="313" y="477" type="curve" smooth="yes"/>
      <point x="334" y="477"/>
      <point x="335" y="456"/>
      <point x="335" y="435" type="curve" smooth="yes"/>
      <point x="335" y="344"/>
      <point x="334" y="286"/>
      <point x="333" y="231" type="curve" smooth="yes"/>
      <point x="331" y="148"/>
      <point x="331" y="104"/>
      <point x="327" y="8" type="curve"/>
    </contour>
  </outline>
</glyph>
<glyph name="n" format="2">
  <advance width="315"/>
  <unicode hex="006E"/>
  <anchor x="155" y="0" name="bottom"/>
  <anchor x="162" y="555" name="top"/>
  <anchor x="55" y="555" name="topright"/>
  <outline>
    <contour>
      <point x="290" y="0" type="line"/>
      <point x="287" y="81"/>
      <point x="285" y="143"/>
      <point x="285" y="251" type="curve" smooth="yes"/>
      <point x="285" y="311"/>
      <point x="285" y="389"/>
      <point x="285" y="453" type="curve" smooth="yes"/>
      <point x="285" y="536"/>
      <point x="253" y="563"/>
      <point x="211" y="563" type="curve" smooth="yes"/>
      <point x="177" y="563"/>
      <point x="85" y="552"/>
      <point x="85" y="267" type="curve"/>
      <point x="137" y="316" type="line"/>
      <point x="137" y="433"/>
      <point x="134" y="477"/>
      <point x="160" y="477" type="curve" smooth="yes"/>
      <point x="179" y="477"/>
      <point x="181" y="456"/>
      <point x="181" y="433" type="curve" smooth="yes"/>
      <point x="181" y="370"/>
      <point x="181" y="310"/>
      <point x="181" y="250" type="curve" smooth="yes"/>
      <point x="181" y="139"/>
      <point x="179" y="79"/>
      <point x="175" y="1" type="curve"/>
    </contour>
    <contour>
      <point x="27" y="1" type="curve"/>
      <point x="141" y="1" type="line"/>
      <point x="140" y="82"/>
      <point x="137" y="201"/>
      <point x="137" y="316" type="curve"/>
      <point x="131" y="447"/>
      <point x="130" y="538"/>
      <point x="129" y="562" type="curve"/>
      <point x="31" y="555" type="line"/>
      <point x="32" y="505"/>
      <point x="33" y="415"/>
      <point x="33" y="286" type="curve" smooth="yes"/>
      <point x="33" y="159"/>
      <point x="31" y="76"/>
    </contour>
  </outline>
</glyph>
<glyph name="o" format="2">
  <advance width="306"/>
  <unicode hex="006F"/>
  <anchor x="157" y="0" name="bottom"/>
  <anchor x="155" y="276" name="center"/>
  <anchor x="192" y="4" name="ogonek"/>
  <anchor x="157" y="555" name="top"/>
  <anchor x="186" y="555" name="topright"/>
  <outline>
    <contour>
      <point x="148" y="-10" type="curve" smooth="yes"/>
      <point x="222" y="-10"/>
      <point x="254" y="39"/>
      <point x="267" y="90" type="curve" smooth="yes"/>
      <point x="284" y="156"/>
      <point x="283" y="224"/>
      <point x="283" y="283" type="curve" smooth="yes"/>
      <point x="283" y="347"/>
      <point x="285" y="401"/>
      <point x="277" y="457" type="curve" smooth="yes"/>
      <point x="267" y="530"/>
      <point x="231" y="567"/>
      <point x="162" y="567" type="curve" smooth="yes"/>
      <point x="93" y="567"/>
      <point x="55" y="533"/>
      <point x="35" y="451" type="curve" smooth="yes"/>
      <point x="27" y="418"/>
      <point x="23" y="327"/>
      <point x="23" y="284" type="curve" smooth="yes"/>
      <point x="23" y="241"/>
      <point x="22" y="167"/>
      <point x="28" y="113" type="curve" smooth="yes"/>
      <point x="37" y="33"/>
      <point x="69" y="-10"/>
    </contour>
    <contour>
      <point x="152" y="71" type="curve" smooth="yes"/>
      <point x="135" y="71"/>
      <point x="131" y="83"/>
      <point x="130" y="108" type="curve" smooth="yes"/>
      <point x="128" y="151"/>
      <point x="130" y="223"/>
      <point x="130" y="263" type="curve" smooth="yes"/>
      <point x="130" y="304"/>
      <point x="129" y="407"/>
      <point x="134" y="451" type="curve" smooth="yes"/>
      <point x="136" y="469"/>
      <point x="138" y="489"/>
      <point x="155" y="489" type="curve" smooth="yes"/>
      <point x="171" y="489"/>
      <point x="174" y="477"/>
      <point x="175" y="450" type="curve" smooth="yes"/>
      <point x="176" y="423"/>
      <point x="176" y="355"/>
      <point x="176" y="287" type="curve" smooth="yes"/>
      <point x="176" y="235"/>
      <point x="177" y="146"/>
      <point x="174" y="108" type="curve" smooth="yes"/>
      <point x="172" y="82"/>
      <point x="164" y="71"/>
    </contour>
  </outline>
</glyph>
<glyph name="p" format="2">
  <advance width="315"/>
  <unicode hex="0070"/>
  <outline>
    <contour>
      <point x="22" y="-166" type="curve"/>
      <point x="142" y="-160" type="line"/>
      <point x="138" y="12" type="line"/>
      <point x="148" y="1"/>
      <point x="161" y="-8"/>
      <point x="185" y="-8" type="curve" smooth="yes"/>
      <point x="237" y="-8"/>
      <point x="264" y="36"/>
      <point x="278" y="111" type="curve" smooth="yes"/>
      <point x="286" y="154"/>
      <point x="289" y="209"/>
      <point x="289" y="271" type="curve" smooth="yes"/>
      <point x="289" y="332"/>
      <point x="290" y="390"/>
      <point x="286" y="438" type="curve" smooth="yes"/>
      <point x="280" y="513"/>
      <point x="261" y="565"/>
      <point x="206" y="565" type="curve" smooth="yes"/>
      <point x="184" y="565"/>
      <point x="154" y="552"/>
      <point x="136" y="515" type="curve"/>
      <point x="137" y="560" type="line"/>
      <point x="28" y="555" type="line"/>
      <point x="28" y="483"/>
      <point x="31" y="328"/>
      <point x="31" y="204" type="curve" smooth="yes"/>
      <point x="31" y="62"/>
      <point x="22" y="-166"/>
    </contour>
    <contour>
      <point x="135" y="193" type="curve" smooth="yes"/>
      <point x="135" y="346" type="line" smooth="yes"/>
      <point x="135" y="436"/>
      <point x="137" y="477"/>
      <point x="160" y="477" type="curve" smooth="yes"/>
      <point x="176" y="477"/>
      <point x="178" y="463"/>
      <point x="180" y="401" type="curve" smooth="yes"/>
      <point x="181" y="369"/>
      <point x="180" y="324"/>
      <point x="180" y="262" type="curve" smooth="yes"/>
      <point x="180" y="218"/>
      <point x="182" y="164"/>
      <point x="180" y="124" type="curve" smooth="yes"/>
      <point x="178" y="90"/>
      <point x="171" y="65"/>
      <point x="157" y="65" type="curve" smooth="yes"/>
      <point x="132" y="65"/>
      <point x="135" y="107"/>
    </contour>
  </outline>
</glyph>
<glyph name="q" format="2">
  <advance width="311"/>
  <unicode hex="0071"/>
  <outline>
    <contour>
      <point x="23" y="272" type="curve" smooth="yes"/>
      <point x="23" y="229"/>
      <point x="25" y="177"/>
      <point x="27" y="136" type="curve" smooth="yes"/>
      <point x="31" y="53"/>
      <point x="55" y="-11"/>
      <point x="114" y="-11" type="curve" smooth="yes"/>
      <point x="136" y="-11"/>
      <point x="166" y="13"/>
      <point x="182" y="47" type="curve"/>
      <point x="185" y="-160" type="line"/>
      <point x="288" y="-164" type="line"/>
      <point x="284" y="-73"/>
      <point x="280" y="81"/>
      <point x="280" y="219" type="curve" smooth="yes"/>
      <point x="280" y="362"/>
      <point x="287" y="568"/>
      <point x="287" y="568" type="curve"/>
      <point x="177" y="565" type="line"/>
      <point x="178" y="535" type="line"/>
      <point x="166" y="558"/>
      <point x="146" y="565"/>
      <point x="128" y="565" type="curve" smooth="yes"/>
      <point x="71" y="565"/>
      <point x="45" y="517"/>
      <point x="33" y="444" type="curve" smooth="yes"/>
      <point x="25" y="396"/>
      <point x="23" y="336"/>
    </contour>
    <contour>
      <point x="129" y="276" type="curve" smooth="yes"/>
      <point x="128" y="318"/>
      <point x="127" y="362"/>
      <point x="129" y="399" type="curve" smooth="yes"/>
      <point x="132" y="451"/>
      <point x="138" y="490"/>
      <point x="153" y="490" type="curve" smooth="yes"/>
      <point x="170" y="490"/>
      <point x="175" y="452"/>
      <point x="177" y="402" type="curve" smooth="yes"/>
      <point x="179" y="361"/>
      <point x="176" y="312"/>
      <point x="176" y="270" type="curve" smooth="yes"/>
      <point x="176" y="222"/>
      <point x="177" y="177"/>
      <point x="174" y="142" type="curve" smooth="yes"/>
      <point x="171" y="104"/>
      <point x="166" y="79"/>
      <point x="151" y="79" type="curve" smooth="yes"/>
      <point x="136" y="79"/>
      <point x="132" y="103"/>
      <point x="130" y="154" type="curve" smooth="yes"/>
      <point x="129" y="185"/>
      <point x="130" y="225"/>
    </contour>
  </outline>
</glyph>
<glyph name="r" format="2">
  <advance width="267"/>
  <unicode hex="0072"/>
  <anchor x="76" y="0" name="bottom"/>
  <anchor x="148" y="555" name="top"/>
  <outline>
    <contour>
      <point x="161" y="247" type="curve"/>
      <point x="262" y="248" type="line"/>
      <point x="265" y="325"/>
      <point x="266" y="405"/>
      <point x="266" y="452" type="curve" smooth="yes"/>
      <point x="266" y="536"/>
      <point x="243" y="571"/>
      <point x="200" y="571" type="curve" smooth="yes"/>
      <point x="149" y="571"/>
      <point x="81" y="529"/>
      <point x="83" y="283" type="curve"/>
      <point x="132" y="326" type="line"/>
      <point x="132" y="441"/>
      <point x="129" y="483"/>
      <point x="150" y="483" type="curve" smooth="yes"/>
      <point x="164" y="483"/>
      <point x="165" y="461"/>
      <point x="165" y="440" type="curve" smooth="yes"/>
      <point x="165" y="380"/>
      <point x="164" y="326"/>
    </contour>
    <contour>
      <point x="19" y="-2" type="curve"/>
      <point x="133" y="0" type="line"/>
      <point x="134" y="98"/>
      <point x="132" y="218"/>
      <point x="132" y="332" type="curve"/>
      <point x="122" y="447"/>
      <point x="121" y="507"/>
      <point x="115" y="567" type="curve"/>
      <point x="20" y="560" type="line"/>
      <point x="24" y="507"/>
      <point x="31" y="414"/>
      <point x="28" y="285" type="curve" smooth="yes"/>
      <point x="26" y="185"/>
      <point x="24" y="98"/>
    </contour>
  </outline>
</glyph>
<glyph name="s" format="2">
  <advance width="265"/>
  <unicode hex="0073"/>
  <anchor x="133" y="0" name="bottom"/>
  <anchor x="130" y="555" name="top"/>
  <outline>
    <contour>
      <point x="123" y="-10" type="curve"/>
      <point x="221" y="-10"/>
      <point x="256" y="51"/>
      <point x="256" y="137" type="curve" smooth="yes"/>
      <point x="256" y="227"/>
      <point x="197" y="276"/>
      <point x="146" y="323" type="curve" smooth="yes"/>
      <point x="115" y="351"/>
      <point x="113" y="381"/>
      <point x="113" y="429" type="curve" smooth="yes"/>
      <point x="113" y="477"/>
      <point x="118" y="490"/>
      <point x="131" y="490" type="curve" smooth="yes"/>
      <point x="146" y="490"/>
      <point x="148" y="469"/>
      <point x="148" y="438" type="curve" smooth="yes"/>
      <point x="148" y="415"/>
      <point x="146" y="389"/>
      <point x="145" y="359" type="curve"/>
      <point x="247" y="359" type="line"/>
      <point x="250" y="386"/>
      <point x="251" y="408"/>
      <point x="251" y="431" type="curve" smooth="yes"/>
      <point x="251" y="514"/>
      <point x="228" y="573"/>
      <point x="131" y="573" type="curve" smooth="yes"/>
      <point x="64" y="573"/>
      <point x="8" y="526"/>
      <point x="8" y="424" type="curve" smooth="yes"/>
      <point x="8" y="340"/>
      <point x="18" y="291"/>
      <point x="71" y="240" type="curve" smooth="yes"/>
      <point x="125" y="188"/>
      <point x="148" y="171"/>
      <point x="148" y="116" type="curve" smooth="yes"/>
      <point x="148" y="93"/>
      <point x="144" y="75"/>
      <point x="131" y="75" type="curve" smooth="yes"/>
      <point x="115" y="75"/>
      <point x="114" y="91"/>
      <point x="114" y="118" type="curve" smooth="yes"/>
      <point x="114" y="132"/>
      <point x="114" y="145"/>
      <point x="116" y="166" type="curve"/>
      <point x="12" y="165" type="line"/>
      <point x="10" y="148"/>
      <point x="9" y="134"/>
      <point x="9" y="119" type="curve" smooth="yes"/>
      <point x="9" y="35"/>
      <point x="44" y="-10"/>
    </contour>
  </outline>
</glyph>
<glyph name="t" format="2">
  <advance width="275"/>
  <unicode hex="0074"/>
  <anchor x="142" y="0" name="bottom"/>
  <anchor x="121" y="377" name="center"/>
  <anchor x="165" y="555" name="topright"/>
  <outline>
    <contour>
      <point x="144" y="-11" type="curve" smooth="yes"/>
      <point x="250" y="-11"/>
      <point x="274" y="66"/>
      <point x="274" y="132" type="curve" smooth="yes"/>
      <point x="274" y="167"/>
      <point x="273" y="236"/>
      <point x="270" y="297" type="curve"/>
      <point x="166" y="298" type="line"/>
      <point x="167" y="248"/>
      <point x="168" y="198"/>
      <point x="168" y="164" type="curve" smooth="yes"/>
      <point x="168" y="96"/>
      <point x="165" y="70"/>
      <point x="148" y="70" type="curve" smooth="yes"/>
      <point x="133" y="70"/>
      <point x="134" y="91"/>
      <point x="134" y="114" type="curve" smooth="yes"/>
      <point x="134" y="154"/>
      <point x="134" y="225"/>
      <point x="137" y="293" type="curve" smooth="yes"/>
      <point x="140" y="355"/>
      <point x="150" y="510"/>
      <point x="159" y="627" type="curve"/>
      <point x="42" y="626" type="line"/>
      <point x="44" y="555"/>
      <point x="38" y="399"/>
      <point x="33" y="311" type="curve" smooth="yes"/>
      <point x="29" y="246"/>
      <point x="26" y="178"/>
      <point x="26" y="107" type="curve" smooth="yes"/>
      <point x="26" y="27"/>
      <point x="69" y="-11"/>
    </contour>
    <contour>
      <point x="-5" y="450" type="line"/>
      <point x="-5" y="450"/>
      <point x="65" y="456"/>
      <point x="115" y="457" type="curve" smooth="yes"/>
      <point x="165" y="458"/>
      <point x="259" y="460"/>
      <point x="259" y="460" type="curve"/>
      <point x="263" y="555" type="line"/>
      <point x="263" y="555"/>
      <point x="150" y="552"/>
      <point x="101" y="552" type="curve" smooth="yes"/>
      <point x="72" y="552"/>
      <point x="27" y="553"/>
      <point x="5" y="553" type="curve"/>
    </contour>
  </outline>
</glyph>
<glyph name="u" format="2">
  <advance width="303"/>
  <unicode hex="0075"/>
  <anchor x="158" y="0" name="bottom"/>
  <anchor x="261" y="-1" name="ogonek"/>
  <anchor x="157" y="555" name="top"/>
  <anchor x="216" y="555" name="topright"/>
  <outline>
    <contour>
      <point x="110" y="-8" type="curve" smooth="yes"/>
      <point x="199" y="-8"/>
      <point x="220" y="116"/>
      <point x="222" y="311" type="curve"/>
      <point x="173" y="245" type="line"/>
      <point x="173" y="126"/>
      <point x="173" y="77"/>
      <point x="144" y="77" type="curve" smooth="yes"/>
      <point x="126" y="77"/>
      <point x="128" y="107"/>
      <point x="128" y="136" type="curve" smooth="yes"/>
      <point x="128" y="176"/>
      <point x="128" y="208"/>
      <point x="129" y="276" type="curve" smooth="yes"/>
      <point x="131" y="385"/>
      <point x="133" y="497"/>
      <point x="135" y="565" type="curve"/>
      <point x="26" y="559" type="line"/>
      <point x="26" y="482"/>
      <point x="25" y="435"/>
      <point x="25" y="274" type="curve" smooth="yes"/>
      <point x="25" y="207"/>
      <point x="25" y="140"/>
      <point x="25" y="122" type="curve" smooth="yes"/>
      <point x="25" y="24"/>
      <point x="58" y="-8"/>
    </contour>
    <contour>
      <point x="189" y="0" type="line"/>
      <point x="277" y="0" type="line"/>
      <point x="277" y="9"/>
      <point x="275" y="181"/>
      <point x="276" y="282" type="curve" smooth="yes"/>
      <point x="277" y="392"/>
      <point x="277" y="447"/>
      <point x="283" y="566" type="curve"/>
      <point x="173" y="568" type="line"/>
      <point x="174" y="450"/>
      <point x="173" y="422"/>
      <point x="173" y="296" type="curve" smooth="yes"/>
      <point x="173" y="233"/>
      <point x="174" y="173"/>
      <point x="175" y="112" type="curve"/>
    </contour>
  </outline>
</glyph>
<glyph name="v" format="2">
  <advance width="274"/>
  <unicode hex="0076"/>
  <outline>
    <contour>
      <point x="3" y="566" type="line"/>
      <point x="17" y="444"/>
      <point x="28" y="347"/>
      <point x="38" y="265" type="curve" smooth="yes"/>
      <point x="51" y="160"/>
      <point x="58" y="79"/>
      <point x="64" y="0" type="curve"/>
      <point x="207" y="-4" type="line"/>
      <point x="207" y="-4"/>
      <point x="222" y="127"/>
      <point x="238" y="263" type="curve" smooth="yes"/>
      <point x="255" y="409"/>
      <point x="273" y="562"/>
      <point x="273" y="562" type="curve"/>
      <point x="169" y="555" type="line"/>
      <point x="164" y="472"/>
      <point x="158" y="372"/>
      <point x="151" y="279" type="curve" smooth="yes"/>
      <point x="147" y="212"/>
      <point x="142" y="149"/>
      <point x="138" y="98" type="curve"/>
      <point x="134" y="148"/>
      <point x="130" y="214"/>
      <point x="126" y="284" type="curve" smooth="yes"/>
      <point x="120" y="380"/>
      <point x="116" y="483"/>
      <point x="113" y="566" type="curve"/>
    </contour>
  </outline>
</glyph>
<glyph name="w" format="2">
  <advance width="451"/>
  <unicode hex="0077"/>
  <anchor x="228" y="555" name="top"/>
  <outline>
    <contour>
      <point x="75" y="-1" type="curve"/>
      <point x="209" y="1" type="line"/>
      <point x="211" y="62"/>
      <point x="214" y="120"/>
      <point x="217" y="179" type="curve" smooth="yes"/>
      <point x="220" y="238"/>
      <point x="223" y="297"/>
      <point x="228" y="361" type="curve"/>
      <point x="231" y="305"/>
      <point x="235" y="243"/>
      <point x="238" y="180" type="curve" smooth="yes"/>
      <point x="242" y="120"/>
      <point x="245" y="59"/>
      <point x="248" y="1" type="curve"/>
      <point x="379" y="-1" type="line"/>
      <point x="391" y="82"/>
      <point x="408" y="211"/>
      <point x="425" y="343" type="curve" smooth="yes"/>
      <point x="434" y="416"/>
      <point x="444" y="490"/>
      <point x="454" y="557" type="curve"/>
      <point x="342" y="558" type="line"/>
      <point x="338" y="496"/>
      <point x="335" y="434"/>
      <point x="332" y="374" type="curve" smooth="yes"/>
      <point x="326" y="275"/>
      <point x="320" y="181"/>
      <point x="313" y="100" type="curve"/>
      <point x="308" y="167"/>
      <point x="305" y="233"/>
      <point x="301" y="303" type="curve" smooth="yes"/>
      <point x="298" y="371"/>
      <point x="294" y="442"/>
      <point x="291" y="523" type="curve"/>
      <point x="161" y="524" type="line"/>
      <point x="157" y="446"/>
      <point x="154" y="377"/>
      <point x="150" y="297" type="curve" smooth="yes"/>
      <point x="147" y="240"/>
      <point x="144" y="177"/>
      <point x="139" y="100" type="curve"/>
      <point x="133" y="173"/>
      <point x="128" y="240"/>
      <point x="124" y="310" type="curve" smooth="yes"/>
      <point x="118" y="386"/>
      <point x="114" y="465"/>
      <point x="109" y="555" type="curve"/>
      <point x="0" y="555" type="line"/>
      <point x="13" y="468"/>
      <point x="25" y="380"/>
      <point x="36" y="297" type="curve" smooth="yes"/>
      <point x="50" y="189"/>
      <point x="63" y="87"/>
    </contour>
  </outline>
</glyph>
<glyph name="x" format="2">
  <advance width="246"/>
  <unicode hex="0078"/>
  <outline>
    <contour>
      <point x="82" y="-4" type="line"/>
      <point x="110" y="103"/>
      <point x="130" y="157"/>
      <point x="170" y="281" type="curve" smooth="yes"/>
      <point x="209" y="403"/>
      <point x="225" y="455"/>
      <point x="264" y="558" type="curve"/>
      <point x="161" y="558" type="line"/>
      <point x="141" y="468"/>
      <point x="127" y="428"/>
      <point x="84" y="299" type="curve" smooth="yes"/>
      <point x="42" y="174"/>
      <point x="17" y="117"/>
      <point x="-27" y="-2" type="curve"/>
    </contour>
    <contour>
      <point x="174" y="-2" type="curve"/>
      <point x="281" y="1" type="line"/>
      <point x="243" y="101"/>
      <point x="211" y="176"/>
      <point x="167" y="299" type="curve" smooth="yes"/>
      <point x="122" y="426"/>
      <point x="110" y="471"/>
      <point x="86" y="558" type="curve"/>
      <point x="-24" y="555" type="line"/>
      <point x="13" y="459"/>
      <point x="32" y="402"/>
      <point x="76" y="281" type="curve" smooth="yes"/>
      <point x="120" y="161"/>
      <point x="149" y="83"/>
    </contour>
  </outline>
</glyph>
<glyph name="y" format="2">
  <advance width="269"/>
  <unicode hex="0079"/>
  <anchor x="245" y="0" name="bottom"/>
  <anchor x="133" y="555" name="top"/>
  <outline>
    <contour>
      <point x="161" y="-164" type="line"/>
      <point x="189" y="-4"/>
      <point x="221" y="154"/>
      <point x="243" y="279" type="curve" smooth="yes"/>
      <point x="266" y="403"/>
      <point x="272" y="431"/>
      <point x="300" y="563" type="curve"/>
      <point x="190" y="563" type="line"/>
      <point x="176" y="457"/>
      <point x="166" y="404"/>
      <point x="146" y="282" type="curve" smooth="yes"/>
      <point x="136" y="220"/>
      <point x="100" y="5"/>
      <point x="60" y="-156" type="curve"/>
    </contour>
    <contour>
      <point x="97" y="-35" type="curve"/>
      <point x="176" y="-11" type="line"/>
      <point x="158" y="76"/>
      <point x="140" y="187"/>
      <point x="120" y="329" type="curve" smooth="yes"/>
      <point x="110" y="396"/>
      <point x="100" y="470"/>
      <point x="88" y="553" type="curve"/>
      <point x="-32" y="549" type="line"/>
      <point x="-32" y="549"/>
      <point x="3" y="388"/>
      <point x="37" y="243" type="curve" smooth="yes"/>
      <point x="70" y="107"/>
      <point x="69" y="109"/>
    </contour>
  </outline>
</glyph>
<glyph name="z" format="2">
  <advance width="227"/>
  <unicode hex="007A"/>
  <anchor x="115" y="555" name="top"/>
  <outline>
    <contour>
      <point x="79" y="10" type="line"/>
      <point x="103" y="99"/>
      <point x="129" y="182"/>
      <point x="153" y="259" type="curve" smooth="yes"/>
      <point x="176" y="329"/>
      <point x="197" y="394"/>
      <point x="217" y="451" type="curve"/>
      <point x="127" y="535" type="line"/>
      <point x="106" y="446"/>
      <point x="82" y="361"/>
      <point x="59" y="285" type="curve" smooth="yes"/>
      <point x="37" y="213"/>
      <point x="16" y="149"/>
      <point x="-4" y="94" type="curve"/>
    </contour>
    <contour>
      <point x="-3" y="-4" type="line"/>
      <point x="-3" y="-4"/>
      <point x="92" y="0"/>
      <point x="110" y="0" type="curve"/>
      <point x="160" y="-1"/>
      <point x="226" y="0"/>
      <point x="226" y="0" type="curve"/>
      <point x="226" y="96" type="line"/>
      <point x="226" y="96"/>
      <point x="173" y="94"/>
      <point x="125" y="93" type="curve"/>
      <point x="81" y="93"/>
      <point x="-4" y="94"/>
      <point x="-4" y="94" type="curve"/>
    </contour>
    <contour>
      <point x="-1" y="451" type="line"/>
      <point x="-1" y="451"/>
      <point x="45" y="453"/>
      <point x="94" y="453" type="curve"/>
      <point x="117" y="453"/>
      <point x="217" y="451"/>
      <point x="217" y="451" type="curve"/>
      <point x="214" y="555" type="line"/>
      <point x="214" y="555"/>
      <point x="116" y="552"/>
      <point x="110" y="552" type="curve"/>
      <point x="60" y="551"/>
      <point x="0" y="552"/>
      <point x="0" y="552" type="curve"/>
    </contour>
  </outline>
</glyph>
<glyph name="braceleft" format="2">
  <advance width="387"/>
  <unicode hex="007B"/>
  <outline>
    <contour>
      <point x="243" y="-147" type="curve" smooth="yes"/>
      <point x="276" y="-147"/>
      <point x="304" y="-137"/>
      <point x="337" y="-112" type="curve"/>
      <point x="313" y="-22" type="line"/>
      <point x="294" y="-43"/>
      <point x="265" y="-56"/>
      <point x="244" y="-56" type="curve" smooth="yes"/>
      <point x="221" y="-56"/>
      <point x="210" y="-41"/>
      <point x="210" y="2" type="curve" smooth="yes"/>
      <point x="210" y="25"/>
      <point x="231" y="151"/>
      <point x="231" y="187" type="curve" smooth="yes"/>
      <point x="231" y="218"/>
      <point x="223" y="255"/>
      <point x="168" y="279" type="curve"/>
      <point x="222" y="300"/>
      <point x="229" y="332"/>
      <point x="229" y="364" type="curve" smooth="yes"/>
      <point x="229" y="412"/>
      <point x="198" y="536"/>
      <point x="198" y="570" type="curve" smooth="yes"/>
      <point x="198" y="613"/>
      <point x="210" y="627"/>
      <point x="235" y="627" type="curve" smooth="yes"/>
      <point x="253" y="627"/>
      <point x="268" y="618"/>
      <point x="293" y="595" type="curve"/>
      <point x="323" y="685" type="line"/>
      <point x="290" y="710"/>
      <point x="262" y="720"/>
      <point x="229" y="720" type="curve" smooth="yes"/>
      <point x="148" y="720"/>
      <point x="101" y="674"/>
      <point x="101" y="580" type="curve" smooth="yes"/>
      <point x="101" y="523"/>
      <point x="133" y="423"/>
      <point x="133" y="374" type="curve" smooth="yes"/>
      <point x="133" y="341"/>
      <point x="92" y="313"/>
      <point x="35" y="323" type="curve"/>
      <point x="47" y="224" type="line"/>
      <point x="102" y="231"/>
      <point x="133" y="204"/>
      <point x="133" y="171" type="curve" smooth="yes"/>
      <point x="133" y="132"/>
      <point x="111" y="43"/>
      <point x="111" y="-7" type="curve" smooth="yes"/>
      <point x="111" y="-98"/>
      <point x="161" y="-147"/>
    </contour>
  </outline>
</glyph>
<glyph name="bar" format="2">
  <advance width="199"/>
  <unicode hex="007C"/>
  <outline>
    <contour>
      <point x="153" y="-136" type="line"/>
      <point x="154" y="-145"/>
      <point x="143" y="112"/>
      <point x="143" y="289" type="curve" smooth="yes"/>
      <point x="143" y="467"/>
      <point x="153" y="702"/>
      <point x="152" y="694" type="curve"/>
      <point x="47" y="693" type="line"/>
      <point x="46" y="701"/>
      <point x="49" y="462"/>
      <point x="49" y="288" type="curve" smooth="yes"/>
      <point x="49" y="113"/>
      <point x="45" y="-142"/>
      <point x="46" y="-134" type="curve"/>
    </contour>
  </outline>
</glyph>
<glyph name="braceright" format="2">
  <advance width="387"/>
  <unicode hex="007D"/>
  <outline>
    <contour>
      <point x="151" y="-147" type="curve" smooth="yes"/>
      <point x="232" y="-147"/>
      <point x="279" y="-101"/>
      <point x="279" y="-7" type="curve" smooth="yes"/>
      <point x="279" y="50"/>
      <point x="247" y="150"/>
      <point x="247" y="199" type="curve" smooth="yes"/>
      <point x="247" y="232"/>
      <point x="287" y="260"/>
      <point x="345" y="250" type="curve"/>
      <point x="333" y="349" type="line"/>
      <point x="278" y="342"/>
      <point x="247" y="369"/>
      <point x="247" y="402" type="curve" smooth="yes"/>
      <point x="247" y="441"/>
      <point x="269" y="530"/>
      <point x="269" y="580" type="curve" smooth="yes"/>
      <point x="269" y="671"/>
      <point x="219" y="720"/>
      <point x="137" y="720" type="curve" smooth="yes"/>
      <point x="104" y="720"/>
      <point x="76" y="710"/>
      <point x="43" y="685" type="curve"/>
      <point x="67" y="595" type="line"/>
      <point x="86" y="616"/>
      <point x="114" y="629"/>
      <point x="135" y="629" type="curve" smooth="yes"/>
      <point x="159" y="629"/>
      <point x="170" y="614"/>
      <point x="170" y="571" type="curve" smooth="yes"/>
      <point x="170" y="548"/>
      <point x="149" y="422"/>
      <point x="149" y="386" type="curve" smooth="yes"/>
      <point x="149" y="355"/>
      <point x="157" y="318"/>
      <point x="212" y="294" type="curve"/>
      <point x="157" y="273"/>
      <point x="151" y="241"/>
      <point x="151" y="209" type="curve" smooth="yes"/>
      <point x="151" y="161"/>
      <point x="182" y="37"/>
      <point x="182" y="3" type="curve" smooth="yes"/>
      <point x="182" y="-40"/>
      <point x="170" y="-54"/>
      <point x="145" y="-54" type="curve" smooth="yes"/>
      <point x="127" y="-54"/>
      <point x="112" y="-45"/>
      <point x="87" y="-22" type="curve"/>
      <point x="57" y="-112" type="line"/>
      <point x="90" y="-137"/>
      <point x="118" y="-147"/>
    </contour>
  </outline>
</glyph>
<glyph name="exclamdown" format="2">
  <advance width="225"/>
  <unicode hex="00A1"/>
  <outline>
    <contour>
      <point x="45" y="-158" type="curve"/>
      <point x="179" y="-150" type="line"/>
      <point x="174" y="-44"/>
      <point x="170" y="1"/>
      <point x="167" y="70" type="curve" smooth="yes"/>
      <point x="164" y="141"/>
      <point x="160" y="214"/>
      <point x="156" y="323" type="curve"/>
      <point x="76" y="321" type="line"/>
      <point x="72" y="200"/>
      <point x="69" y="145"/>
      <point x="64" y="76" type="curve" smooth="yes"/>
      <point x="58" y="-9"/>
      <point x="56" y="-37"/>
    </contour>
    <contour>
      <point x="64" y="382" type="line"/>
      <point x="172" y="385" type="line"/>
      <point x="176" y="554" type="line"/>
      <point x="53" y="544" type="line"/>
    </contour>
  </outline>
</glyph>
<glyph name="cent" format="2">
  <advance width="384"/>
  <unicode hex="00A2"/>
  <outline>
    <contour>
      <point x="189" y="24" type="curve" smooth="yes"/>
      <point x="300" y="24"/>
      <point x="335" y="96"/>
      <point x="335" y="197" type="curve" smooth="yes"/>
      <point x="335" y="208"/>
      <point x="335" y="219"/>
      <point x="334" y="231" type="curve"/>
      <point x="242" y="219" type="line"/>
      <point x="243" y="206"/>
      <point x="244" y="194"/>
      <point x="244" y="182" type="curve" smooth="yes"/>
      <point x="244" y="139"/>
      <point x="234" y="104"/>
      <point x="189" y="104" type="curve" smooth="yes"/>
      <point x="154" y="104"/>
      <point x="143" y="128"/>
      <point x="139" y="181" type="curve" smooth="yes"/>
      <point x="136" y="218"/>
      <point x="137" y="322"/>
      <point x="140" y="360" type="curve" smooth="yes"/>
      <point x="145" y="410"/>
      <point x="159" y="447"/>
      <point x="194" y="447" type="curve" smooth="yes"/>
      <point x="239" y="447"/>
      <point x="247" y="410"/>
      <point x="247" y="359" type="curve" smooth="yes"/>
      <point x="247" y="341"/>
      <point x="246" y="322"/>
      <point x="245" y="302" type="curve"/>
      <point x="337" y="299" type="line"/>
      <point x="340" y="322"/>
      <point x="342" y="345"/>
      <point x="342" y="366" type="curve" smooth="yes"/>
      <point x="342" y="458"/>
      <point x="307" y="525"/>
      <point x="202" y="525" type="curve" smooth="yes"/>
      <point x="102" y="525"/>
      <point x="64" y="462"/>
      <point x="50" y="379" type="curve" smooth="yes"/>
      <point x="40" y="321"/>
      <point x="39" y="201"/>
      <point x="49" y="143" type="curve" smooth="yes"/>
      <point x="61" y="71"/>
      <point x="95" y="24"/>
    </contour>
    <contour>
      <point x="231" y="-45" type="line"/>
      <point x="222" y="88"/>
      <point x="222" y="164"/>
      <point x="222" y="284" type="curve" smooth="yes"/>
      <point x="222" y="366"/>
      <point x="228" y="473"/>
      <point x="235" y="604" type="curve"/>
      <point x="163" y="608" type="line"/>
      <point x="165" y="496"/>
      <point x="166" y="401"/>
      <point x="166" y="278" type="curve" smooth="yes"/>
      <point x="166" y="170"/>
      <point x="165" y="88"/>
      <point x="159" y="-44" type="curve"/>
    </contour>
  </outline>
</glyph>
<glyph name="currency" format="2">
  <advance width="600"/>
  <unicode hex="00A4"/>
  <outline>
    <contour>
      <point x="295" y="40" type="curve" smooth="yes"/>
      <point x="450" y="40"/>
      <point x="507" y="149"/>
      <point x="507" y="304" type="curve" smooth="yes"/>
      <point x="507" y="432"/>
      <point x="441" y="517"/>
      <point x="312" y="517" type="curve" smooth="yes"/>
      <point x="171" y="517"/>
      <point x="107" y="409"/>
      <point x="107" y="260" type="curve" smooth="yes"/>
      <point x="107" y="127"/>
      <point x="157.995" y="40"/>
    </contour>
    <contour>
      <point x="126" y="-14" type="line"/>
      <point x="212" y="91" type="line"/>
      <point x="141" y="162" type="line"/>
      <point x="44" y="62" type="line"/>
    </contour>
    <contour>
      <point x="137" y="390" type="line"/>
      <point x="211" y="458" type="line"/>
      <point x="127" y="562" type="line"/>
      <point x="44" y="487" type="line"/>
    </contour>
    <contour>
      <point x="301" y="136" type="curve" smooth="yes"/>
      <point x="231" y="136"/>
      <point x="206" y="202"/>
      <point x="206" y="277" type="curve" smooth="yes"/>
      <point x="206" y="336"/>
      <point x="225" y="419"/>
      <point x="308" y="419" type="curve" smooth="yes"/>
      <point x="379" y="419"/>
      <point x="402" y="360"/>
      <point x="402" y="282" type="curve" smooth="yes"/>
      <point x="402" y="213"/>
      <point x="372" y="136"/>
    </contour>
    <contour>
      <point x="471" y="-13" type="line"/>
      <point x="553" y="63" type="line"/>
      <point x="457" y="161" type="line"/>
      <point x="384" y="93" type="line"/>
    </contour>
    <contour>
      <point x="457" y="385" type="line"/>
      <point x="553" y="486" type="line"/>
      <point x="471" y="561" type="line"/>
      <point x="385" y="455" type="line"/>
    </contour>
  </outline>
</glyph>
<glyph name="yen" format="2">
  <advance width="437"/>
  <unicode hex="00A5"/>
  <outline>
    <contour>
      <point x="163" y="0" type="line"/>
      <point x="266" y="1" type="line"/>
      <point x="262" y="186" type="line"/>
      <point x="279" y="268"/>
      <point x="299" y="355"/>
      <point x="323" y="461" type="curve" smooth="yes"/>
      <point x="353" y="600"/>
      <point x="391" y="704"/>
      <point x="389" y="698" type="curve"/>
      <point x="276" y="694" type="line"/>
      <point x="277" y="700"/>
      <point x="257" y="578"/>
      <point x="236" y="466" type="curve" smooth="yes"/>
      <point x="231" y="437"/>
      <point x="223" y="392"/>
      <point x="216" y="358" type="curve"/>
      <point x="208" y="399"/>
      <point x="199" y="447"/>
      <point x="197" y="470" type="curve" smooth="yes"/>
      <point x="176" y="608"/>
      <point x="163" y="709"/>
      <point x="164" y="704" type="curve"/>
      <point x="48" y="704" type="line"/>
      <point x="47" y="710"/>
      <point x="78" y="599"/>
      <point x="109" y="462" type="curve" smooth="yes"/>
      <point x="135" y="347"/>
      <point x="149" y="284"/>
      <point x="165" y="197" type="curve"/>
    </contour>
    <contour>
      <point x="54" y="73" type="line"/>
      <point x="97" y="76"/>
      <point x="174" y="80"/>
      <point x="227" y="80" type="curve" smooth="yes"/>
      <point x="281" y="80"/>
      <point x="341" y="79"/>
      <point x="372" y="78" type="curve"/>
      <point x="380" y="176" type="line"/>
      <point x="344" y="174"/>
      <point x="277" y="171"/>
      <point x="226" y="169" type="curve" smooth="yes"/>
      <point x="179" y="167"/>
      <point x="102" y="168"/>
      <point x="58" y="169" type="curve"/>
    </contour>
    <contour>
      <point x="53" y="207" type="line"/>
      <point x="99" y="210"/>
      <point x="178" y="214"/>
      <point x="231" y="214" type="curve" smooth="yes"/>
      <point x="285" y="214"/>
      <point x="348" y="212"/>
      <point x="380" y="211" type="curve"/>
      <point x="382" y="309" type="line"/>
      <point x="347" y="307"/>
      <point x="281" y="304"/>
      <point x="230" y="303" type="curve" smooth="yes"/>
      <point x="183" y="302"/>
      <point x="105" y="302"/>
      <point x="60" y="303" type="curve"/>
    </contour>
  </outline>
</glyph>
<glyph name="brokenbar" format="2">
  <advance width="199"/>
  <unicode hex="00A6"/>
  <outline>
    <contour>
      <point x="49" y="352" type="curve"/>
      <point x="143" y="352" type="line"/>
      <point x="145" y="518"/>
      <point x="153" y="701"/>
      <point x="152" y="694" type="curve"/>
      <point x="47" y="693" type="line"/>
      <point x="47" y="700"/>
      <point x="49" y="516"/>
    </contour>
    <contour>
      <point x="46" y="-134" type="curve"/>
      <point x="153" y="-136" type="line"/>
      <point x="154" y="-143"/>
      <point x="146" y="29"/>
      <point x="144" y="187" type="curve"/>
      <point x="49" y="187" type="line"/>
      <point x="46" y="47"/>
      <point x="45" y="-85"/>
    </contour>
  </outline>
</glyph>
<glyph name="ordfeminine" format="2">
  <advance width="327"/>
  <unicode hex="00AA"/>
  <outline>
    <contour>
      <point x="53" y="528" type="curve" smooth="yes"/>
      <point x="53" y="508"/>
      <point x="66" y="472"/>
      <point x="113" y="472" type="curve" smooth="yes"/>
      <point x="143" y="472"/>
      <point x="168" y="484"/>
      <point x="185" y="509" type="curve"/>
      <point x="191" y="494"/>
      <point x="198" y="482"/>
      <point x="213" y="472" type="curve"/>
      <point x="275" y="500" type="line"/>
      <point x="262" y="511"/>
      <point x="258" y="531"/>
      <point x="258" y="545" type="curve" smooth="yes"/>
      <point x="258" y="624" type="line" smooth="yes"/>
      <point x="259" y="679"/>
      <point x="217" y="703"/>
      <point x="161.995" y="703" type="curve" smooth="yes"/>
      <point x="97" y="703"/>
      <point x="56" y="672"/>
      <point x="59" y="625" type="curve"/>
      <point x="134" y="620" type="line"/>
      <point x="130" y="636"/>
      <point x="134" y="653"/>
      <point x="157" y="653" type="curve" smooth="yes"/>
      <point x="174" y="653"/>
      <point x="182" y="645"/>
      <point x="182" y="633" type="curve" smooth="yes"/>
      <point x="182" y="615"/>
      <point x="163" y="611"/>
      <point x="129" y="598" type="curve" smooth="yes"/>
      <point x="95" y="585"/>
      <point x="53" y="573"/>
    </contour>
    <contour>
      <point x="125" y="539" type="curve" smooth="yes"/>
      <point x="125" y="549"/>
      <point x="134" y="554"/>
      <point x="145" y="559" type="curve" smooth="yes"/>
      <point x="157" y="565"/>
      <point x="171" y="570"/>
      <point x="181" y="578" type="curve"/>
      <point x="181" y="566" type="line" smooth="yes"/>
      <point x="181" y="541"/>
      <point x="160" y="524"/>
      <point x="141" y="524" type="curve" smooth="yes"/>
      <point x="132" y="524"/>
      <point x="125" y="529"/>
    </contour>
  </outline>
</glyph>
<glyph name="guillemetleft" format="2">
  <advance width="542"/>
  <unicode hex="00AB"/>
  <outline>
    <contour>
      <point x="48" y="215" type="line"/>
      <point x="107" y="263"/>
      <point x="149" y="293"/>
      <point x="188" y="326" type="curve" smooth="yes"/>
      <point x="232" y="365"/>
      <point x="291" y="402"/>
      <point x="289" y="400" type="curve"/>
      <point x="236" y="497" type="line"/>
      <point x="239" y="500"/>
      <point x="184" y="439"/>
      <point x="143" y="402" type="curve" smooth="yes"/>
      <point x="103" y="364"/>
      <point x="47" y="319"/>
      <point x="49" y="321" type="curve"/>
    </contour>
    <contour>
      <point x="234" y="31" type="curve"/>
      <point x="288" y="126" type="line"/>
      <point x="291" y="125"/>
      <point x="228" y="163"/>
      <point x="185" y="204" type="curve" smooth="yes"/>
      <point x="143" y="242"/>
      <point x="105" y="272"/>
      <point x="49" y="321" type="curve"/>
      <point x="48" y="215" type="line"/>
      <point x="46" y="216"/>
      <point x="101" y="168"/>
      <point x="141" y="130" type="curve" smooth="yes"/>
      <point x="179" y="93"/>
      <point x="236" y="28"/>
    </contour>
    <contour>
      <point x="248" y="215" type="line"/>
      <point x="308" y="263"/>
      <point x="349" y="293"/>
      <point x="388" y="326" type="curve" smooth="yes"/>
      <point x="433" y="364"/>
      <point x="491" y="402"/>
      <point x="489" y="400" type="curve"/>
      <point x="436" y="497" type="line"/>
      <point x="439" y="500"/>
      <point x="384" y="439"/>
      <point x="343" y="402" type="curve" smooth="yes"/>
      <point x="303" y="364"/>
      <point x="247" y="319"/>
      <point x="249" y="321" type="curve"/>
    </contour>
    <contour>
      <point x="434" y="31" type="curve"/>
      <point x="488" y="126" type="line"/>
      <point x="491" y="125"/>
      <point x="430" y="165"/>
      <point x="385" y="204" type="curve" smooth="yes"/>
      <point x="342" y="240"/>
      <point x="305" y="272"/>
      <point x="249" y="321" type="curve"/>
      <point x="248" y="215" type="line"/>
      <point x="246" y="216"/>
      <point x="301" y="168"/>
      <point x="341" y="130" type="curve" smooth="yes"/>
      <point x="379" y="93"/>
      <point x="436" y="28"/>
    </contour>
  </outline>
</glyph>
<glyph name="logicalnot" format="2">
  <advance width="537"/>
  <unicode hex="00AC"/>
  <outline>
    <contour>
      <point x="58" y="292" type="line"/>
      <point x="167" y="293"/>
      <point x="193" y="297"/>
      <point x="270" y="296" type="curve" smooth="yes"/>
      <point x="315" y="296"/>
      <point x="376" y="295"/>
      <point x="465" y="291" type="curve"/>
      <point x="474" y="397" type="line"/>
      <point x="375" y="390"/>
      <point x="314" y="394"/>
      <point x="262" y="395" type="curve" smooth="yes"/>
      <point x="177" y="395"/>
      <point x="166" y="393"/>
      <point x="56" y="397" type="curve"/>
    </contour>
    <contour>
      <point x="371" y="153" type="curve"/>
      <point x="476" y="157" type="line"/>
      <point x="476" y="154"/>
      <point x="471" y="221"/>
      <point x="472" y="275" type="curve"/>
      <point x="471" y="333"/>
      <point x="474" y="401"/>
      <point x="474" y="397" type="curve"/>
      <point x="369" y="369" type="line"/>
      <point x="369" y="372"/>
      <point x="373" y="319"/>
      <point x="373" y="267" type="curve" smooth="yes"/>
      <point x="373" y="207"/>
      <point x="371" y="150"/>
    </contour>
  </outline>
</glyph>
<glyph name="degree" format="2">
  <advance width="307"/>
  <unicode hex="00B0"/>
  <outline>
    <contour>
      <point x="156" y="494" type="curve"/>
      <point x="223" y="494"/>
      <point x="270" y="542"/>
      <point x="270" y="609" type="curve" smooth="yes"/>
      <point x="270" y="668"/>
      <point x="223" y="710"/>
      <point x="153" y="710" type="curve"/>
      <point x="82" y="710"/>
      <point x="37" y="664"/>
      <point x="37" y="593" type="curve" smooth="yes"/>
      <point x="37" y="574"/>
      <point x="41" y="494"/>
    </contour>
    <contour>
      <point x="154" y="541" type="curve" smooth="yes"/>
      <point x="101" y="541"/>
      <point x="93" y="574"/>
      <point x="93" y="603" type="curve" smooth="yes"/>
      <point x="93" y="633"/>
      <point x="115" y="663"/>
      <point x="153" y="663" type="curve" smooth="yes"/>
      <point x="181" y="663"/>
      <point x="214" y="648"/>
      <point x="214" y="606" type="curve" smooth="yes"/>
      <point x="214" y="568"/>
      <point x="193" y="541"/>
    </contour>
  </outline>
</glyph>
<glyph name="twosuperior" format="2">
  <advance width="225"/>
  <unicode hex="00B2"/>
  <outline>
    <contour>
      <point x="98" y="592" type="line"/>
      <point x="162" y="625"/>
      <point x="197" y="671"/>
      <point x="197" y="727" type="curve" smooth="yes"/>
      <point x="197" y="774"/>
      <point x="166" y="805"/>
      <point x="111" y="805" type="curve" smooth="yes"/>
      <point x="52" y="805"/>
      <point x="23" y="771"/>
      <point x="23" y="722" type="curve" smooth="yes"/>
      <point x="23" y="714"/>
      <point x="24" y="704"/>
      <point x="26" y="695" type="curve"/>
      <point x="96" y="698" type="line"/>
      <point x="94" y="705"/>
      <point x="92" y="713"/>
      <point x="92" y="721" type="curve" smooth="yes"/>
      <point x="92" y="733"/>
      <point x="96" y="743"/>
      <point x="106" y="743" type="curve" smooth="yes"/>
      <point x="117" y="743"/>
      <point x="122" y="732"/>
      <point x="122" y="717" type="curve" smooth="yes"/>
      <point x="122" y="659"/>
      <point x="79" y="645"/>
      <point x="21" y="612" type="curve"/>
    </contour>
    <contour>
      <point x="20" y="556" type="line"/>
      <point x="68" y="556"/>
      <point x="89" y="555"/>
      <point x="111" y="555" type="curve" smooth="yes"/>
      <point x="139" y="555"/>
      <point x="143" y="555"/>
      <point x="201" y="554" type="curve"/>
      <point x="200" y="614" type="line"/>
      <point x="187" y="613"/>
      <point x="154" y="612"/>
      <point x="116" y="612" type="curve" smooth="yes"/>
      <point x="93" y="612"/>
      <point x="39" y="612"/>
      <point x="21" y="612" type="curve"/>
    </contour>
  </outline>
</glyph>
<glyph name="threesuperior" format="2">
  <advance width="225"/>
  <unicode hex="00B3"/>
  <outline>
    <contour>
      <point x="105" y="560" type="curve" smooth="yes"/>
      <point x="158" y="560"/>
      <point x="196" y="584"/>
      <point x="196" y="626" type="curve" smooth="yes"/>
      <point x="196" y="650"/>
      <point x="182" y="665"/>
      <point x="164" y="668" type="curve"/>
      <point x="184" y="680"/>
      <point x="200" y="702"/>
      <point x="200" y="729" type="curve" smooth="yes"/>
      <point x="200" y="780"/>
      <point x="168" y="806"/>
      <point x="113" y="806" type="curve" smooth="yes"/>
      <point x="65" y="806"/>
      <point x="28" y="777"/>
      <point x="28" y="729" type="curve" smooth="yes"/>
      <point x="28" y="721"/>
      <point x="29" y="713"/>
      <point x="31" y="705" type="curve"/>
      <point x="101" y="709" type="line"/>
      <point x="99" y="714"/>
      <point x="98" y="721"/>
      <point x="98" y="728" type="curve" smooth="yes"/>
      <point x="98" y="739"/>
      <point x="101" y="749"/>
      <point x="111" y="749" type="curve" smooth="yes"/>
      <point x="123" y="749"/>
      <point x="126" y="740"/>
      <point x="126" y="722" type="curve" smooth="yes"/>
      <point x="126" y="694"/>
      <point x="117" y="684"/>
      <point x="98" y="684" type="curve" smooth="yes"/>
      <point x="83" y="684"/>
      <point x="80" y="684"/>
      <point x="74" y="685" type="curve"/>
      <point x="74" y="646" type="line"/>
      <point x="94" y="646"/>
      <point x="90" y="646"/>
      <point x="100" y="646" type="curve" smooth="yes"/>
      <point x="109" y="646"/>
      <point x="116" y="643"/>
      <point x="116" y="630" type="curve" smooth="yes"/>
      <point x="116" y="624"/>
      <point x="116" y="612"/>
      <point x="104" y="612" type="curve" smooth="yes"/>
      <point x="94" y="612"/>
      <point x="94" y="622"/>
      <point x="94" y="629" type="curve"/>
      <point x="24" y="629" type="line"/>
      <point x="25" y="573"/>
      <point x="56" y="560"/>
    </contour>
  </outline>
</glyph>
<glyph name="acute" format="2">
  <advance width="215"/>
  <unicode hex="00B4"/>
  <anchor x="96" y="555" name="_top"/>
  <outline>
    <contour>
      <point x="60" y="593" type="line"/>
      <point x="55" y="589"/>
      <point x="104" y="625"/>
      <point x="126" y="637" type="curve" smooth="yes"/>
      <point x="150" y="650"/>
      <point x="203" y="685"/>
      <point x="200" y="684" type="curve"/>
      <point x="148" y="756" type="line"/>
      <point x="150" y="758"/>
      <point x="107" y="716"/>
      <point x="82" y="698" type="curve" smooth="yes"/>
      <point x="55" y="677"/>
      <point x="13" y="643"/>
      <point x="16" y="645" type="curve"/>
    </contour>
  </outline>
</glyph>
<glyph name="cedilla" format="2">
  <advance width="301"/>
  <unicode hex="00B8"/>
  <anchor x="152" y="0" name="_bottom"/>
  <outline>
    <contour>
      <point x="119" y="-172" type="curve" smooth="yes"/>
      <point x="179" y="-172"/>
      <point x="240" y="-154"/>
      <point x="240" y="-98" type="curve" smooth="yes"/>
      <point x="240" y="-52"/>
      <point x="197" y="-31"/>
      <point x="116" y="-32" type="curve"/>
      <point x="99" y="-82" type="line"/>
      <point x="147" y="-80"/>
      <point x="173" y="-88"/>
      <point x="173" y="-99" type="curve" smooth="yes"/>
      <point x="173" y="-104"/>
      <point x="160" y="-110"/>
      <point x="138" y="-110" type="curve" smooth="yes"/>
      <point x="114" y="-110"/>
      <point x="80" y="-108"/>
      <point x="73" y="-106" type="curve"/>
      <point x="60" y="-167" type="line"/>
      <point x="79" y="-169"/>
      <point x="98" y="-172"/>
    </contour>
    <contour>
      <point x="173" y="0" type="line"/>
      <point x="118" y="0" type="line"/>
      <point x="99" y="-82" type="line"/>
      <point x="154" y="-82" type="line"/>
    </contour>
  </outline>
</glyph>
<glyph name="onesuperior" format="2">
  <advance width="225"/>
  <unicode hex="00B9"/>
  <outline>
    <contour>
      <point x="85" y="567" type="curve"/>
      <point x="173" y="567" type="line"/>
      <point x="170" y="662"/>
      <point x="170" y="717"/>
      <point x="174" y="801" type="curve"/>
      <point x="121" y="801" type="line"/>
      <point x="88" y="736" type="line"/>
      <point x="90" y="671"/>
      <point x="89" y="623"/>
    </contour>
    <contour>
      <point x="36" y="700" type="line"/>
      <point x="65" y="696"/>
      <point x="112" y="704"/>
      <point x="146" y="720" type="curve"/>
      <point x="121" y="801" type="line"/>
      <point x="101" y="773"/>
      <point x="51" y="751"/>
      <point x="30" y="754" type="curve"/>
    </contour>
  </outline>
</glyph>
<glyph name="ordmasculine" format="2">
  <advance width="312"/>
  <unicode hex="00BA"/>
  <outline>
    <contour>
      <point x="154" y="469" type="curve" smooth="yes"/>
      <point x="225" y="469"/>
      <point x="263" y="510"/>
      <point x="263" y="590" type="curve" smooth="yes"/>
      <point x="263" y="667"/>
      <point x="228" y="703"/>
      <point x="159" y="703" type="curve" smooth="yes"/>
      <point x="87" y="703"/>
      <point x="49" y="660"/>
      <point x="49" y="590" type="curve" smooth="yes"/>
      <point x="49" y="513"/>
      <point x="84" y="469"/>
    </contour>
    <contour>
      <point x="155" y="528" type="curve" smooth="yes"/>
      <point x="132" y="528"/>
      <point x="127" y="555"/>
      <point x="127" y="589" type="curve" smooth="yes"/>
      <point x="127" y="629"/>
      <point x="137" y="647"/>
      <point x="158" y="647" type="curve" smooth="yes"/>
      <point x="177" y="647"/>
      <point x="185" y="629"/>
      <point x="185" y="593" type="curve" smooth="yes"/>
      <point x="185" y="541"/>
      <point x="173" y="528"/>
    </contour>
  </outline>
</glyph>
<glyph name="guillemetright" format="2">
  <advance width="542"/>
  <unicode hex="00BB"/>
  <outline>
    <contour>
      <point x="488" y="207" type="curve"/>
      <point x="490" y="313" type="line"/>
      <point x="459" y="341"/>
      <point x="428" y="370"/>
      <point x="397" y="398" type="curve"/>
      <point x="366" y="431"/>
      <point x="335" y="464"/>
      <point x="304" y="497" type="curve"/>
      <point x="249" y="402" type="line"/>
      <point x="284" y="376"/>
      <point x="318" y="350"/>
      <point x="353" y="324" type="curve"/>
      <point x="398" y="285"/>
      <point x="443" y="246"/>
    </contour>
    <contour>
      <point x="288" y="207" type="curve"/>
      <point x="290" y="313" type="line"/>
      <point x="259" y="341"/>
      <point x="228" y="370"/>
      <point x="197" y="398" type="curve"/>
      <point x="166" y="431"/>
      <point x="135" y="464"/>
      <point x="104" y="497" type="curve"/>
      <point x="49" y="402" type="line"/>
      <point x="84" y="376"/>
      <point x="118" y="350"/>
      <point x="153" y="324" type="curve"/>
      <point x="198" y="285"/>
      <point x="243" y="246"/>
    </contour>
    <contour>
      <point x="302" y="31" type="line"/>
      <point x="333" y="63"/>
      <point x="363" y="94"/>
      <point x="394" y="126" type="curve"/>
      <point x="425" y="153"/>
      <point x="457" y="180"/>
      <point x="488" y="207" type="curve"/>
      <point x="490" y="313" type="line"/>
      <point x="443" y="276"/>
      <point x="397" y="239"/>
      <point x="350" y="202" type="curve"/>
      <point x="316" y="177"/>
      <point x="283" y="153"/>
      <point x="249" y="128" type="curve"/>
    </contour>
    <contour>
      <point x="102" y="31" type="line"/>
      <point x="133" y="63"/>
      <point x="163" y="94"/>
      <point x="194" y="126" type="curve"/>
      <point x="225" y="153"/>
      <point x="257" y="180"/>
      <point x="288" y="207" type="curve"/>
      <point x="290" y="313" type="line"/>
      <point x="243" y="276"/>
      <point x="197" y="239"/>
      <point x="150" y="202" type="curve"/>
      <point x="116" y="177"/>
      <point x="83" y="153"/>
      <point x="49" y="128" type="curve"/>
    </contour>
  </outline>
</glyph>
<glyph name="onequarter" format="2">
  <advance width="536"/>
  <unicode hex="00BC"/>
  <outline>
    <contour>
      <point x="52" y="-1" type="curve"/>
      <point x="167" y="0" type="line"/>
      <point x="204" y="87"/>
      <point x="269" y="239"/>
      <point x="314" y="340" type="curve" smooth="yes"/>
      <point x="361" y="445"/>
      <point x="434" y="604"/>
      <point x="476" y="695" type="curve"/>
      <point x="360" y="697" type="line"/>
      <point x="324" y="606"/>
      <point x="258" y="446"/>
      <point x="210" y="339" type="curve" smooth="yes"/>
      <point x="164" y="237"/>
      <point x="93" y="85"/>
    </contour>
    <contour>
      <point x="108" y="461" type="curve"/>
      <point x="196" y="461" type="line"/>
      <point x="193" y="556"/>
      <point x="193" y="611"/>
      <point x="197" y="695" type="curve"/>
      <point x="144" y="695" type="line"/>
      <point x="124" y="667"/>
      <point x="74" y="645"/>
      <point x="53" y="648" type="curve"/>
      <point x="59" y="594" type="line"/>
      <point x="74" y="592"/>
      <point x="93" y="593"/>
      <point x="113" y="597" type="curve"/>
      <point x="114" y="548"/>
      <point x="112" y="507"/>
    </contour>
    <contour>
      <point x="377" y="-1" type="line"/>
      <point x="453" y="0" type="line"/>
      <point x="453" y="40" type="line"/>
      <point x="475" y="40" type="line"/>
      <point x="475" y="100" type="line"/>
      <point x="452" y="99" type="line"/>
      <point x="452" y="138" type="line" smooth="yes"/>
      <point x="452" y="170"/>
      <point x="453" y="203"/>
      <point x="453" y="235" type="curve"/>
      <point x="334" y="236" type="line"/>
      <point x="325" y="214"/>
      <point x="316" y="191"/>
      <point x="307" y="169" type="curve" smooth="yes"/>
      <point x="277" y="98" type="line"/>
      <point x="282" y="39" type="line"/>
      <point x="377" y="40" type="line"/>
    </contour>
    <contour>
      <point x="347" y="97" type="line"/>
      <point x="378" y="183" type="line"/>
      <point x="378" y="97" type="line"/>
    </contour>
  </outline>
</glyph>
<glyph name="onehalf" format="2">
  <advance width="536"/>
  <unicode hex="00BD"/>
  <outline>
    <contour>
      <point x="51" y="-1" type="curve"/>
      <point x="166" y="0" type="line"/>
      <point x="203" y="87"/>
      <point x="268" y="239"/>
      <point x="313" y="340" type="curve" smooth="yes"/>
      <point x="360" y="445"/>
      <point x="433" y="604"/>
      <point x="475" y="695" type="curve"/>
      <point x="359" y="697" type="line"/>
      <point x="323" y="606"/>
      <point x="257" y="446"/>
      <point x="209" y="339" type="curve" smooth="yes"/>
      <point x="163" y="237"/>
      <point x="92" y="85"/>
    </contour>
    <contour>
      <point x="299" y="2" type="line"/>
      <point x="347" y="2"/>
      <point x="368" y="1"/>
      <point x="390" y="1" type="curve" smooth="yes"/>
      <point x="480" y="0" type="line"/>
      <point x="479" y="60" type="line"/>
      <point x="468" y="59"/>
      <point x="442" y="58"/>
      <point x="410" y="58" type="curve"/>
      <point x="453" y="89"/>
      <point x="476" y="128"/>
      <point x="476" y="173" type="curve" smooth="yes"/>
      <point x="476" y="220"/>
      <point x="445" y="251"/>
      <point x="390" y="251" type="curve" smooth="yes"/>
      <point x="331" y="251"/>
      <point x="302" y="217"/>
      <point x="302" y="168" type="curve" smooth="yes"/>
      <point x="302" y="160"/>
      <point x="303" y="150"/>
      <point x="305" y="141" type="curve"/>
      <point x="375" y="144" type="line"/>
      <point x="373" y="151"/>
      <point x="371" y="159"/>
      <point x="371" y="167" type="curve" smooth="yes"/>
      <point x="371" y="179"/>
      <point x="375" y="189"/>
      <point x="385" y="189" type="curve" smooth="yes"/>
      <point x="396" y="189"/>
      <point x="401" y="178"/>
      <point x="401" y="163" type="curve" smooth="yes"/>
      <point x="401" y="105"/>
      <point x="358" y="91"/>
      <point x="300" y="58" type="curve"/>
    </contour>
    <contour>
      <point x="107" y="461" type="curve"/>
      <point x="195" y="461" type="line"/>
      <point x="192" y="556"/>
      <point x="192" y="611"/>
      <point x="196" y="695" type="curve"/>
      <point x="143" y="695" type="line"/>
      <point x="123" y="667"/>
      <point x="73" y="645"/>
      <point x="52" y="648" type="curve"/>
      <point x="58" y="594" type="line"/>
      <point x="72" y="592"/>
      <point x="91" y="593"/>
      <point x="111" y="596" type="curve"/>
      <point x="113" y="547"/>
      <point x="111" y="507"/>
    </contour>
  </outline>
</glyph>
<glyph name="threequarters" format="2">
  <advance width="536"/>
  <unicode hex="00BE"/>
  <outline>
    <contour>
      <point x="52" y="-1" type="curve"/>
      <point x="167" y="0" type="line"/>
      <point x="204" y="87"/>
      <point x="269" y="239"/>
      <point x="314" y="340" type="curve" smooth="yes"/>
      <point x="361" y="445"/>
      <point x="434" y="604"/>
      <point x="476" y="695" type="curve"/>
      <point x="360" y="697" type="line"/>
      <point x="324" y="606"/>
      <point x="258" y="446"/>
      <point x="210" y="339" type="curve" smooth="yes"/>
      <point x="164" y="237"/>
      <point x="93" y="85"/>
    </contour>
    <contour>
      <point x="135" y="454" type="curve" smooth="yes"/>
      <point x="188" y="454"/>
      <point x="226" y="478"/>
      <point x="226" y="520" type="curve" smooth="yes"/>
      <point x="226" y="544"/>
      <point x="212" y="559"/>
      <point x="194" y="562" type="curve"/>
      <point x="214" y="574"/>
      <point x="230" y="596"/>
      <point x="230" y="623" type="curve" smooth="yes"/>
      <point x="230" y="674"/>
      <point x="198" y="700"/>
      <point x="143" y="700" type="curve" smooth="yes"/>
      <point x="95" y="700"/>
      <point x="58" y="671"/>
      <point x="58" y="623" type="curve" smooth="yes"/>
      <point x="58" y="615"/>
      <point x="59" y="607"/>
      <point x="61" y="599" type="curve"/>
      <point x="131" y="603" type="line"/>
      <point x="129" y="608"/>
      <point x="128" y="615"/>
      <point x="128" y="622" type="curve" smooth="yes"/>
      <point x="128" y="633"/>
      <point x="131" y="643"/>
      <point x="141" y="643" type="curve" smooth="yes"/>
      <point x="153" y="643"/>
      <point x="156" y="634"/>
      <point x="156" y="616" type="curve" smooth="yes"/>
      <point x="156" y="588"/>
      <point x="147" y="578"/>
      <point x="128" y="578" type="curve" smooth="yes"/>
      <point x="113" y="578"/>
      <point x="110" y="578"/>
      <point x="104" y="579" type="curve"/>
      <point x="104" y="540" type="line"/>
      <point x="124" y="540"/>
      <point x="120" y="540"/>
      <point x="130" y="540" type="curve" smooth="yes"/>
      <point x="139" y="540"/>
      <point x="146" y="537"/>
      <point x="146" y="524" type="curve" smooth="yes"/>
      <point x="146" y="518"/>
      <point x="146" y="506"/>
      <point x="134" y="506" type="curve" smooth="yes"/>
      <point x="124" y="506"/>
      <point x="124" y="516"/>
      <point x="124" y="523" type="curve"/>
      <point x="54" y="523" type="line"/>
      <point x="55" y="467"/>
      <point x="86" y="454"/>
    </contour>
    <contour>
      <point x="377" y="-1" type="line"/>
      <point x="453" y="0" type="line"/>
      <point x="453" y="40" type="line"/>
      <point x="475" y="40" type="line"/>
      <point x="475" y="100" type="line"/>
      <point x="452" y="99" type="line"/>
      <point x="452" y="138" type="line" smooth="yes"/>
      <point x="452" y="170"/>
      <point x="453" y="203"/>
      <point x="453" y="235" type="curve"/>
      <point x="334" y="236" type="line"/>
      <point x="325" y="214"/>
      <point x="316" y="191"/>
      <point x="307" y="169" type="curve" smooth="yes"/>
      <point x="277" y="98" type="line"/>
      <point x="282" y="39" type="line"/>
      <point x="377" y="40" type="line"/>
    </contour>
    <contour>
      <point x="347" y="97" type="line"/>
      <point x="378" y="183" type="line"/>
      <point x="378" y="97" type="line"/>
    </contour>
  </outline>
</glyph>
<glyph name="questiondown" format="2">
  <advance width="395"/>
  <unicode hex="00BF"/>
  <outline>
    <contour>
      <point x="147" y="339" type="line"/>
      <point x="153" y="306"/>
      <point x="159" y="282"/>
      <point x="159" y="266" type="curve" smooth="yes"/>
      <point x="159" y="246"/>
      <point x="154" y="228"/>
      <point x="122" y="190" type="curve" smooth="yes"/>
      <point x="88" y="149"/>
      <point x="46" y="113"/>
      <point x="46" y="-6" type="curve" smooth="yes"/>
      <point x="46" y="-104"/>
      <point x="104" y="-162"/>
      <point x="189" y="-162" type="curve" smooth="yes"/>
      <point x="311" y="-162"/>
      <point x="350" y="-69"/>
      <point x="350" y="17" type="curve" smooth="yes"/>
      <point x="350" y="48"/>
      <point x="345" y="82"/>
      <point x="334" y="120" type="curve"/>
      <point x="231" y="122" type="line"/>
      <point x="240" y="79"/>
      <point x="247" y="39"/>
      <point x="247" y="9" type="curve" smooth="yes"/>
      <point x="247" y="-27"/>
      <point x="236" y="-62"/>
      <point x="195" y="-62" type="curve" smooth="yes"/>
      <point x="174" y="-62"/>
      <point x="149" y="-44"/>
      <point x="149" y="-3" type="curve" smooth="yes"/>
      <point x="149" y="79"/>
      <point x="181" y="101"/>
      <point x="213" y="142" type="curve" smooth="yes"/>
      <point x="251" y="190"/>
      <point x="262" y="227"/>
      <point x="262" y="267" type="curve" smooth="yes"/>
      <point x="262" y="286"/>
      <point x="259" y="306"/>
      <point x="251" y="338" type="curve"/>
    </contour>
    <contour>
      <point x="256" y="557" type="line"/>
      <point x="135" y="552" type="line"/>
      <point x="139" y="390" type="line"/>
      <point x="248" y="387" type="line"/>
    </contour>
  </outline>
</glyph>
<glyph name="AE" format="2">
  <advance width="500"/>
  <unicode hex="00C6"/>
  <anchor x="353" y="693" name="top"/>
  <outline>
    <contour>
      <point x="-13" y="1" type="curve"/>
      <point x="101" y="0" type="line"/>
      <point x="107" y="24"/>
      <point x="114" y="59"/>
      <point x="135" y="126" type="curve"/>
      <point x="272" y="132" type="line"/>
      <point x="270" y="-6" type="line"/>
      <point x="514" y="-1" type="line"/>
      <point x="508" y="75" type="line"/>
      <point x="379" y="79" type="line"/>
      <point x="379" y="189" type="line"/>
      <point x="509" y="192" type="line"/>
      <point x="511" y="282" type="line"/>
      <point x="377" y="283" type="line"/>
      <point x="378" y="341" type="line" smooth="yes"/>
      <point x="379" y="413"/>
      <point x="379" y="530"/>
      <point x="380" y="609" type="curve"/>
      <point x="502" y="610" type="line"/>
      <point x="503" y="694" type="line"/>
      <point x="207" y="702" type="line"/>
      <point x="190" y="641"/>
      <point x="150" y="506"/>
      <point x="103" y="356" type="curve" smooth="yes"/>
      <point x="62" y="228"/>
      <point x="13" y="78"/>
    </contour>
    <contour>
      <point x="273" y="222" type="line"/>
      <point x="163" y="224" type="line"/>
      <point x="175" y="266"/>
      <point x="189" y="310"/>
      <point x="202" y="349" type="curve" smooth="yes"/>
      <point x="234" y="447"/>
      <point x="252" y="521"/>
      <point x="270" y="582" type="curve"/>
      <point x="272" y="515"/>
      <point x="275" y="428"/>
      <point x="274" y="342" type="curve" smooth="yes"/>
    </contour>
  </outline>
</glyph>
<glyph name="Eth" format="2">
  <advance width="346"/>
  <unicode hex="00D0"/>
  <outline>
    <contour>
      <point x="2" y="296" type="line"/>
      <point x="22" y="297"/>
      <point x="68" y="298"/>
      <point x="120" y="298" type="curve"/>
      <point x="151" y="298"/>
      <point x="180" y="297"/>
      <point x="193" y="296" type="curve"/>
      <point x="191" y="394" type="line"/>
      <point x="183" y="392"/>
      <point x="159" y="390"/>
      <point x="125" y="391" type="curve"/>
      <point x="107" y="392"/>
      <point x="46" y="393"/>
      <point x="6" y="394" type="curve"/>
    </contour>
    <component base="D"/>
  </outline>
</glyph>
<glyph name="multiply" format="2">
  <advance width="400"/>
  <unicode hex="00D7"/>
  <outline>
    <contour>
      <point x="339" y="217" type="line"/>
      <point x="304" y="248"/>
      <point x="274" y="279"/>
      <point x="230" y="331" type="curve" smooth="yes"/>
      <point x="186" y="384"/>
      <point x="166" y="412"/>
      <point x="136" y="455" type="curve"/>
      <point x="54" y="382" type="line"/>
      <point x="84" y="347"/>
      <point x="113" y="321"/>
      <point x="157" y="268" type="curve" smooth="yes"/>
      <point x="198" y="220"/>
      <point x="221" y="187"/>
      <point x="258" y="140" type="curve"/>
    </contour>
    <contour>
      <point x="129" y="142" type="line"/>
      <point x="158" y="178"/>
      <point x="212" y="240"/>
      <point x="236" y="263" type="curve" smooth="yes"/>
      <point x="280" y="305"/>
      <point x="348" y="368"/>
      <point x="346" y="366" type="curve"/>
      <point x="270" y="441" type="line"/>
      <point x="244" y="408"/>
      <point x="217" y="376"/>
      <point x="175" y="334" type="curve" smooth="yes"/>
      <point x="136" y="292"/>
      <point x="85" y="243"/>
      <point x="56" y="219" type="curve"/>
    </contour>
  </outline>
</glyph>
<glyph name="Oslash" format="2">
  <advance width="353"/>
  <unicode hex="00D8"/>
  <anchor x="177" y="0" name="bottom"/>
  <anchor x="177" y="693" name="top"/>
  <outline>
    <contour>
      <point x="170" y="-5" type="curve"/>
      <point x="238" y="-5"/>
      <point x="275" y="35"/>
      <point x="295" y="101" type="curve" smooth="yes"/>
      <point x="314" y="166"/>
      <point x="317" y="256"/>
      <point x="317" y="356" type="curve" smooth="yes"/>
      <point x="317" y="433"/>
      <point x="317" y="501"/>
      <point x="309" y="556" type="curve" smooth="yes"/>
      <point x="296" y="649"/>
      <point x="264" y="706"/>
      <point x="179" y="706" type="curve" smooth="yes"/>
      <point x="97" y="706"/>
      <point x="62" y="646"/>
      <point x="47" y="561" type="curve" smooth="yes"/>
      <point x="37" y="502"/>
      <point x="36" y="430"/>
      <point x="36" y="357" type="curve" smooth="yes"/>
      <point x="36" y="279"/>
      <point x="36" y="207"/>
      <point x="43" y="148" type="curve" smooth="yes"/>
      <point x="55" y="55"/>
      <point x="86" y="-5"/>
    </contour>
    <contour>
      <point x="178" y="96" type="curve"/>
      <point x="160" y="96"/>
      <point x="155" y="112"/>
      <point x="152" y="163" type="curve" smooth="yes"/>
      <point x="147" y="245"/>
      <point x="148" y="296"/>
      <point x="148" y="346" type="curve" smooth="yes"/>
      <point x="148" y="394"/>
      <point x="149" y="510"/>
      <point x="155" y="564" type="curve" smooth="yes"/>
      <point x="158" y="589"/>
      <point x="163" y="606"/>
      <point x="179" y="606" type="curve" smooth="yes"/>
      <point x="197" y="606"/>
      <point x="201" y="587"/>
      <point x="203" y="544" type="curve" smooth="yes"/>
      <point x="205" y="511"/>
      <point x="206" y="445"/>
      <point x="206" y="359" type="curve" smooth="yes"/>
      <point x="206" y="297"/>
      <point x="203" y="221"/>
      <point x="201" y="174" type="curve" smooth="yes"/>
      <point x="198" y="116"/>
      <point x="196" y="96"/>
    </contour>
    <contour>
      <point x="116" y="-52" type="line"/>
      <point x="116" y="-52"/>
      <point x="177" y="195"/>
      <point x="211" y="317" type="curve" smooth="yes"/>
      <point x="246" y="439"/>
      <point x="349" y="728"/>
      <point x="349" y="728" type="curve"/>
      <point x="268" y="745" type="line"/>
      <point x="268" y="745"/>
      <point x="207" y="514"/>
      <point x="156" y="335" type="curve" smooth="yes"/>
      <point x="106" y="156"/>
      <point x="36" y="-38"/>
      <point x="36" y="-38" type="curve"/>
    </contour>
  </outline>
</glyph>
<glyph name="Thorn" format="2">
  <advance width="313"/>
  <unicode hex="00DE"/>
  <outline>
    <contour>
      <point x="119" y="111" type="line"/>
      <point x="247" y="111"/>
      <point x="326" y="182"/>
      <point x="326" y="365" type="curve" smooth="yes"/>
      <point x="326" y="524"/>
      <point x="289" y="594"/>
      <point x="125" y="594" type="curve" smooth="yes"/>
      <point x="117" y="594"/>
      <point x="108" y="595"/>
      <point x="97" y="594" type="curve"/>
      <point x="97" y="497" type="line"/>
      <point x="116" y="501"/>
      <point x="133" y="504"/>
      <point x="165" y="504" type="curve" smooth="yes"/>
      <point x="198" y="504"/>
      <point x="217" y="487"/>
      <point x="217" y="362" type="curve" smooth="yes"/>
      <point x="217" y="209"/>
      <point x="200" y="188"/>
      <point x="115" y="188" type="curve"/>
    </contour>
    <contour>
      <point x="40" y="-6" type="curve"/>
      <point x="150" y="5" type="line"/>
      <point x="149" y="103"/>
      <point x="147" y="265"/>
      <point x="147" y="350" type="curve"/>
      <point x="147" y="448"/>
      <point x="149" y="618"/>
      <point x="149" y="702" type="curve"/>
      <point x="36" y="693" type="line"/>
      <point x="39" y="620"/>
      <point x="44" y="477"/>
      <point x="44" y="352" type="curve"/>
      <point x="44" y="228"/>
      <point x="42" y="75"/>
    </contour>
  </outline>
</glyph>
<glyph name="germandbls" format="2">
  <advance width="384"/>
  <unicode hex="00DF"/>
  <outline>
    <contour>
      <point x="21" y="-2" type="curve"/>
      <point x="140" y="1" type="line"/>
      <point x="137" y="46"/>
      <point x="133" y="123"/>
      <point x="133" y="271" type="curve" smooth="yes"/>
      <point x="133" y="373"/>
      <point x="131" y="515"/>
      <point x="135" y="553" type="curve" smooth="yes"/>
      <point x="139" y="593"/>
      <point x="159" y="614"/>
      <point x="190" y="614" type="curve" smooth="yes"/>
      <point x="223" y="614"/>
      <point x="237" y="593"/>
      <point x="237" y="561" type="curve" smooth="yes"/>
      <point x="237" y="505"/>
      <point x="156" y="448"/>
      <point x="156" y="370" type="curve" smooth="yes"/>
      <point x="156" y="309"/>
      <point x="180" y="294"/>
      <point x="227" y="244" type="curve" smooth="yes"/>
      <point x="258" y="211"/>
      <point x="282" y="203"/>
      <point x="282" y="148" type="curve" smooth="yes"/>
      <point x="282" y="104"/>
      <point x="250" y="80"/>
      <point x="172" y="85" type="curve"/>
      <point x="164" y="-1" type="line"/>
      <point x="309" y="-8"/>
      <point x="388" y="49"/>
      <point x="388" y="156" type="curve" smooth="yes"/>
      <point x="388" y="222"/>
      <point x="354" y="259"/>
      <point x="322" y="289" type="curve" smooth="yes"/>
      <point x="291" y="317"/>
      <point x="261" y="339"/>
      <point x="261" y="373" type="curve" smooth="yes"/>
      <point x="261" y="433"/>
      <point x="341" y="470"/>
      <point x="341" y="574" type="curve" smooth="yes"/>
      <point x="341" y="656"/>
      <point x="276" y="701"/>
      <point x="198" y="701" type="curve" smooth="yes"/>
      <point x="99" y="701"/>
      <point x="38" y="646"/>
      <point x="32" y="548" type="curve" smooth="yes"/>
      <point x="30" y="522"/>
      <point x="30" y="329"/>
      <point x="30" y="270" type="curve" smooth="yes"/>
      <point x="30" y="119"/>
      <point x="26" y="42"/>
    </contour>
  </outline>
</glyph>
<glyph name="ae" format="2">
  <advance width="439"/>
  <unicode hex="00E6"/>
  <anchor x="220" y="555" name="top"/>
  <outline>
    <contour>
      <point x="93" y="-9" type="curve" smooth="yes"/>
      <point x="135" y="-9"/>
      <point x="164" y="11"/>
      <point x="185" y="46" type="curve"/>
      <point x="204" y="7"/>
      <point x="238" y="-9"/>
      <point x="290" y="-9" type="curve" smooth="yes"/>
      <point x="383" y="-9"/>
      <point x="417" y="59"/>
      <point x="417" y="148" type="curve" smooth="yes"/>
      <point x="417" y="161"/>
      <point x="416" y="174"/>
      <point x="415" y="188" type="curve"/>
      <point x="311" y="188" type="line"/>
      <point x="312" y="173"/>
      <point x="313" y="155"/>
      <point x="313" y="138" type="curve" smooth="yes"/>
      <point x="313" y="103"/>
      <point x="310" y="71"/>
      <point x="290" y="71" type="curve" smooth="yes"/>
      <point x="270" y="71"/>
      <point x="270" y="94"/>
      <point x="269" y="119" type="curve" smooth="yes"/>
      <point x="268" y="140"/>
      <point x="269" y="201"/>
      <point x="270" y="249" type="curve"/>
      <point x="323" y="251"/>
      <point x="382" y="253"/>
      <point x="413" y="253" type="curve"/>
      <point x="418" y="295"/>
      <point x="422" y="343"/>
      <point x="422" y="388" type="curve" smooth="yes"/>
      <point x="422" y="483"/>
      <point x="401" y="567"/>
      <point x="303" y="567" type="curve" smooth="yes"/>
      <point x="270" y="567"/>
      <point x="242" y="556"/>
      <point x="220" y="521" type="curve"/>
      <point x="202" y="552"/>
      <point x="176" y="565"/>
      <point x="142" y="565" type="curve" smooth="yes"/>
      <point x="61" y="565"/>
      <point x="17" y="508"/>
      <point x="17" y="423" type="curve" smooth="yes"/>
      <point x="17" y="407"/>
      <point x="19" y="385"/>
      <point x="21" y="368" type="curve"/>
      <point x="119" y="371" type="line"/>
      <point x="117" y="392"/>
      <point x="115" y="412"/>
      <point x="115" y="429" type="curve" smooth="yes"/>
      <point x="115" y="460"/>
      <point x="119" y="477"/>
      <point x="139" y="477" type="curve" smooth="yes"/>
      <point x="159" y="477"/>
      <point x="163" y="459"/>
      <point x="163" y="441" type="curve" smooth="yes"/>
      <point x="163" y="378"/>
      <point x="146" y="355"/>
      <point x="105" y="309" type="curve" smooth="yes"/>
      <point x="64" y="263"/>
      <point x="14" y="211"/>
      <point x="14" y="114" type="curve" smooth="yes"/>
      <point x="14" y="38"/>
      <point x="40" y="-9"/>
    </contour>
    <contour>
      <point x="134" y="81" type="curve" smooth="yes"/>
      <point x="116" y="81"/>
      <point x="112" y="101"/>
      <point x="112" y="126" type="curve" smooth="yes"/>
      <point x="112" y="181"/>
      <point x="121" y="212"/>
      <point x="149" y="257" type="curve" smooth="yes"/>
      <point x="154" y="265"/>
      <point x="158" y="274"/>
      <point x="163" y="282" type="curve"/>
      <point x="163" y="263"/>
      <point x="164" y="245"/>
      <point x="164" y="226" type="curve" smooth="yes"/>
      <point x="164" y="109"/>
      <point x="153" y="81"/>
    </contour>
    <contour>
      <point x="270" y="329" type="line"/>
      <point x="270" y="363"/>
      <point x="271" y="392"/>
      <point x="272" y="420" type="curve" smooth="yes"/>
      <point x="274" y="479"/>
      <point x="278" y="489"/>
      <point x="295" y="489" type="curve" smooth="yes"/>
      <point x="313" y="489"/>
      <point x="316" y="461"/>
      <point x="316" y="417" type="curve" smooth="yes"/>
      <point x="316" y="392"/>
      <point x="315" y="362"/>
      <point x="314" y="329" type="curve"/>
    </contour>
  </outline>
</glyph>
<glyph name="eth" format="2">
  <advance width="330"/>
  <unicode hex="00F0"/>
  <outline>
    <contour>
      <point x="155" y="-10" type="curve" smooth="yes"/>
      <point x="270" y="-10"/>
      <point x="307" y="66"/>
      <point x="307" y="322" type="curve" smooth="yes"/>
      <point x="307" y="626"/>
      <point x="193" y="680"/>
      <point x="111" y="717" type="curve"/>
      <point x="60" y="632" type="line"/>
      <point x="146" y="606"/>
      <point x="200" y="516"/>
      <point x="200" y="371" type="curve" smooth="yes"/>
      <point x="200" y="266"/>
      <point x="200" y="244"/>
      <point x="200" y="231" type="curve" smooth="yes"/>
      <point x="200" y="108"/>
      <point x="194" y="68"/>
      <point x="159" y="68" type="curve" smooth="yes"/>
      <point x="131" y="68"/>
      <point x="123" y="98"/>
      <point x="123" y="212" type="curve" smooth="yes"/>
      <point x="123" y="318"/>
      <point x="137" y="346"/>
      <point x="167" y="346" type="curve" smooth="yes"/>
      <point x="202" y="346"/>
      <point x="200" y="289"/>
      <point x="200" y="231" type="curve"/>
      <point x="263" y="346" type="line"/>
      <point x="235" y="400"/>
      <point x="203" y="427"/>
      <point x="158" y="427" type="curve" smooth="yes"/>
      <point x="73" y="427"/>
      <point x="18" y="368"/>
      <point x="18" y="204" type="curve" smooth="yes"/>
      <point x="18" y="54"/>
      <point x="60" y="-10"/>
    </contour>
    <contour>
      <point x="127" y="473" type="line"/>
      <point x="125" y="471"/>
      <point x="170" y="498"/>
      <point x="225" y="531" type="curve" smooth="yes"/>
      <point x="265" y="555"/>
      <point x="334" y="592"/>
      <point x="331" y="590" type="curve"/>
      <point x="279" y="677" type="line" smooth="yes"/>
      <point x="277" y="680"/>
      <point x="214" y="636"/>
      <point x="176" y="614" type="curve" smooth="yes"/>
      <point x="111" y="576"/>
      <point x="72" y="557"/>
      <point x="74" y="559" type="curve"/>
    </contour>
  </outline>
</glyph>
<glyph name="thorn" format="2">
  <advance width="318"/>
  <unicode hex="00FE"/>
  <outline>
    <contour>
      <point x="25" y="-166" type="curve"/>
      <point x="145" y="-160" type="line"/>
      <point x="141" y="12" type="line"/>
      <point x="151" y="1"/>
      <point x="164" y="-8"/>
      <point x="188" y="-8" type="curve" smooth="yes"/>
      <point x="240" y="-8"/>
      <point x="267" y="36"/>
      <point x="281" y="111" type="curve" smooth="yes"/>
      <point x="289" y="154"/>
      <point x="292" y="209"/>
      <point x="292" y="271" type="curve" smooth="yes"/>
      <point x="292" y="332"/>
      <point x="293" y="390"/>
      <point x="289" y="438" type="curve" smooth="yes"/>
      <point x="283" y="513"/>
      <point x="264" y="565"/>
      <point x="209" y="565" type="curve" smooth="yes"/>
      <point x="187" y="565"/>
      <point x="157" y="552"/>
      <point x="139" y="515" type="curve"/>
      <point x="139" y="573"/>
      <point x="140" y="632"/>
      <point x="140" y="690" type="curve"/>
      <point x="31" y="685" type="line"/>
      <point x="31" y="613"/>
      <point x="34" y="328"/>
      <point x="34" y="204" type="curve" smooth="yes"/>
      <point x="34" y="100"/>
      <point x="29" y="-68"/>
    </contour>
    <contour>
      <point x="138" y="193" type="curve" smooth="yes"/>
      <point x="138" y="346" type="line" smooth="yes"/>
      <point x="138" y="436"/>
      <point x="140" y="477"/>
      <point x="163" y="477" type="curve" smooth="yes"/>
      <point x="179" y="477"/>
      <point x="181" y="463"/>
      <point x="183" y="401" type="curve" smooth="yes"/>
      <point x="184" y="369"/>
      <point x="183" y="324"/>
      <point x="183" y="262" type="curve" smooth="yes"/>
      <point x="183" y="218"/>
      <point x="185" y="164"/>
      <point x="183" y="124" type="curve" smooth="yes"/>
      <point x="181" y="90"/>
      <point x="174" y="65"/>
      <point x="160" y="65" type="curve" smooth="yes"/>
      <point x="135" y="65"/>
      <point x="138" y="107"/>
    </contour>
  </outline>
</glyph>
<glyph name="Hbar" format="2">
  <advance width="364"/>
  <unicode hex="0126"/>
  <anchor x="181" y="459" name="_center"/>
  <outline>
    <contour>
      <point x="-5" y="413" type="line"/>
      <point x="-5" y="413"/>
      <point x="43" y="415"/>
      <point x="179" y="415" type="curve"/>
      <point x="222" y="415"/>
      <point x="370" y="414"/>
      <point x="370" y="414" type="curve"/>
      <point x="371" y="496" type="line"/>
      <point x="371" y="496"/>
      <point x="231" y="493"/>
      <point x="184" y="494" type="curve"/>
      <point x="116" y="495"/>
      <point x="-4" y="496"/>
      <point x="-4" y="496" type="curve"/>
    </contour>
    <component base="H"/>
  </outline>
</glyph>
<glyph name="idotless" format="2">
  <advance width="172"/>
  <unicode hex="0131"/>
  <anchor x="86" y="0" name="bottom"/>
  <anchor x="85" y="555" name="top"/>
  <outline>
    <contour>
      <point x="144" y="0" type="line"/>
      <point x="140" y="91"/>
      <point x="138" y="192"/>
      <point x="138" y="285" type="curve" smooth="yes"/>
      <point x="138" y="404"/>
      <point x="140" y="513"/>
      <point x="142" y="554" type="curve"/>
      <point x="26" y="555" type="line"/>
      <point x="28" y="507"/>
      <point x="34" y="405"/>
      <point x="34" y="286" type="curve" smooth="yes"/>
      <point x="34" y="183"/>
      <point x="31" y="81"/>
      <point x="26" y="2" type="curve"/>
    </contour>
  </outline>
</glyph>
<glyph name="kgreenlandic" format="2">
  <advance width="287"/>
  <unicode hex="0138"/>
  <outline>
    <contour>
      <point x="201" y="0" type="curve"/>
      <point x="323" y="3" type="line"/>
      <point x="277" y="103"/>
      <point x="237" y="215"/>
      <point x="210" y="304" type="curve"/>
      <point x="240" y="400"/>
      <point x="263" y="478"/>
      <point x="294" y="559" type="curve"/>
      <point x="180" y="561" type="line"/>
      <point x="164" y="485"/>
      <point x="142" y="408"/>
      <point x="104" y="295" type="curve"/>
      <point x="141" y="203"/>
      <point x="175" y="88"/>
    </contour>
    <contour>
      <point x="18" y="1" type="curve"/>
      <point x="127" y="1" type="line"/>
      <point x="126" y="52"/>
      <point x="124" y="159"/>
      <point x="124" y="264" type="curve"/>
      <point x="124" y="343"/>
      <point x="125" y="466"/>
      <point x="125" y="560" type="curve"/>
      <point x="23" y="558" type="line"/>
      <point x="23" y="465"/>
      <point x="24" y="347"/>
      <point x="24" y="266" type="curve"/>
      <point x="24" y="156"/>
      <point x="21" y="50"/>
    </contour>
  </outline>
</glyph>
<glyph name="lcaron" format="2">
  <advance width="239"/>
  <unicode hex="013E"/>
  <outline>
    <contour>
      <point x="21" y="0" type="curve"/>
      <point x="130" y="11" type="line"/>
      <point x="130" y="11"/>
      <point x="128" y="121"/>
      <point x="128" y="264" type="curve" smooth="yes"/>
      <point x="128" y="396"/>
      <point x="130" y="547"/>
      <point x="131" y="691" type="curve"/>
      <point x="24" y="692" type="line"/>
      <point x="26" y="599"/>
      <point x="29" y="403"/>
      <point x="29" y="266" type="curve" smooth="yes"/>
      <point x="29" y="117"/>
      <point x="20" y="-18"/>
    </contour>
    <contour>
      <point x="206" y="431" type="line"/>
      <point x="249" y="475"/>
      <point x="257" y="538"/>
      <point x="257" y="599" type="curve" smooth="yes"/>
      <point x="257" y="643"/>
      <point x="257" y="654"/>
      <point x="257" y="698" type="curve"/>
      <point x="158" y="691" type="line"/>
      <point x="160" y="586" type="line"/>
      <point x="208" y="583" type="line"/>
      <point x="208" y="548"/>
      <point x="203" y="500"/>
      <point x="169" y="461" type="curve"/>
    </contour>
  </outline>
</glyph>
<glyph name="ldot" format="2">
  <advance width="235"/>
  <unicode hex="0140"/>
  <outline>
    <contour>
      <point x="21" y="0" type="curve"/>
      <point x="130" y="11" type="line"/>
      <point x="130" y="11"/>
      <point x="128" y="121"/>
      <point x="128" y="264" type="curve" smooth="yes"/>
      <point x="128" y="396"/>
      <point x="130" y="547"/>
      <point x="131" y="691" type="curve"/>
      <point x="24" y="692" type="line"/>
      <point x="26" y="599"/>
      <point x="29" y="403"/>
      <point x="29" y="266" type="curve" smooth="yes"/>
      <point x="29" y="117"/>
      <point x="20" y="-18"/>
    </contour>
    <contour>
      <point x="245" y="303" type="line"/>
      <point x="243" y="416" type="line"/>
      <point x="147" y="410" type="line"/>
      <point x="151" y="305" type="line"/>
    </contour>
  </outline>
</glyph>
<glyph name="napostrophe" format="2">
  <advance width="315"/>
  <unicode hex="0149"/>
  <outline>
    <contour>
      <point x="18" y="574" type="line"/>
      <point x="37" y="595"/>
      <point x="60" y="656"/>
      <point x="60" y="714" type="curve"/>
      <point x="60" y="754"/>
      <point x="61" y="830"/>
      <point x="61" y="830" type="curve"/>
      <point x="-34" y="823" type="line"/>
      <point x="-30" y="716" type="line"/>
      <point x="10" y="715" type="line"/>
      <point x="11" y="684"/>
      <point x="2" y="629"/>
      <point x="-20" y="596" type="curve"/>
    </contour>
    <component base="n"/>
  </outline>
</glyph>
<glyph name="Eng" format="2">
  <advance width="373"/>
  <unicode hex="014A"/>
  <outline>
    <contour>
      <point x="178" y="-168" type="line"/>
      <point x="281" y="-180"/>
      <point x="332" y="-130"/>
      <point x="332" y="0" type="curve"/>
      <point x="332" y="128"/>
      <point x="331" y="255"/>
      <point x="331" y="383" type="curve"/>
      <point x="331" y="508"/>
      <point x="334" y="646"/>
      <point x="337" y="715" type="curve"/>
      <point x="231" y="715" type="line"/>
      <point x="234" y="621"/>
      <point x="237" y="466"/>
      <point x="237" y="381" type="curve" smooth="yes"/>
      <point x="237" y="355"/>
      <point x="237" y="322"/>
      <point x="238" y="287" type="curve"/>
      <point x="231" y="328"/>
      <point x="223" y="368"/>
      <point x="216" y="409" type="curve" smooth="yes"/>
      <point x="198" y="509"/>
      <point x="181" y="602"/>
      <point x="166" y="704" type="curve"/>
      <point x="36" y="704" type="line"/>
      <point x="39" y="628"/>
      <point x="42" y="481"/>
      <point x="42" y="356" type="curve" smooth="yes"/>
      <point x="42" y="231"/>
      <point x="40" y="80"/>
      <point x="39" y="1" type="curve"/>
      <point x="142" y="0" type="line"/>
      <point x="141" y="51"/>
      <point x="139" y="149"/>
      <point x="139" y="234" type="curve" smooth="yes"/>
      <point x="139" y="287"/>
      <point x="139" y="329"/>
      <point x="139" y="386" type="curve"/>
      <point x="145" y="359"/>
      <point x="151" y="332"/>
      <point x="157" y="305" type="curve" smooth="yes"/>
      <point x="177" y="210"/>
      <point x="209" y="106"/>
      <point x="232" y="1" type="curve"/>
      <point x="232" y="-54"/>
      <point x="219" y="-78"/>
      <point x="161" y="-81" type="curve"/>
    </contour>
  </outline>
</glyph>
<glyph name="eng" format="2">
  <advance width="315"/>
  <unicode hex="014B"/>
  <outline>
    <contour>
      <point x="120" y="-169" type="line"/>
      <point x="222" y="-180"/>
      <point x="287" y="-131"/>
      <point x="287" y="0" type="curve" smooth="yes"/>
      <point x="287" y="78"/>
      <point x="285" y="108"/>
      <point x="285" y="251" type="curve" smooth="yes"/>
      <point x="285" y="453" type="line" smooth="yes"/>
      <point x="285" y="536"/>
      <point x="253" y="563"/>
      <point x="211" y="563" type="curve" smooth="yes"/>
      <point x="193" y="563"/>
      <point x="159" y="560"/>
      <point x="130" y="514" type="curve"/>
      <point x="130" y="530"/>
      <point x="129" y="546"/>
      <point x="129" y="562" type="curve"/>
      <point x="31" y="555" type="line"/>
      <point x="32" y="505"/>
      <point x="33" y="415"/>
      <point x="33" y="286" type="curve" smooth="yes"/>
      <point x="33" y="159"/>
      <point x="31" y="76"/>
      <point x="27" y="1" type="curve"/>
      <point x="141" y="1" type="line"/>
      <point x="140" y="82"/>
      <point x="137" y="201"/>
      <point x="137" y="316" type="curve" smooth="yes"/>
      <point x="137" y="433"/>
      <point x="134" y="477"/>
      <point x="160" y="477" type="curve" smooth="yes"/>
      <point x="179" y="477"/>
      <point x="181" y="456"/>
      <point x="181" y="433" type="curve" smooth="yes"/>
      <point x="183" y="250" type="line"/>
      <point x="184" y="161"/>
      <point x="186" y="72"/>
      <point x="187" y="-17" type="curve" smooth="yes"/>
      <point x="187" y="-57"/>
      <point x="182" y="-89"/>
      <point x="117" y="-89" type="curve"/>
    </contour>
  </outline>
</glyph>
<glyph name="OE" format="2">
  <advance width="504"/>
  <unicode hex="0152"/>
  <outline>
    <contour>
      <point x="211" y="-9" type="curve" smooth="yes"/>
      <point x="282" y="-9"/>
      <point x="321" y="0"/>
      <point x="392" y="0" type="curve" smooth="yes"/>
      <point x="485" y="0" type="line"/>
      <point x="480" y="76" type="line"/>
      <point x="350" y="80" type="line"/>
      <point x="349" y="190" type="line"/>
      <point x="480" y="193" type="line"/>
      <point x="482" y="283" type="line"/>
      <point x="348" y="285" type="line"/>
      <point x="348" y="341" type="line" smooth="yes"/>
      <point x="348" y="414"/>
      <point x="349" y="530"/>
      <point x="350" y="610" type="curve"/>
      <point x="473" y="611" type="line"/>
      <point x="473" y="693" type="line"/>
      <point x="395" y="693" type="line" smooth="yes"/>
      <point x="316" y="693"/>
      <point x="286" y="702"/>
      <point x="213" y="702" type="curve" smooth="yes"/>
      <point x="92" y="702"/>
      <point x="36" y="610"/>
      <point x="36" y="355" type="curve" smooth="yes"/>
      <point x="36" y="225"/>
      <point x="37" y="-9"/>
    </contour>
    <contour>
      <point x="227" y="72" type="curve" smooth="yes"/>
      <point x="175" y="72"/>
      <point x="148" y="163"/>
      <point x="148" y="344" type="curve" smooth="yes"/>
      <point x="148" y="568"/>
      <point x="158" y="613"/>
      <point x="209" y="613" type="curve" smooth="yes"/>
      <point x="215" y="613"/>
      <point x="232" y="613"/>
      <point x="239" y="611" type="curve"/>
      <point x="243" y="542"/>
      <point x="245" y="440"/>
      <point x="245" y="342" type="curve" smooth="yes"/>
      <point x="245" y="241"/>
      <point x="243" y="134"/>
      <point x="242" y="74" type="curve"/>
      <point x="237" y="73"/>
      <point x="232" y="72"/>
    </contour>
  </outline>
</glyph>
<glyph name="oe" format="2">
  <advance width="467"/>
  <unicode hex="0153"/>
  <outline>
    <contour>
      <point x="154" y="-10" type="curve" smooth="yes"/>
      <point x="228" y="-10"/>
      <point x="260" y="39"/>
      <point x="273" y="90" type="curve" smooth="yes"/>
      <point x="290" y="156"/>
      <point x="289" y="224"/>
      <point x="289" y="283" type="curve" smooth="yes"/>
      <point x="289" y="347"/>
      <point x="291" y="401"/>
      <point x="283" y="457" type="curve" smooth="yes"/>
      <point x="273" y="530"/>
      <point x="237" y="567"/>
      <point x="168" y="567" type="curve" smooth="yes"/>
      <point x="99" y="567"/>
      <point x="61" y="533"/>
      <point x="41" y="451" type="curve" smooth="yes"/>
      <point x="33" y="418"/>
      <point x="29" y="327"/>
      <point x="29" y="284" type="curve" smooth="yes"/>
      <point x="29" y="241"/>
      <point x="28" y="167"/>
      <point x="34" y="113" type="curve" smooth="yes"/>
      <point x="43" y="33"/>
      <point x="75" y="-10"/>
    </contour>
    <contour>
      <point x="158" y="71" type="curve" smooth="yes"/>
      <point x="141" y="71"/>
      <point x="137" y="83"/>
      <point x="136" y="108" type="curve" smooth="yes"/>
      <point x="134" y="151"/>
      <point x="136" y="223"/>
      <point x="136" y="263" type="curve" smooth="yes"/>
      <point x="136" y="304"/>
      <point x="135" y="407"/>
      <point x="140" y="451" type="curve" smooth="yes"/>
      <point x="142" y="469"/>
      <point x="144" y="489"/>
      <point x="161" y="489" type="curve" smooth="yes"/>
      <point x="177" y="489"/>
      <point x="180" y="477"/>
      <point x="181" y="450" type="curve" smooth="yes"/>
      <point x="182" y="423"/>
      <point x="182" y="355"/>
      <point x="182" y="287" type="curve" smooth="yes"/>
      <point x="182" y="235"/>
      <point x="183" y="146"/>
      <point x="180" y="108" type="curve" smooth="yes"/>
      <point x="178" y="82"/>
      <point x="170" y="71"/>
    </contour>
    <contour>
      <point x="315" y="-9" type="curve" smooth="yes"/>
      <point x="408" y="-9"/>
      <point x="442" y="59"/>
      <point x="442" y="148" type="curve" smooth="yes"/>
      <point x="442" y="161"/>
      <point x="441" y="174"/>
      <point x="440" y="188" type="curve"/>
      <point x="336" y="188" type="line"/>
      <point x="337" y="173"/>
      <point x="338" y="155"/>
      <point x="338" y="138" type="curve" smooth="yes"/>
      <point x="338" y="103"/>
      <point x="335" y="71"/>
      <point x="315" y="71" type="curve" smooth="yes"/>
      <point x="295" y="71"/>
      <point x="295" y="94"/>
      <point x="294" y="119" type="curve" smooth="yes"/>
      <point x="293" y="147"/>
      <point x="295" y="246"/>
      <point x="295" y="291" type="curve" smooth="yes"/>
      <point x="295" y="343"/>
      <point x="295" y="382"/>
      <point x="297" y="420" type="curve" smooth="yes"/>
      <point x="300" y="479"/>
      <point x="303" y="489"/>
      <point x="320" y="489" type="curve" smooth="yes"/>
      <point x="338" y="489"/>
      <point x="341" y="461"/>
      <point x="341" y="417" type="curve" smooth="yes"/>
      <point x="341" y="390"/>
      <point x="340" y="358"/>
      <point x="339" y="323" type="curve"/>
      <point x="438" y="253" type="line"/>
      <point x="443" y="295"/>
      <point x="447" y="343"/>
      <point x="447" y="388" type="curve" smooth="yes"/>
      <point x="447" y="483"/>
      <point x="426" y="567"/>
      <point x="328" y="567" type="curve" smooth="yes"/>
      <point x="257" y="567"/>
      <point x="211" y="534"/>
      <point x="195" y="424" type="curve" smooth="yes"/>
      <point x="190" y="389"/>
      <point x="188" y="323"/>
      <point x="188" y="275" type="curve" smooth="yes"/>
      <point x="188" y="208"/>
      <point x="188" y="163"/>
      <point x="193" y="112" type="curve" smooth="yes"/>
      <point x="202" y="25"/>
      <point x="240" y="-9"/>
    </contour>
    <contour>
      <point x="225" y="245" type="line"/>
      <point x="311" y="252"/>
      <point x="438" y="253"/>
      <point x="438" y="253" type="curve"/>
      <point x="409" y="330" type="line"/>
      <point x="221" y="328" type="line"/>
    </contour>
  </outline>
</glyph>
<glyph name="longs" format="2">
  <advance width="210"/>
  <unicode hex="017F"/>
  <outline>
    <contour>
      <point x="-5" y="449" type="line"/>
      <point x="-5" y="449"/>
      <point x="54" y="452"/>
      <point x="104" y="452" type="curve"/>
      <point x="106" y="551" type="line"/>
      <point x="59" y="551"/>
      <point x="-1" y="553"/>
      <point x="-1" y="553" type="curve"/>
    </contour>
    <contour>
      <point x="171" y="714" type="curve" smooth="yes"/>
      <point x="83" y="714"/>
      <point x="49" y="661"/>
      <point x="49" y="569" type="curve" smooth="yes"/>
      <point x="49" y="451"/>
      <point x="48" y="392"/>
      <point x="48" y="271" type="curve" smooth="yes"/>
      <point x="48" y="125"/>
      <point x="42" y="-3"/>
      <point x="42" y="-3" type="curve"/>
      <point x="159" y="0" type="line"/>
      <point x="159" y="0"/>
      <point x="152" y="129"/>
      <point x="152" y="272" type="curve" smooth="yes"/>
      <point x="152" y="386"/>
      <point x="155" y="485"/>
      <point x="158" y="593" type="curve" smooth="yes"/>
      <point x="159" y="618"/>
      <point x="160" y="631"/>
      <point x="175" y="631" type="curve" smooth="yes"/>
      <point x="189" y="631"/>
      <point x="192" y="622"/>
      <point x="192" y="590" type="curve"/>
      <point x="289" y="589" type="line"/>
      <point x="293" y="663"/>
      <point x="258" y="714"/>
    </contour>
  </outline>
</glyph>
